<svg width="364" height="125" viewBox="0 0 364 125" fill="none" xmlns="http://www.w3.org/2000/svg">
<path d="M2.47306 51C2.37706 51 2.32906 50.904 2.32906 50.712C2.32906 50.52 2.37706 50.424 2.47306 50.424C3.62506 50.424 4.45706 50.344 4.96906 50.184C5.51306 50.024 5.88106 49.72 6.07306 49.272C6.26506 48.792 6.36106 48.072 6.36106 47.112V24.888C6.36106 23.928 6.26506 23.224 6.07306 22.776C5.88106 22.328 5.51306 22.024 4.96906 21.864C4.45706 21.672 3.62506 21.576 2.47306 21.576C2.37706 21.576 2.32906 21.48 2.32906 21.288C2.32906 21.096 2.37706 21 2.47306 21H22.0571C22.3771 21 22.5371 21.144 22.5371 21.432L22.6331 27.48C22.6331 27.576 22.5371 27.64 22.3451 27.672C22.1851 27.672 22.0891 27.624 22.0571 27.528C21.8331 25.768 21.2091 24.424 20.1851 23.496C19.1611 22.568 17.8171 22.104 16.1531 22.104H13.7051C12.2971 22.104 11.3531 22.312 10.8731 22.728C10.3931 23.144 10.1531 23.928 10.1531 25.08V46.92C10.1531 48.072 10.3611 48.856 10.7771 49.272C11.2251 49.688 12.1051 49.896 13.4171 49.896H16.5851C18.3771 49.896 19.8651 49.368 21.0491 48.312C22.2651 47.224 23.0971 45.688 23.5451 43.704C23.5451 43.64 23.6091 43.608 23.7371 43.608C23.8331 43.608 23.9131 43.64 23.9771 43.704C24.0731 43.736 24.1211 43.768 24.1211 43.8C23.8011 46.104 23.6411 48.264 23.6411 50.28C23.6411 50.536 23.5931 50.728 23.4971 50.856C23.4011 50.952 23.2091 51 22.9211 51H2.47306ZM20.2331 39.96C20.2331 38.584 19.8331 37.576 19.0331 36.936C18.2651 36.264 17.0331 35.928 15.3371 35.928H8.32906V34.824H15.4331C17.0651 34.824 18.2651 34.552 19.0331 34.008C19.8011 33.432 20.1851 32.552 20.1851 31.368C20.1851 31.304 20.2651 31.272 20.4251 31.272C20.6171 31.272 20.7131 31.304 20.7131 31.368L20.6651 35.4L20.7131 37.56C20.7771 38.584 20.8091 39.384 20.8091 39.96C20.8091 40.024 20.7131 40.056 20.5211 40.056C20.3291 40.056 20.2331 40.024 20.2331 39.96ZM30.5527 35.208C30.5527 36.264 30.9047 37.128 31.6087 37.8C32.3127 38.472 33.3527 39.176 34.7287 39.912C35.8487 40.488 36.7287 41 37.3687 41.448C38.0087 41.864 38.5527 42.408 39.0007 43.08C39.4487 43.752 39.6727 44.584 39.6727 45.576C39.6727 47.208 39.0487 48.616 37.8007 49.8C36.5847 50.952 34.9047 51.528 32.7607 51.528C31.0967 51.528 29.5287 51.064 28.0567 50.136C27.8647 49.944 27.7687 49.752 27.7687 49.56L27.6727 45.528C27.6727 45.432 27.7527 45.384 27.9127 45.384C28.1047 45.352 28.2167 45.368 28.2487 45.432C28.8247 47.032 29.6247 48.296 30.6487 49.224C31.7047 50.152 32.8727 50.616 34.1527 50.616C35.0487 50.616 35.7367 50.392 36.2167 49.944C36.7287 49.496 36.9847 48.84 36.9847 47.976C36.9847 47.08 36.7927 46.328 36.4087 45.72C36.0247 45.08 35.5447 44.584 34.9687 44.232C34.4247 43.848 33.6727 43.4 32.7127 42.888C31.6247 42.344 30.7767 41.864 30.1687 41.448C29.5607 41.032 29.0327 40.488 28.5847 39.816C28.1687 39.144 27.9607 38.312 27.9607 37.32C27.9607 35.528 28.6167 34.184 29.9287 33.288C31.2407 32.36 32.8087 31.896 34.6327 31.896C35.8807 31.896 37.0967 32.136 38.2807 32.616C38.5687 32.712 38.7127 32.888 38.7127 33.144C38.7127 33.848 38.6967 34.392 38.6647 34.776L38.6167 36.888C38.6167 36.984 38.5207 37.032 38.3287 37.032C38.1367 37.032 38.0407 36.984 38.0407 36.888C38.0407 36.248 37.7847 35.608 37.2727 34.968C36.7607 34.328 36.1047 33.816 35.3047 33.432C34.5367 33.048 33.7527 32.856 32.9527 32.856C32.2167 32.856 31.6247 33.048 31.1767 33.432C30.7607 33.784 30.5527 34.376 30.5527 35.208ZM49.6994 51.576C48.3554 51.576 47.2194 51.272 46.2914 50.664C45.3954 50.024 44.9474 48.968 44.9474 47.496V36.408C44.9474 35.288 44.7874 34.568 44.4674 34.248C44.1794 33.928 43.5074 33.768 42.4514 33.768C42.3554 33.768 42.3074 33.64 42.3074 33.384C42.3074 33.16 42.3554 33.048 42.4514 33.048C43.8594 33.016 44.9954 32.68 45.8594 32.04C46.7234 31.368 47.2834 30.456 47.5394 29.304C47.5714 29.208 47.6994 29.16 47.9234 29.16C48.1474 29.16 48.2594 29.208 48.2594 29.304V45.864C48.2594 48.392 49.4914 49.656 51.9554 49.656C53.3314 49.656 54.5954 49.208 55.7474 48.312C55.7794 48.28 55.8274 48.264 55.8914 48.264C55.9874 48.264 56.0674 48.328 56.1314 48.456C56.1954 48.584 56.1794 48.68 56.0834 48.744C54.8994 49.736 53.8114 50.456 52.8194 50.904C51.8274 51.352 50.7874 51.576 49.6994 51.576ZM54.6434 34.824C52.4994 34.344 50.0194 34.104 47.2034 34.104V33C49.2194 33 51.7474 32.84 54.7874 32.52C54.8834 32.52 54.9634 32.632 55.0274 32.856C55.0914 33.08 55.1234 33.336 55.1234 33.624C55.1234 33.912 55.0754 34.2 54.9794 34.488C54.8834 34.744 54.7714 34.856 54.6434 34.824ZM71.1502 51.288C71.0222 51.352 70.8782 51.384 70.7182 51.384C70.2062 51.384 69.7422 51.016 69.3262 50.28C68.9102 49.512 68.7022 48.488 68.7022 47.208V38.424C68.7022 36.504 68.4622 35.112 67.9822 34.248C67.5342 33.352 66.8462 32.904 65.9182 32.904C64.8302 32.904 64.0302 33.272 63.5182 34.008C63.0062 34.744 62.6702 35.592 62.5102 36.552C62.3502 38.024 61.6622 38.76 60.4462 38.76C59.8382 38.76 59.3742 38.616 59.0542 38.328C58.7662 38.04 58.6222 37.672 58.6222 37.224C58.6222 36.392 59.1342 35.576 60.1582 34.776C61.1822 33.944 62.4142 33.272 63.8542 32.76C65.3262 32.248 66.6222 31.992 67.7422 31.992C69.0862 31.992 70.1262 32.424 70.8622 33.288C71.5982 34.152 71.9662 35.384 71.9662 36.984V45.816C71.9662 47.896 72.5742 48.936 73.7902 48.936C74.3982 48.936 75.1022 48.76 75.9022 48.408H75.9502C76.0782 48.408 76.1582 48.488 76.1902 48.648C76.2542 48.776 76.2222 48.872 76.0942 48.936L71.1502 51.288ZM62.3182 51.336C61.0702 51.336 60.1102 51.032 59.4382 50.424C58.7662 49.784 58.4302 48.968 58.4302 47.976C58.4302 46.888 58.8462 46.024 59.6782 45.384C60.5102 44.744 61.8542 44.072 63.7102 43.368L69.1822 41.352L69.3262 41.976L64.9582 43.752C64.1262 44.072 63.4702 44.472 62.9902 44.952C62.5102 45.4 62.2702 45.976 62.2702 46.68C62.2702 47.448 62.5102 48.088 62.9902 48.6C63.5022 49.08 64.1422 49.32 64.9102 49.32C65.5182 49.32 66.2062 49.096 66.9742 48.648L69.8062 46.872L69.9022 47.544L66.3982 49.848C65.6622 50.392 64.9742 50.776 64.3342 51C63.6942 51.224 63.0222 51.336 62.3182 51.336ZM87.5624 51.624C84.7784 51.624 82.3304 50.712 80.2184 48.888L82.7624 44.184C82.7624 45.688 83.0984 46.936 83.7704 47.928C84.4424 48.888 85.2424 49.592 86.1704 50.04C87.1304 50.488 88.0584 50.712 88.9544 50.712C90.6504 50.712 91.9624 49.992 92.8904 48.552C93.8504 47.112 94.3304 45.08 94.3304 42.456C94.3304 39.608 93.7864 37.448 92.6984 35.976C91.6424 34.472 90.2344 33.72 88.4744 33.72C87.3544 33.72 86.2824 34.024 85.2584 34.632C84.2344 35.24 83.1944 36.072 82.1384 37.128L81.7544 36.792C83.0984 35.288 84.4104 34.088 85.6904 33.192C87.0024 32.296 88.5224 31.848 90.2504 31.848C91.6584 31.848 92.9544 32.184 94.1384 32.856C95.3224 33.528 96.2664 34.536 96.9704 35.88C97.6744 37.192 98.0264 38.808 98.0264 40.728C98.0264 43.064 97.5304 45.048 96.5384 46.68C95.5464 48.312 94.2504 49.544 92.6504 50.376C91.0504 51.208 89.3544 51.624 87.5624 51.624ZM76.9544 51.24C76.8264 51.24 76.7464 51.176 76.7144 51.048C76.7144 50.952 76.7624 50.872 76.8584 50.808C77.7864 50.168 78.4584 49.512 78.8744 48.84C79.2904 48.168 79.4984 47.24 79.4984 46.056V22.44C79.4984 21.32 79.3864 20.504 79.1624 19.992C78.9384 19.48 78.5384 19.224 77.9624 19.224C77.5144 19.224 76.8264 19.432 75.8984 19.848H75.8504C75.7224 19.848 75.6264 19.768 75.5624 19.608C75.4984 19.416 75.5304 19.304 75.6584 19.272L81.9464 16.248L82.1864 16.2C82.3144 16.2 82.4424 16.248 82.5704 16.344C82.6984 16.44 82.7624 16.552 82.7624 16.68V48.648L77.0504 51.24H76.9544ZM100.605 51C100.541 51 100.509 50.904 100.509 50.712C100.509 50.52 100.541 50.424 100.605 50.424C101.789 50.424 102.557 50.216 102.909 49.8C103.293 49.352 103.485 48.456 103.485 47.112L103.533 22.44C103.533 21.288 103.421 20.472 103.197 19.992C102.973 19.48 102.589 19.224 102.045 19.224C101.501 19.224 100.813 19.432 99.9809 19.848H99.9329C99.8049 19.848 99.6929 19.768 99.5969 19.608C99.5329 19.416 99.5649 19.304 99.6929 19.272L106.125 16.248L106.317 16.2C106.413 16.2 106.525 16.248 106.653 16.344C106.813 16.44 106.893 16.552 106.893 16.68V47.112C106.893 48.456 107.069 49.352 107.421 49.8C107.805 50.216 108.573 50.424 109.725 50.424C109.853 50.424 109.917 50.52 109.917 50.712C109.917 50.904 109.853 51 109.725 51C108.989 51 108.397 50.984 107.949 50.952L105.165 50.904L102.477 50.952C102.029 50.984 101.405 51 100.605 51ZM121.089 51.576C119.201 51.576 117.569 51.16 116.193 50.328C114.817 49.464 113.777 48.328 113.073 46.92C112.369 45.48 112.017 43.944 112.017 42.312C112.017 40.424 112.465 38.696 113.361 37.128C114.289 35.56 115.537 34.328 117.105 33.432C118.673 32.504 120.417 32.04 122.337 32.04C124.225 32.04 125.665 32.52 126.657 33.48C127.649 34.408 128.145 35.752 128.145 37.512C128.145 38.408 127.953 38.856 127.569 38.856H124.257C124.385 36.968 124.129 35.528 123.489 34.536C122.881 33.512 121.953 33 120.705 33C119.137 33 117.905 33.672 117.009 35.016C116.145 36.328 115.713 38.136 115.713 40.44C115.713 43.256 116.353 45.496 117.633 47.16C118.945 48.824 120.801 49.656 123.201 49.656C124.129 49.656 124.929 49.544 125.601 49.32C126.273 49.064 127.057 48.68 127.953 48.168H128.001C128.097 48.168 128.177 48.232 128.241 48.36C128.337 48.456 128.353 48.552 128.289 48.648C127.137 49.672 125.985 50.424 124.833 50.904C123.681 51.352 122.433 51.576 121.089 51.576ZM114.561 38.184L125.313 37.992V38.856L114.609 38.904L114.561 38.184ZM139.966 51.576C137.886 51.576 136.126 51.128 134.686 50.232C133.278 49.304 132.222 48.12 131.518 46.68C130.846 45.24 130.51 43.72 130.51 42.12C130.51 40.072 131.038 38.296 132.094 36.792C133.15 35.256 134.51 34.088 136.174 33.288C137.838 32.456 139.534 32.04 141.262 32.04C142.702 32.04 144.014 32.344 145.198 32.952C146.382 33.528 146.974 34.264 146.974 35.16C146.974 35.64 146.798 36.056 146.446 36.408C146.094 36.76 145.614 36.936 145.006 36.936C143.982 36.936 143.182 36.312 142.606 35.064C142.254 34.328 141.87 33.8 141.454 33.48C141.038 33.16 140.414 33 139.582 33C137.918 33 136.606 33.704 135.646 35.112C134.686 36.488 134.206 38.328 134.206 40.632C134.206 43.288 134.846 45.464 136.126 47.16C137.438 48.856 139.422 49.704 142.078 49.704C143.838 49.704 145.438 49.208 146.878 48.216H146.974C147.07 48.216 147.15 48.264 147.214 48.36C147.31 48.456 147.31 48.536 147.214 48.6C146.094 49.624 144.958 50.376 143.806 50.856C142.654 51.336 141.374 51.576 139.966 51.576ZM150.144 51C150.048 51 150 50.904 150 50.712C150 50.52 150.048 50.424 150.144 50.424C151.328 50.424 152.096 50.216 152.448 49.8C152.832 49.352 153.024 48.456 153.024 47.112V38.232C153.024 37.112 152.912 36.312 152.688 35.832C152.464 35.32 152.064 35.064 151.488 35.064C150.976 35.064 150.288 35.272 149.424 35.688H149.376C149.248 35.688 149.152 35.608 149.088 35.448C149.024 35.256 149.056 35.144 149.184 35.112L155.712 32.088L155.904 32.04C156 32.04 156.096 32.088 156.192 32.184C156.32 32.28 156.384 32.392 156.384 32.52C156.384 32.744 156.368 33.384 156.336 34.44C156.304 35.496 156.288 36.744 156.288 38.184V47.112C156.288 48.456 156.464 49.352 156.816 49.8C157.2 50.216 157.984 50.424 159.168 50.424C159.264 50.424 159.312 50.52 159.312 50.712C159.312 50.904 159.264 51 159.168 51C158.4 51 157.776 50.984 157.296 50.952L154.656 50.904L152.016 50.952C151.536 50.984 150.912 51 150.144 51ZM154.368 26.664C153.632 26.664 153.04 26.472 152.592 26.088C152.176 25.672 151.968 25.096 151.968 24.36C151.968 23.656 152.176 23.112 152.592 22.728C153.04 22.344 153.632 22.152 154.368 22.152C155.072 22.152 155.616 22.344 156 22.728C156.416 23.112 156.624 23.656 156.624 24.36C156.624 25.096 156.432 25.672 156.048 26.088C155.664 26.472 155.104 26.664 154.368 26.664ZM168.937 51.624C167.593 51.624 166.345 51.256 165.193 50.52C164.041 49.752 163.129 48.664 162.457 47.256C161.785 45.848 161.449 44.232 161.449 42.408C161.449 40.072 162.009 38.12 163.129 36.552C164.249 34.952 165.641 33.768 167.305 33C169.001 32.232 170.697 31.848 172.393 31.848C174.473 31.848 176.441 32.488 178.297 33.768L177.529 37.224C176.761 35.816 175.881 34.744 174.889 34.008C173.929 33.272 172.729 32.904 171.289 32.904C169.369 32.904 167.849 33.576 166.729 34.92C165.641 36.264 165.097 38.264 165.097 40.92C165.097 43.608 165.657 45.752 166.777 47.352C167.897 48.92 169.321 49.704 171.049 49.704C172.329 49.704 173.481 49.368 174.505 48.696C175.561 47.992 176.649 47.016 177.769 45.768L178.201 46.152C176.729 47.816 175.289 49.144 173.881 50.136C172.473 51.128 170.825 51.624 168.937 51.624ZM179.977 45.624C179.977 46.744 180.105 47.56 180.361 48.072C180.617 48.552 181.033 48.792 181.609 48.792C182.345 48.792 183.129 48.584 183.961 48.168L184.057 48.12C184.153 48.12 184.233 48.2 184.297 48.36C184.361 48.52 184.345 48.632 184.249 48.696L178.537 51.432C178.345 51.496 178.233 51.528 178.201 51.528C177.785 51.528 177.433 51.128 177.145 50.328C176.857 49.528 176.713 48.456 176.713 47.112V22.44C176.713 21.288 176.601 20.472 176.377 19.992C176.153 19.48 175.769 19.224 175.225 19.224C174.777 19.224 174.089 19.432 173.161 19.848H173.065C172.937 19.848 172.841 19.784 172.777 19.656C172.713 19.496 172.729 19.384 172.825 19.32L179.209 16.248C179.273 16.216 179.353 16.2 179.449 16.2C179.545 16.2 179.657 16.248 179.785 16.344C179.913 16.44 179.977 16.552 179.977 16.68V45.624ZM194.556 51.624C192.668 51.624 191.004 51.176 189.564 50.28C188.124 49.352 187.004 48.12 186.204 46.584C185.436 45.016 185.052 43.32 185.052 41.496C185.052 39.416 185.564 37.656 186.588 36.216C187.612 34.744 188.924 33.656 190.524 32.952C192.124 32.216 193.756 31.848 195.42 31.848C197.308 31.848 198.972 32.312 200.412 33.24C201.852 34.168 202.956 35.4 203.724 36.936C204.492 38.44 204.876 40.04 204.876 41.736C204.876 43.688 204.396 45.416 203.436 46.92C202.508 48.424 201.26 49.592 199.692 50.424C198.124 51.224 196.412 51.624 194.556 51.624ZM195.948 50.712C197.548 50.712 198.78 50.088 199.644 48.84C200.508 47.592 200.94 45.704 200.94 43.176C200.94 41.096 200.62 39.272 199.98 37.704C199.372 36.136 198.524 34.936 197.436 34.104C196.348 33.24 195.132 32.808 193.788 32.808C192.22 32.808 191.004 33.416 190.14 34.632C189.308 35.816 188.892 37.576 188.892 39.912C188.892 41.928 189.196 43.768 189.804 45.432C190.412 47.064 191.244 48.36 192.3 49.32C193.388 50.248 194.604 50.712 195.948 50.712ZM210.656 35.208C210.656 36.264 211.008 37.128 211.712 37.8C212.416 38.472 213.456 39.176 214.832 39.912C215.952 40.488 216.832 41 217.472 41.448C218.112 41.864 218.656 42.408 219.104 43.08C219.552 43.752 219.776 44.584 219.776 45.576C219.776 47.208 219.152 48.616 217.904 49.8C216.688 50.952 215.008 51.528 212.864 51.528C211.2 51.528 209.632 51.064 208.16 50.136C207.968 49.944 207.872 49.752 207.872 49.56L207.776 45.528C207.776 45.432 207.856 45.384 208.016 45.384C208.208 45.352 208.32 45.368 208.352 45.432C208.928 47.032 209.728 48.296 210.752 49.224C211.808 50.152 212.976 50.616 214.256 50.616C215.152 50.616 215.84 50.392 216.32 49.944C216.832 49.496 217.088 48.84 217.088 47.976C217.088 47.08 216.896 46.328 216.512 45.72C216.128 45.08 215.648 44.584 215.072 44.232C214.528 43.848 213.776 43.4 212.816 42.888C211.728 42.344 210.88 41.864 210.272 41.448C209.664 41.032 209.136 40.488 208.688 39.816C208.272 39.144 208.064 38.312 208.064 37.32C208.064 35.528 208.72 34.184 210.032 33.288C211.344 32.36 212.912 31.896 214.736 31.896C215.984 31.896 217.2 32.136 218.384 32.616C218.672 32.712 218.816 32.888 218.816 33.144C218.816 33.848 218.8 34.392 218.768 34.776L218.72 36.888C218.72 36.984 218.624 37.032 218.432 37.032C218.24 37.032 218.144 36.984 218.144 36.888C218.144 36.248 217.888 35.608 217.376 34.968C216.864 34.328 216.208 33.816 215.408 33.432C214.64 33.048 213.856 32.856 213.056 32.856C212.32 32.856 211.728 33.048 211.28 33.432C210.864 33.784 210.656 34.376 210.656 35.208ZM241.869 51.576C239.981 51.576 238.349 51.16 236.973 50.328C235.597 49.464 234.557 48.328 233.853 46.92C233.149 45.48 232.797 43.944 232.797 42.312C232.797 40.424 233.245 38.696 234.141 37.128C235.069 35.56 236.317 34.328 237.885 33.432C239.453 32.504 241.197 32.04 243.117 32.04C245.005 32.04 246.445 32.52 247.437 33.48C248.429 34.408 248.925 35.752 248.925 37.512C248.925 38.408 248.733 38.856 248.349 38.856H245.037C245.165 36.968 244.909 35.528 244.269 34.536C243.661 33.512 242.733 33 241.485 33C239.917 33 238.685 33.672 237.789 35.016C236.925 36.328 236.493 38.136 236.493 40.44C236.493 43.256 237.133 45.496 238.413 47.16C239.725 48.824 241.581 49.656 243.981 49.656C244.909 49.656 245.709 49.544 246.381 49.32C247.053 49.064 247.837 48.68 248.733 48.168H248.781C248.877 48.168 248.957 48.232 249.021 48.36C249.117 48.456 249.133 48.552 249.069 48.648C247.917 49.672 246.765 50.424 245.613 50.904C244.461 51.352 243.213 51.576 241.869 51.576ZM235.341 38.184L246.093 37.992V38.856L235.389 38.904L235.341 38.184ZM264.867 51C264.771 51 264.723 50.904 264.723 50.712C264.723 50.52 264.771 50.424 264.867 50.424C265.667 50.424 266.259 50.344 266.643 50.184C267.059 49.992 267.331 49.672 267.459 49.224C267.619 48.744 267.699 48.04 267.699 47.112V39.576C267.699 37.72 267.363 36.36 266.691 35.496C266.019 34.632 264.947 34.2 263.475 34.2C262.355 34.2 261.219 34.536 260.067 35.208C258.947 35.88 257.987 36.776 257.187 37.896L256.995 37.32C259.683 33.672 262.499 31.848 265.443 31.848C267.203 31.848 268.563 32.376 269.523 33.432C270.515 34.456 271.011 35.896 271.011 37.752V47.112C271.011 48.04 271.075 48.744 271.203 49.224C271.363 49.672 271.635 49.992 272.019 50.184C272.435 50.344 273.059 50.424 273.891 50.424C273.987 50.424 274.035 50.52 274.035 50.712C274.035 50.904 273.987 51 273.891 51C273.123 51 272.499 50.984 272.019 50.952L269.379 50.904L266.739 50.952C266.259 50.984 265.635 51 264.867 51ZM251.955 51C251.859 51 251.811 50.904 251.811 50.712C251.811 50.52 251.859 50.424 251.955 50.424C252.755 50.424 253.347 50.344 253.731 50.184C254.147 49.992 254.419 49.672 254.547 49.224C254.707 48.744 254.787 48.04 254.787 47.112V37.752C254.787 36.696 254.659 35.944 254.403 35.496C254.179 35.016 253.779 34.776 253.203 34.776C252.659 34.776 251.811 35 250.659 35.448H250.563C250.467 35.448 250.387 35.368 250.323 35.208C250.291 35.048 250.323 34.952 250.419 34.92L256.323 32.088L256.611 32.04C256.931 32.04 257.251 32.424 257.571 33.192C257.923 33.928 258.099 34.904 258.099 36.12V47.112C258.099 48.04 258.163 48.744 258.291 49.224C258.451 49.672 258.723 49.992 259.107 50.184C259.523 50.344 260.147 50.424 260.979 50.424C261.075 50.424 261.123 50.52 261.123 50.712C261.123 50.904 261.075 51 260.979 51C260.211 51 259.587 50.984 259.107 50.952L256.467 50.904L253.779 50.952C253.331 50.984 252.723 51 251.955 51ZM290.494 36.36C290.494 35.368 290.398 34.648 290.206 34.2C290.046 33.752 289.694 33.448 289.15 33.288C288.606 33.128 287.726 33.048 286.51 33.048C286.414 33.048 286.366 32.952 286.366 32.76C286.366 32.568 286.414 32.472 286.51 32.472C287.47 32.472 288.238 32.488 288.814 32.52L292.126 32.568L295.438 32.52C295.982 32.488 296.75 32.472 297.742 32.472C297.838 32.472 297.886 32.568 297.886 32.76C297.886 32.952 297.838 33.048 297.742 33.048C296.59 33.048 295.742 33.144 295.198 33.336C294.654 33.496 294.27 33.8 294.046 34.248C293.854 34.696 293.758 35.4 293.758 36.36V47.112C293.758 48.104 293.838 48.824 293.998 49.272C294.19 49.72 294.558 50.024 295.102 50.184C295.646 50.344 296.526 50.424 297.742 50.424C297.838 50.424 297.886 50.52 297.886 50.712C297.886 50.904 297.838 51 297.742 51C296.782 51 296.014 50.984 295.438 50.952L292.126 50.904L288.814 50.952C288.27 50.984 287.502 51 286.51 51C286.414 51 286.366 50.904 286.366 50.712C286.366 50.52 286.414 50.424 286.51 50.424C287.662 50.424 288.51 50.344 289.054 50.184C289.598 49.992 289.966 49.672 290.158 49.224C290.382 48.776 290.494 48.072 290.494 47.112V36.36ZM307.44 45.864C305.904 45.864 304.624 45.544 303.6 44.904C302.576 44.232 301.824 43.4 301.344 42.408C300.896 41.384 300.672 40.344 300.672 39.288C300.672 37.848 301.056 36.568 301.824 35.448C302.592 34.328 303.648 33.448 304.992 32.808C306.336 32.168 307.84 31.848 309.504 31.848C312.544 31.848 314.944 32.856 316.704 34.872C318.464 36.888 319.344 39.576 319.344 42.936C319.344 45.848 318.656 48.728 317.28 51.576C315.936 54.456 313.968 57.016 311.376 59.256C308.784 61.496 305.744 63.144 302.256 64.2C302.16 64.232 302.064 64.168 301.968 64.008C301.904 63.848 301.936 63.736 302.064 63.672C304.976 62.456 307.456 60.744 309.504 58.536C311.584 56.36 313.136 53.976 314.16 51.384C315.184 48.824 315.696 46.312 315.696 43.848C315.696 42.152 315.456 40.456 314.976 38.76C314.528 37.064 313.776 35.64 312.72 34.488C311.696 33.336 310.384 32.76 308.784 32.76C307.344 32.76 306.24 33.256 305.472 34.248C304.704 35.208 304.32 36.552 304.32 38.28C304.32 40.072 304.72 41.528 305.52 42.648C306.352 43.768 307.568 44.328 309.168 44.328C309.936 44.328 310.608 44.2 311.184 43.944C311.792 43.688 312.496 43.256 313.296 42.648C313.328 42.616 313.376 42.6 313.44 42.6C313.536 42.6 313.616 42.648 313.68 42.744C313.776 42.84 313.808 42.92 313.776 42.984C312.208 44.904 310.096 45.864 307.44 45.864ZM321.976 50.616C321.816 50.616 321.688 50.552 321.592 50.424C321.496 50.296 321.512 50.168 321.64 50.04L335.896 31.992C335.96 31.928 336.056 31.896 336.184 31.896C336.28 31.896 336.376 31.928 336.472 31.992C336.568 32.024 336.616 32.088 336.616 32.184V58.104C336.616 58.424 336.488 58.648 336.232 58.776L333.688 60.024C333.496 60.088 333.4 60.12 333.4 60.12C333.304 60.12 333.256 59.992 333.256 59.736V36.408L335.464 34.776L324.232 48.792C324.136 48.888 324.104 48.968 324.136 49.032C324.2 49.096 324.312 49.128 324.472 49.128C327.992 49.128 332.376 49.064 337.624 48.936L340.456 48.84C340.584 48.84 340.648 49.128 340.648 49.704C340.648 49.992 340.616 50.28 340.552 50.568C340.52 50.824 340.472 50.952 340.408 50.952C337.976 50.824 335.48 50.744 332.92 50.712C330.392 50.648 326.744 50.616 321.976 50.616ZM355.774 37.32C357.886 37.32 359.454 37.912 360.478 39.096C361.534 40.28 362.062 41.704 362.062 43.368C362.062 44.872 361.614 46.264 360.718 47.544C359.854 48.792 358.67 49.784 357.166 50.52C355.694 51.256 354.078 51.624 352.318 51.624C349.566 51.624 347.39 50.696 345.79 48.84C344.19 46.984 343.39 44.376 343.39 41.016C343.39 38.04 344.078 35.112 345.454 32.232C346.83 29.352 348.798 26.776 351.358 24.504C353.95 22.232 356.99 20.488 360.478 19.272C360.606 19.24 360.702 19.304 360.766 19.464C360.83 19.624 360.814 19.736 360.718 19.8C357.774 21.176 355.262 22.984 353.182 25.224C351.134 27.432 349.598 29.848 348.574 32.472C347.55 35.064 347.038 37.656 347.038 40.248C347.038 43.192 347.63 45.656 348.814 47.64C350.03 49.624 351.646 50.616 353.662 50.616C355.102 50.616 356.254 50.088 357.118 49.032C357.982 47.976 358.414 46.52 358.414 44.664C358.414 42.936 358.03 41.544 357.262 40.488C356.494 39.432 355.358 38.904 353.854 38.904C353.086 38.904 352.366 39.064 351.694 39.384C351.054 39.672 350.318 40.168 349.486 40.872C349.454 40.904 349.406 40.92 349.342 40.92C349.246 40.92 349.15 40.872 349.054 40.776C348.958 40.68 348.926 40.6 348.958 40.536C350.75 38.392 353.022 37.32 355.774 37.32Z" fill="white"/>
<path d="M43.9714 92.7198C45.2314 92.7198 46.2914 92.8098 47.1514 92.9898C48.0114 93.1698 48.8714 93.4798 49.7314 93.9198C49.8714 93.9998 49.9514 94.0698 49.9714 94.1298C49.9914 94.1898 50.0214 94.3398 50.0614 94.5798L50.4214 98.1498C50.4214 98.2098 50.3614 98.2498 50.2414 98.2698C50.1414 98.2698 50.0814 98.2398 50.0614 98.1798C49.1414 94.8398 47.0814 93.1698 43.8814 93.1698C42.2014 93.1698 40.7114 93.5398 39.4114 94.2798C38.1314 95.0198 37.1414 96.0798 36.4414 97.4598C35.7414 98.8198 35.3914 100.41 35.3914 102.23C35.3914 103.97 35.7814 105.57 36.5614 107.03C37.3414 108.47 38.3814 109.61 39.6814 110.45C41.0014 111.29 42.4314 111.71 43.9714 111.71C45.6114 111.71 46.9414 111.31 47.9614 110.51C48.9814 109.71 49.7614 108.49 50.3014 106.85C50.3014 106.81 50.3514 106.79 50.4514 106.79C50.5914 106.79 50.6614 106.82 50.6614 106.88L50.3614 110.18C50.3414 110.42 50.3114 110.57 50.2714 110.63C50.2314 110.69 50.1514 110.76 50.0314 110.84C48.9914 111.34 48.0114 111.69 47.0914 111.89C46.1914 112.09 45.1514 112.19 43.9714 112.19C41.8714 112.19 39.9914 111.78 38.3314 110.96C36.6914 110.12 35.4114 108.95 34.4914 107.45C33.5714 105.95 33.1114 104.23 33.1114 102.29C33.1114 100.41 33.5814 98.7498 34.5214 97.3098C35.4614 95.8498 36.7514 94.7198 38.3914 93.9198C40.0514 93.1198 41.9114 92.7198 43.9714 92.7198ZM58.5378 112.19C57.3778 112.19 56.3478 111.91 55.4478 111.35C54.5678 110.77 53.8878 110 53.4078 109.04C52.9278 108.06 52.6878 107 52.6878 105.86C52.6878 104.56 52.9978 103.46 53.6178 102.56C54.2578 101.64 55.0678 100.96 56.0478 100.52C57.0478 100.06 58.0578 99.8298 59.0778 99.8298C60.2578 99.8298 61.2878 100.12 62.1678 100.7C63.0478 101.28 63.7178 102.05 64.1778 103.01C64.6578 103.95 64.8978 104.95 64.8978 106.01C64.8978 107.25 64.6078 108.34 64.0278 109.28C63.4478 110.2 62.6678 110.92 61.6878 111.44C60.7278 111.94 59.6778 112.19 58.5378 112.19ZM59.4078 111.62C60.5078 111.62 61.3578 111.23 61.9578 110.45C62.5578 109.67 62.8578 108.47 62.8578 106.85C62.8578 105.61 62.6478 104.5 62.2278 103.52C61.8278 102.54 61.2678 101.78 60.5478 101.24C59.8278 100.68 59.0078 100.4 58.0878 100.4C57.0078 100.4 56.1678 100.79 55.5678 101.57C54.9878 102.35 54.6978 103.47 54.6978 104.93C54.6978 106.15 54.8978 107.27 55.2978 108.29C55.6978 109.31 56.2578 110.12 56.9778 110.72C57.6978 111.32 58.5078 111.62 59.4078 111.62ZM82.1633 111.8C82.1033 111.8 82.0733 111.74 82.0733 111.62C82.0733 111.5 82.1033 111.44 82.1633 111.44C82.7033 111.44 83.1033 111.39 83.3633 111.29C83.6233 111.17 83.8033 110.97 83.9033 110.69C84.0033 110.39 84.0533 109.95 84.0533 109.37V104.6C84.0533 103.42 83.8433 102.54 83.4233 101.96C83.0033 101.38 82.3533 101.09 81.4733 101.09C80.7733 101.09 80.0533 101.33 79.3133 101.81C78.5933 102.27 77.9733 102.9 77.4533 103.7L77.3333 103.34C78.1733 102.16 79.0033 101.3 79.8233 100.76C80.6633 100.2 81.5433 99.9198 82.4633 99.9198C83.5233 99.9198 84.3333 100.22 84.8933 100.82C85.4533 101.42 85.7333 102.33 85.7333 103.55V109.37C85.7333 109.97 85.7833 110.41 85.8833 110.69C85.9833 110.97 86.1633 111.17 86.4233 111.29C86.6833 111.39 87.0833 111.44 87.6233 111.44C87.6833 111.44 87.7133 111.5 87.7133 111.62C87.7133 111.74 87.6833 111.8 87.6233 111.8C87.1633 111.8 86.7933 111.79 86.5133 111.77L84.8933 111.74L83.2733 111.77C82.9933 111.79 82.6233 111.8 82.1633 111.8ZM74.4233 111.8C74.3633 111.8 74.3333 111.74 74.3333 111.62C74.3333 111.5 74.3633 111.44 74.4233 111.44C74.9633 111.44 75.3633 111.39 75.6233 111.29C75.8833 111.17 76.0533 110.97 76.1333 110.69C76.2333 110.41 76.2833 109.97 76.2833 109.37V104.6C76.2833 103.42 76.0733 102.54 75.6533 101.96C75.2333 101.38 74.5933 101.09 73.7333 101.09C73.0133 101.09 72.2933 101.33 71.5733 101.81C70.8533 102.27 70.2333 102.9 69.7133 103.7L69.5933 103.34C70.4333 102.16 71.2633 101.3 72.0833 100.76C72.9233 100.2 73.7933 99.9198 74.6933 99.9198C75.7533 99.9198 76.5633 100.22 77.1233 100.82C77.7033 101.42 77.9933 102.31 77.9933 103.49V109.37C77.9933 109.97 78.0433 110.41 78.1433 110.69C78.2433 110.97 78.4233 111.17 78.6833 111.29C78.9433 111.39 79.3433 111.44 79.8833 111.44C79.9433 111.44 79.9733 111.5 79.9733 111.62C79.9733 111.74 79.9433 111.8 79.8833 111.8C79.4233 111.8 79.0533 111.79 78.7733 111.77L77.1533 111.74L75.5033 111.77C75.2433 111.79 74.8833 111.8 74.4233 111.8ZM66.7133 111.8C66.6533 111.8 66.6233 111.74 66.6233 111.62C66.6233 111.5 66.6533 111.44 66.7133 111.44C67.2533 111.44 67.6533 111.39 67.9133 111.29C68.1733 111.17 68.3433 110.97 68.4233 110.69C68.5233 110.41 68.5733 109.97 68.5733 109.37V103.43C68.5733 102.75 68.4933 102.26 68.3333 101.96C68.1733 101.66 67.9033 101.51 67.5233 101.51C67.2033 101.51 66.6633 101.66 65.9033 101.96H65.8433C65.7633 101.96 65.7033 101.92 65.6633 101.84C65.6433 101.74 65.6733 101.67 65.7533 101.63L69.2333 99.9798C69.2733 99.9598 69.3333 99.9498 69.4133 99.9498C69.5933 99.9498 69.7833 100.18 69.9833 100.64C70.1833 101.1 70.2833 101.69 70.2833 102.41V109.37C70.2833 109.97 70.3233 110.41 70.4033 110.69C70.5033 110.97 70.6833 111.17 70.9433 111.29C71.2033 111.39 71.6033 111.44 72.1433 111.44C72.2033 111.44 72.2333 111.5 72.2333 111.62C72.2333 111.74 72.2033 111.8 72.1433 111.8C71.6833 111.8 71.3233 111.79 71.0633 111.77L69.4433 111.74L67.7933 111.77C67.5333 111.79 67.1733 111.8 66.7133 111.8ZM88.6041 120.05C88.5441 120.05 88.5141 119.99 88.5141 119.87C88.5141 119.75 88.5441 119.69 88.6041 119.69C89.1441 119.69 89.5441 119.63 89.8041 119.51C90.0641 119.41 90.2441 119.22 90.3441 118.94C90.4441 118.66 90.4941 118.22 90.4941 117.62V103.52C90.4941 102.8 90.4141 102.29 90.2541 101.99C90.0941 101.67 89.8141 101.51 89.4141 101.51C88.9741 101.51 88.4441 101.65 87.8241 101.93L87.7641 101.96C87.6841 101.96 87.6341 101.91 87.6141 101.81C87.5741 101.71 87.5841 101.64 87.6441 101.6L90.9741 100.01C91.0141 99.9898 91.0841 99.9798 91.1841 99.9798C91.4641 99.9798 91.6941 100.22 91.8741 100.7C92.0741 101.16 92.1741 101.81 92.1741 102.65V117.62C92.1741 118.22 92.2441 118.66 92.3841 118.94C92.5441 119.22 92.8241 119.41 93.2241 119.51C93.6441 119.63 94.2941 119.69 95.1741 119.69C95.2141 119.69 95.2341 119.75 95.2341 119.87C95.2341 119.99 95.2141 120.05 95.1741 120.05C94.4941 120.05 93.9541 120.04 93.5541 120.02L91.3641 119.99L89.7141 120.02C89.4341 120.04 89.0641 120.05 88.6041 120.05ZM95.3541 112.19C94.5741 112.19 93.8941 112.09 93.3141 111.89C92.7341 111.71 92.0941 111.38 91.3941 110.9L91.8141 109.25C92.4341 110.01 93.0741 110.59 93.7341 110.99C94.4141 111.37 95.2541 111.56 96.2541 111.56C97.3141 111.56 98.1841 111.1 98.8641 110.18C99.5441 109.24 99.8841 107.94 99.8841 106.28C99.8841 104.6 99.5141 103.3 98.7741 102.38C98.0341 101.44 97.0941 100.97 95.9541 100.97C95.1541 100.97 94.4241 101.18 93.7641 101.6C93.1241 102.02 92.4241 102.64 91.6641 103.46L91.4241 103.22C92.4441 102.06 93.4241 101.21 94.3641 100.67C95.3041 100.11 96.2541 99.8298 97.2141 99.8298C98.0341 99.8298 98.7941 100.05 99.4941 100.49C100.194 100.93 100.754 101.57 101.174 102.41C101.594 103.25 101.804 104.23 101.804 105.35C101.804 106.85 101.464 108.12 100.784 109.16C100.104 110.18 99.2641 110.94 98.2641 111.44C97.2841 111.94 96.3141 112.19 95.3541 112.19ZM106.536 103.34C107.596 102.02 108.416 101.13 108.996 100.67C109.576 100.19 110.116 99.9498 110.616 99.9498C111.056 99.9498 111.476 100.07 111.876 100.31C112.276 100.55 112.476 100.84 112.476 101.18C112.476 101.44 112.386 101.66 112.206 101.84C112.026 102.02 111.786 102.11 111.486 102.11C111.306 102.11 111.146 102.08 111.006 102.02C110.886 101.94 110.736 101.83 110.556 101.69C110.376 101.53 110.206 101.41 110.046 101.33C109.886 101.25 109.696 101.21 109.476 101.21C109.176 101.21 108.846 101.36 108.486 101.66C108.126 101.96 107.516 102.63 106.656 103.67L106.536 103.34ZM103.716 111.8C103.656 111.8 103.626 111.74 103.626 111.62C103.626 111.5 103.656 111.44 103.716 111.44C104.256 111.44 104.656 111.39 104.916 111.29C105.176 111.17 105.346 110.97 105.426 110.69C105.526 110.41 105.576 109.97 105.576 109.37V103.43C105.576 102.75 105.496 102.26 105.336 101.96C105.176 101.66 104.906 101.51 104.526 101.51C104.206 101.51 103.666 101.66 102.906 101.96H102.846C102.766 101.96 102.706 101.92 102.666 101.84C102.646 101.74 102.676 101.67 102.756 101.63L106.236 99.9798C106.276 99.9598 106.336 99.9498 106.416 99.9498C106.596 99.9498 106.786 100.18 106.986 100.64C107.186 101.1 107.286 101.69 107.286 102.41V109.37C107.286 109.97 107.356 110.41 107.496 110.69C107.656 110.97 107.936 111.17 108.336 111.29C108.736 111.39 109.356 111.44 110.196 111.44C110.276 111.44 110.316 111.5 110.316 111.62C110.316 111.74 110.276 111.8 110.196 111.8C109.556 111.8 109.046 111.79 108.666 111.77L106.446 111.74L104.796 111.77C104.536 111.79 104.176 111.8 103.716 111.8ZM119.273 112.19C118.113 112.19 117.083 111.91 116.183 111.35C115.303 110.77 114.623 110 114.143 109.04C113.663 108.06 113.423 107 113.423 105.86C113.423 104.56 113.733 103.46 114.353 102.56C114.993 101.64 115.803 100.96 116.783 100.52C117.783 100.06 118.793 99.8298 119.813 99.8298C120.993 99.8298 122.023 100.12 122.903 100.7C123.783 101.28 124.453 102.05 124.913 103.01C125.393 103.95 125.633 104.95 125.633 106.01C125.633 107.25 125.343 108.34 124.763 109.28C124.183 110.2 123.403 110.92 122.423 111.44C121.463 111.94 120.413 112.19 119.273 112.19ZM120.143 111.62C121.243 111.62 122.093 111.23 122.693 110.45C123.293 109.67 123.593 108.47 123.593 106.85C123.593 105.61 123.383 104.5 122.963 103.52C122.563 102.54 122.003 101.78 121.283 101.24C120.563 100.68 119.743 100.4 118.823 100.4C117.743 100.4 116.903 100.79 116.303 101.57C115.723 102.35 115.433 103.47 115.433 104.93C115.433 106.15 115.633 107.27 116.033 108.29C116.433 109.31 116.993 110.12 117.713 110.72C118.433 111.32 119.243 111.62 120.143 111.62ZM142.898 111.8C142.838 111.8 142.808 111.74 142.808 111.62C142.808 111.5 142.838 111.44 142.898 111.44C143.438 111.44 143.838 111.39 144.098 111.29C144.358 111.17 144.538 110.97 144.638 110.69C144.738 110.39 144.788 109.95 144.788 109.37V104.6C144.788 103.42 144.578 102.54 144.158 101.96C143.738 101.38 143.088 101.09 142.208 101.09C141.508 101.09 140.788 101.33 140.048 101.81C139.328 102.27 138.708 102.9 138.188 103.7L138.068 103.34C138.908 102.16 139.738 101.3 140.558 100.76C141.398 100.2 142.278 99.9198 143.198 99.9198C144.258 99.9198 145.068 100.22 145.628 100.82C146.188 101.42 146.468 102.33 146.468 103.55V109.37C146.468 109.97 146.518 110.41 146.618 110.69C146.718 110.97 146.898 111.17 147.158 111.29C147.418 111.39 147.818 111.44 148.358 111.44C148.418 111.44 148.448 111.5 148.448 111.62C148.448 111.74 148.418 111.8 148.358 111.8C147.898 111.8 147.528 111.79 147.248 111.77L145.628 111.74L144.008 111.77C143.728 111.79 143.358 111.8 142.898 111.8ZM135.158 111.8C135.098 111.8 135.068 111.74 135.068 111.62C135.068 111.5 135.098 111.44 135.158 111.44C135.698 111.44 136.098 111.39 136.358 111.29C136.618 111.17 136.788 110.97 136.868 110.69C136.968 110.41 137.018 109.97 137.018 109.37V104.6C137.018 103.42 136.808 102.54 136.388 101.96C135.968 101.38 135.328 101.09 134.468 101.09C133.748 101.09 133.028 101.33 132.308 101.81C131.588 102.27 130.968 102.9 130.448 103.7L130.328 103.34C131.168 102.16 131.998 101.3 132.818 100.76C133.658 100.2 134.528 99.9198 135.428 99.9198C136.488 99.9198 137.298 100.22 137.858 100.82C138.438 101.42 138.728 102.31 138.728 103.49V109.37C138.728 109.97 138.778 110.41 138.878 110.69C138.978 110.97 139.158 111.17 139.418 111.29C139.678 111.39 140.078 111.44 140.618 111.44C140.678 111.44 140.708 111.5 140.708 111.62C140.708 111.74 140.678 111.8 140.618 111.8C140.158 111.8 139.788 111.79 139.508 111.77L137.888 111.74L136.238 111.77C135.978 111.79 135.618 111.8 135.158 111.8ZM127.448 111.8C127.388 111.8 127.358 111.74 127.358 111.62C127.358 111.5 127.388 111.44 127.448 111.44C127.988 111.44 128.388 111.39 128.648 111.29C128.908 111.17 129.078 110.97 129.158 110.69C129.258 110.41 129.308 109.97 129.308 109.37V103.43C129.308 102.75 129.228 102.26 129.068 101.96C128.908 101.66 128.638 101.51 128.258 101.51C127.938 101.51 127.398 101.66 126.638 101.96H126.578C126.498 101.96 126.438 101.92 126.398 101.84C126.378 101.74 126.408 101.67 126.488 101.63L129.968 99.9798C130.008 99.9598 130.068 99.9498 130.148 99.9498C130.328 99.9498 130.518 100.18 130.718 100.64C130.918 101.1 131.018 101.69 131.018 102.41V109.37C131.018 109.97 131.058 110.41 131.138 110.69C131.238 110.97 131.418 111.17 131.678 111.29C131.938 111.39 132.338 111.44 132.878 111.44C132.938 111.44 132.968 111.5 132.968 111.62C132.968 111.74 132.938 111.8 132.878 111.8C132.418 111.8 132.058 111.79 131.798 111.77L130.178 111.74L128.528 111.77C128.268 111.79 127.908 111.8 127.448 111.8ZM149.969 111.8C149.929 111.8 149.909 111.74 149.909 111.62C149.909 111.5 149.929 111.44 149.969 111.44C150.509 111.44 150.909 111.39 151.169 111.29C151.449 111.17 151.639 110.97 151.739 110.69C151.839 110.41 151.889 109.97 151.889 109.37V103.76C151.889 103.04 151.809 102.52 151.649 102.2C151.509 101.88 151.259 101.72 150.899 101.72C150.539 101.72 150.089 101.86 149.549 102.14H149.519C149.439 102.14 149.379 102.09 149.339 101.99C149.299 101.89 149.309 101.82 149.369 101.78L153.269 99.9798L153.389 99.9498C153.429 99.9498 153.479 99.9798 153.539 100.04C153.599 100.08 153.629 100.13 153.629 100.19C153.629 100.33 153.619 100.73 153.599 101.39C153.579 102.05 153.569 102.83 153.569 103.73V109.37C153.569 109.97 153.619 110.41 153.719 110.69C153.819 110.97 153.999 111.17 154.259 111.29C154.519 111.39 154.919 111.44 155.459 111.44C155.519 111.44 155.549 111.5 155.549 111.62C155.549 111.74 155.519 111.8 155.459 111.8C154.999 111.8 154.629 111.79 154.349 111.77L152.729 111.74L151.109 111.77C150.829 111.79 150.449 111.8 149.969 111.8ZM152.489 96.4398C152.089 96.4398 151.769 96.3298 151.529 96.1098C151.289 95.8898 151.169 95.5798 151.169 95.1798C151.169 94.7798 151.289 94.4698 151.529 94.2498C151.769 94.0298 152.089 93.9198 152.489 93.9198C152.889 93.9198 153.199 94.0298 153.419 94.2498C153.639 94.4698 153.749 94.7798 153.749 95.1798C153.749 95.5798 153.639 95.8898 153.419 96.1098C153.199 96.3298 152.889 96.4398 152.489 96.4398ZM158.982 102.05C158.982 102.75 159.212 103.31 159.672 103.73C160.132 104.13 160.812 104.56 161.712 105.02C162.412 105.38 162.952 105.69 163.332 105.95C163.732 106.21 164.072 106.55 164.352 106.97C164.632 107.39 164.772 107.9 164.772 108.5C164.772 109.52 164.392 110.38 163.632 111.08C162.872 111.78 161.842 112.13 160.542 112.13C159.482 112.13 158.522 111.83 157.662 111.23C157.542 111.15 157.482 111.03 157.482 110.87L157.422 108.53C157.422 108.47 157.472 108.44 157.572 108.44C157.692 108.42 157.762 108.44 157.782 108.5C158.162 109.52 158.652 110.29 159.252 110.81C159.872 111.31 160.582 111.56 161.382 111.56C162.002 111.56 162.482 111.42 162.822 111.14C163.182 110.84 163.362 110.4 163.362 109.82C163.362 109.26 163.232 108.79 162.972 108.41C162.732 108.01 162.432 107.7 162.072 107.48C161.712 107.24 161.222 106.96 160.602 106.64C159.942 106.32 159.412 106.03 159.012 105.77C158.632 105.51 158.302 105.17 158.022 104.75C157.762 104.33 157.632 103.81 157.632 103.19C157.632 102.11 158.032 101.29 158.832 100.73C159.652 100.15 160.612 99.8598 161.712 99.8598C162.512 99.8598 163.242 100.01 163.902 100.31C164.022 100.35 164.092 100.4 164.112 100.46C164.152 100.5 164.172 100.56 164.172 100.64C164.172 101.04 164.162 101.35 164.142 101.57L164.112 102.83C164.112 102.87 164.052 102.89 163.932 102.89C163.812 102.89 163.752 102.87 163.752 102.83C163.752 102.19 163.412 101.63 162.732 101.15C162.072 100.67 161.372 100.43 160.632 100.43C160.112 100.43 159.702 100.57 159.402 100.85C159.122 101.11 158.982 101.51 158.982 102.05ZM172.449 112.19C171.289 112.19 170.259 111.91 169.359 111.35C168.479 110.77 167.799 110 167.319 109.04C166.839 108.06 166.599 107 166.599 105.86C166.599 104.56 166.909 103.46 167.529 102.56C168.169 101.64 168.979 100.96 169.959 100.52C170.959 100.06 171.969 99.8298 172.989 99.8298C174.169 99.8298 175.199 100.12 176.079 100.7C176.959 101.28 177.629 102.05 178.089 103.01C178.569 103.95 178.809 104.95 178.809 106.01C178.809 107.25 178.519 108.34 177.939 109.28C177.359 110.2 176.579 110.92 175.599 111.44C174.639 111.94 173.589 112.19 172.449 112.19ZM173.319 111.62C174.419 111.62 175.269 111.23 175.869 110.45C176.469 109.67 176.769 108.47 176.769 106.85C176.769 105.61 176.559 104.5 176.139 103.52C175.739 102.54 175.179 101.78 174.459 101.24C173.739 100.68 172.919 100.4 171.999 100.4C170.919 100.4 170.079 100.79 169.479 101.57C168.899 102.35 168.609 103.47 168.609 104.93C168.609 106.15 168.809 107.27 169.209 108.29C169.609 109.31 170.169 110.12 170.889 110.72C171.609 111.32 172.419 111.62 173.319 111.62ZM192.635 112.16C191.335 112.16 190.245 111.88 189.365 111.32C188.485 110.74 187.835 110 187.415 109.1C186.995 108.2 186.785 107.25 186.785 106.25C186.785 104.97 187.105 103.86 187.745 102.92C188.385 101.96 189.205 101.23 190.205 100.73C191.225 100.21 192.265 99.9498 193.325 99.9498C194.205 99.9498 195.005 100.13 195.725 100.49C196.465 100.83 196.835 101.26 196.835 101.78C196.835 102.04 196.735 102.27 196.535 102.47C196.355 102.65 196.105 102.74 195.785 102.74C195.245 102.74 194.805 102.41 194.465 101.75C194.205 101.35 193.925 101.05 193.625 100.85C193.325 100.65 192.895 100.55 192.335 100.55C191.215 100.55 190.335 100.99 189.695 101.87C189.075 102.73 188.765 103.89 188.765 105.35C188.765 107.03 189.185 108.41 190.025 109.49C190.865 110.57 192.125 111.11 193.805 111.11C195.025 111.11 196.045 110.78 196.865 110.12H196.895C196.955 110.12 197.005 110.15 197.045 110.21C197.105 110.27 197.115 110.32 197.075 110.36C196.375 110.98 195.665 111.44 194.945 111.74C194.245 112.02 193.475 112.16 192.635 112.16ZM204.194 112.19C203.034 112.19 202.004 111.91 201.104 111.35C200.224 110.77 199.544 110 199.064 109.04C198.584 108.06 198.344 107 198.344 105.86C198.344 104.56 198.654 103.46 199.274 102.56C199.914 101.64 200.724 100.96 201.704 100.52C202.704 100.06 203.714 99.8298 204.734 99.8298C205.914 99.8298 206.944 100.12 207.824 100.7C208.704 101.28 209.374 102.05 209.834 103.01C210.314 103.95 210.554 104.95 210.554 106.01C210.554 107.25 210.264 108.34 209.684 109.28C209.104 110.2 208.324 110.92 207.344 111.44C206.384 111.94 205.334 112.19 204.194 112.19ZM205.064 111.62C206.164 111.62 207.014 111.23 207.614 110.45C208.214 109.67 208.514 108.47 208.514 106.85C208.514 105.61 208.304 104.5 207.884 103.52C207.484 102.54 206.924 101.78 206.204 101.24C205.484 100.68 204.664 100.4 203.744 100.4C202.664 100.4 201.824 100.79 201.224 101.57C200.644 102.35 200.354 103.47 200.354 104.93C200.354 106.15 200.554 107.27 200.954 108.29C201.354 109.31 201.914 110.12 202.634 110.72C203.354 111.32 204.164 111.62 205.064 111.62ZM220.439 111.8C220.379 111.8 220.349 111.74 220.349 111.62C220.349 111.5 220.379 111.44 220.439 111.44C220.979 111.44 221.379 111.39 221.639 111.29C221.899 111.17 222.069 110.97 222.149 110.69C222.249 110.41 222.299 109.97 222.299 109.37V104.51C222.299 103.31 222.069 102.44 221.609 101.9C221.169 101.34 220.479 101.06 219.539 101.06C218.799 101.06 218.049 101.29 217.289 101.75C216.549 102.21 215.909 102.84 215.369 103.64L215.249 103.28C216.129 102.1 216.999 101.23 217.859 100.67C218.719 100.11 219.609 99.8298 220.529 99.8298C221.629 99.8298 222.479 100.15 223.079 100.79C223.699 101.41 224.009 102.31 224.009 103.49V109.37C224.009 109.97 224.049 110.41 224.129 110.69C224.229 110.97 224.409 111.17 224.669 111.29C224.929 111.39 225.329 111.44 225.869 111.44C225.929 111.44 225.959 111.5 225.959 111.62C225.959 111.74 225.929 111.8 225.869 111.8C225.409 111.8 225.049 111.79 224.789 111.77L223.169 111.74L221.519 111.77C221.259 111.79 220.899 111.8 220.439 111.8ZM212.369 111.8C212.309 111.8 212.279 111.74 212.279 111.62C212.279 111.5 212.309 111.44 212.369 111.44C212.909 111.44 213.309 111.39 213.569 111.29C213.829 111.17 213.999 110.97 214.079 110.69C214.179 110.41 214.229 109.97 214.229 109.37V103.43C214.229 102.75 214.149 102.26 213.989 101.96C213.829 101.66 213.559 101.51 213.179 101.51C212.859 101.51 212.319 101.66 211.559 101.96H211.499C211.419 101.96 211.359 101.92 211.319 101.84C211.299 101.74 211.329 101.67 211.409 101.63L214.889 99.9798C214.929 99.9598 214.989 99.9498 215.069 99.9498C215.249 99.9498 215.439 100.18 215.639 100.64C215.839 101.1 215.939 101.69 215.939 102.41V109.37C215.939 109.97 215.979 110.41 216.059 110.69C216.159 110.97 216.339 111.17 216.599 111.29C216.859 111.39 217.259 111.44 217.799 111.44C217.859 111.44 217.889 111.5 217.889 111.62C217.889 111.74 217.859 111.8 217.799 111.8C217.339 111.8 216.979 111.79 216.719 111.77L215.099 111.74L213.449 111.77C213.189 111.79 212.829 111.8 212.369 111.8ZM238.918 112.16C237.758 112.16 236.768 111.89 235.948 111.35C235.128 110.81 234.498 110.1 234.058 109.22C233.638 108.34 233.428 107.4 233.428 106.4C233.428 105.22 233.708 104.14 234.268 103.16C234.828 102.16 235.588 101.38 236.548 100.82C237.528 100.24 238.598 99.9498 239.758 99.9498C240.878 99.9498 241.738 100.25 242.338 100.85C242.938 101.45 243.238 102.29 243.238 103.37C243.238 103.65 243.208 103.85 243.148 103.97C243.108 104.09 243.018 104.15 242.878 104.15H241.198L241.228 103.61C241.228 102.61 241.008 101.85 240.568 101.33C240.128 100.81 239.528 100.55 238.768 100.55C237.708 100.55 236.878 100.97 236.278 101.81C235.698 102.65 235.408 103.8 235.408 105.26C235.408 107 235.818 108.41 236.638 109.49C237.458 110.57 238.608 111.11 240.088 111.11C240.688 111.11 241.198 111.03 241.618 110.87C242.058 110.71 242.548 110.46 243.088 110.12H243.118C243.178 110.12 243.228 110.16 243.268 110.24C243.328 110.3 243.338 110.36 243.298 110.42C241.938 111.58 240.478 112.16 238.918 112.16ZM234.838 103.79L241.648 103.67V104.15L234.868 104.18L234.838 103.79ZM245.195 111.8C245.135 111.8 245.105 111.74 245.105 111.62C245.105 111.5 245.135 111.44 245.195 111.44C245.735 111.44 246.135 111.39 246.395 111.29C246.655 111.17 246.835 110.97 246.935 110.69C247.035 110.39 247.085 109.95 247.085 109.37V93.8598C247.085 93.1398 247.015 92.6198 246.875 92.2998C246.735 91.9798 246.485 91.8198 246.125 91.8198C245.825 91.8198 245.365 91.9598 244.745 92.2398H244.685C244.625 92.2398 244.575 92.1898 244.535 92.0898C244.515 91.9898 244.535 91.9298 244.595 91.9098L248.435 90.0798C248.475 90.0598 248.525 90.0498 248.585 90.0498C248.645 90.0498 248.705 90.0798 248.765 90.1398C248.825 90.1798 248.855 90.2298 248.855 90.2898V109.37C248.855 109.95 248.895 110.38 248.975 110.66C249.075 110.94 249.255 111.14 249.515 111.26C249.775 111.38 250.175 111.44 250.715 111.44C250.775 111.44 250.805 111.5 250.805 111.62C250.805 111.74 250.775 111.8 250.715 111.8C250.275 111.8 249.915 111.79 249.635 111.77L247.955 111.74L246.335 111.77C246.055 111.79 245.675 111.8 245.195 111.8ZM264.49 112.16C263.19 112.16 262.1 111.88 261.22 111.32C260.34 110.74 259.69 110 259.27 109.1C258.85 108.2 258.64 107.25 258.64 106.25C258.64 104.97 258.96 103.86 259.6 102.92C260.24 101.96 261.06 101.23 262.06 100.73C263.08 100.21 264.12 99.9498 265.18 99.9498C266.06 99.9498 266.86 100.13 267.58 100.49C268.32 100.83 268.69 101.26 268.69 101.78C268.69 102.04 268.59 102.27 268.39 102.47C268.21 102.65 267.96 102.74 267.64 102.74C267.1 102.74 266.66 102.41 266.32 101.75C266.06 101.35 265.78 101.05 265.48 100.85C265.18 100.65 264.75 100.55 264.19 100.55C263.07 100.55 262.19 100.99 261.55 101.87C260.93 102.73 260.62 103.89 260.62 105.35C260.62 107.03 261.04 108.41 261.88 109.49C262.72 110.57 263.98 111.11 265.66 111.11C266.88 111.11 267.9 110.78 268.72 110.12H268.75C268.81 110.12 268.86 110.15 268.9 110.21C268.96 110.27 268.97 110.32 268.93 110.36C268.23 110.98 267.52 111.44 266.8 111.74C266.1 112.02 265.33 112.16 264.49 112.16ZM270.494 111.8C270.434 111.8 270.404 111.74 270.404 111.62C270.404 111.5 270.434 111.44 270.494 111.44C271.034 111.44 271.434 111.39 271.694 111.29C271.954 111.17 272.134 110.97 272.234 110.69C272.334 110.39 272.384 109.95 272.384 109.37V93.8598C272.384 93.1398 272.314 92.6198 272.174 92.2998C272.034 91.9798 271.784 91.8198 271.424 91.8198C271.124 91.8198 270.664 91.9598 270.044 92.2398H269.984C269.924 92.2398 269.874 92.1898 269.834 92.0898C269.814 91.9898 269.834 91.9298 269.894 91.9098L273.734 90.0798C273.774 90.0598 273.824 90.0498 273.884 90.0498C273.944 90.0498 274.004 90.0798 274.064 90.1398C274.124 90.1798 274.154 90.2298 274.154 90.2898V109.37C274.154 109.95 274.194 110.38 274.274 110.66C274.374 110.94 274.554 111.14 274.814 111.26C275.074 111.38 275.474 111.44 276.014 111.44C276.074 111.44 276.104 111.5 276.104 111.62C276.104 111.74 276.074 111.8 276.014 111.8C275.574 111.8 275.214 111.79 274.934 111.77L273.254 111.74L271.634 111.77C271.354 111.79 270.974 111.8 270.494 111.8ZM278.019 111.8C277.979 111.8 277.959 111.74 277.959 111.62C277.959 111.5 277.979 111.44 278.019 111.44C278.559 111.44 278.959 111.39 279.219 111.29C279.499 111.17 279.689 110.97 279.789 110.69C279.889 110.41 279.939 109.97 279.939 109.37V103.76C279.939 103.04 279.859 102.52 279.699 102.2C279.559 101.88 279.309 101.72 278.949 101.72C278.589 101.72 278.139 101.86 277.599 102.14H277.569C277.489 102.14 277.429 102.09 277.389 101.99C277.349 101.89 277.359 101.82 277.419 101.78L281.319 99.9798L281.439 99.9498C281.479 99.9498 281.529 99.9798 281.589 100.04C281.649 100.08 281.679 100.13 281.679 100.19C281.679 100.33 281.669 100.73 281.649 101.39C281.629 102.05 281.619 102.83 281.619 103.73V109.37C281.619 109.97 281.669 110.41 281.769 110.69C281.869 110.97 282.049 111.17 282.309 111.29C282.569 111.39 282.969 111.44 283.509 111.44C283.569 111.44 283.599 111.5 283.599 111.62C283.599 111.74 283.569 111.8 283.509 111.8C283.049 111.8 282.679 111.79 282.399 111.77L280.779 111.74L279.159 111.77C278.879 111.79 278.499 111.8 278.019 111.8ZM280.539 96.4398C280.139 96.4398 279.819 96.3298 279.579 96.1098C279.339 95.8898 279.219 95.5798 279.219 95.1798C279.219 94.7798 279.339 94.4698 279.579 94.2498C279.819 94.0298 280.139 93.9198 280.539 93.9198C280.939 93.9198 281.249 94.0298 281.469 94.2498C281.689 94.4698 281.799 94.7798 281.799 95.1798C281.799 95.5798 281.689 95.8898 281.469 96.1098C281.249 96.3298 280.939 96.4398 280.539 96.4398ZM290.602 112.16C289.442 112.16 288.452 111.89 287.632 111.35C286.812 110.81 286.182 110.1 285.742 109.22C285.322 108.34 285.112 107.4 285.112 106.4C285.112 105.22 285.392 104.14 285.952 103.16C286.512 102.16 287.272 101.38 288.232 100.82C289.212 100.24 290.282 99.9498 291.442 99.9498C292.562 99.9498 293.422 100.25 294.022 100.85C294.622 101.45 294.922 102.29 294.922 103.37C294.922 103.65 294.892 103.85 294.832 103.97C294.792 104.09 294.702 104.15 294.562 104.15H292.882L292.912 103.61C292.912 102.61 292.692 101.85 292.252 101.33C291.812 100.81 291.212 100.55 290.452 100.55C289.392 100.55 288.562 100.97 287.962 101.81C287.382 102.65 287.092 103.8 287.092 105.26C287.092 107 287.502 108.41 288.322 109.49C289.142 110.57 290.292 111.11 291.772 111.11C292.372 111.11 292.882 111.03 293.302 110.87C293.742 110.71 294.232 110.46 294.772 110.12H294.802C294.862 110.12 294.912 110.16 294.952 110.24C295.012 110.3 295.022 110.36 294.982 110.42C293.622 111.58 292.162 112.16 290.602 112.16ZM286.522 103.79L293.332 103.67V104.15L286.552 104.18L286.522 103.79ZM305.098 111.8C305.038 111.8 305.008 111.74 305.008 111.62C305.008 111.5 305.038 111.44 305.098 111.44C305.638 111.44 306.038 111.39 306.298 111.29C306.558 111.17 306.728 110.97 306.808 110.69C306.908 110.41 306.958 109.97 306.958 109.37V104.51C306.958 103.31 306.728 102.44 306.268 101.9C305.828 101.34 305.138 101.06 304.198 101.06C303.458 101.06 302.708 101.29 301.948 101.75C301.208 102.21 300.568 102.84 300.028 103.64L299.908 103.28C300.788 102.1 301.658 101.23 302.518 100.67C303.378 100.11 304.268 99.8298 305.188 99.8298C306.288 99.8298 307.138 100.15 307.738 100.79C308.358 101.41 308.668 102.31 308.668 103.49V109.37C308.668 109.97 308.708 110.41 308.788 110.69C308.888 110.97 309.068 111.17 309.328 111.29C309.588 111.39 309.988 111.44 310.528 111.44C310.588 111.44 310.618 111.5 310.618 111.62C310.618 111.74 310.588 111.8 310.528 111.8C310.068 111.8 309.708 111.79 309.448 111.77L307.828 111.74L306.178 111.77C305.918 111.79 305.558 111.8 305.098 111.8ZM297.028 111.8C296.968 111.8 296.938 111.74 296.938 111.62C296.938 111.5 296.968 111.44 297.028 111.44C297.568 111.44 297.968 111.39 298.228 111.29C298.488 111.17 298.658 110.97 298.738 110.69C298.838 110.41 298.888 109.97 298.888 109.37V103.43C298.888 102.75 298.808 102.26 298.648 101.96C298.488 101.66 298.218 101.51 297.838 101.51C297.518 101.51 296.978 101.66 296.218 101.96H296.158C296.078 101.96 296.018 101.92 295.978 101.84C295.958 101.74 295.988 101.67 296.068 101.63L299.548 99.9798C299.588 99.9598 299.648 99.9498 299.728 99.9498C299.908 99.9498 300.098 100.18 300.298 100.64C300.498 101.1 300.598 101.69 300.598 102.41V109.37C300.598 109.97 300.638 110.41 300.718 110.69C300.818 110.97 300.998 111.17 301.258 111.29C301.518 111.39 301.918 111.44 302.458 111.44C302.518 111.44 302.548 111.5 302.548 111.62C302.548 111.74 302.518 111.8 302.458 111.8C301.998 111.8 301.638 111.79 301.378 111.77L299.758 111.74L298.108 111.77C297.848 111.79 297.488 111.8 297.028 111.8ZM316.216 112.16C315.376 112.16 314.686 111.97 314.146 111.59C313.606 111.21 313.336 110.58 313.336 109.7V102.65C313.336 102.13 313.296 101.76 313.216 101.54C313.156 101.32 313.026 101.18 312.826 101.12C312.626 101.04 312.286 101 311.806 101C311.726 101 311.686 100.94 311.686 100.82C311.686 100.68 311.726 100.61 311.806 100.61C312.606 100.59 313.256 100.38 313.756 99.9798C314.256 99.5598 314.546 99.0098 314.626 98.3298C314.626 98.2698 314.706 98.2398 314.866 98.2398C315.006 98.2398 315.076 98.2698 315.076 98.3298V108.68C315.076 110.3 315.866 111.11 317.446 111.11C318.366 111.11 319.166 110.83 319.846 110.27L319.906 110.24C319.986 110.24 320.046 110.29 320.086 110.39C320.126 110.47 320.116 110.53 320.056 110.57C319.316 111.15 318.646 111.56 318.046 111.8C317.466 112.04 316.856 112.16 316.216 112.16ZM319.126 101.69C317.846 101.37 316.326 101.21 314.566 101.21V100.55C315.826 100.55 317.386 100.45 319.246 100.25C319.286 100.25 319.326 100.33 319.366 100.49C319.426 100.63 319.456 100.79 319.456 100.97C319.456 101.13 319.416 101.3 319.336 101.48C319.276 101.64 319.206 101.71 319.126 101.69ZM326.682 112.16C325.522 112.16 324.532 111.89 323.712 111.35C322.892 110.81 322.262 110.1 321.822 109.22C321.402 108.34 321.192 107.4 321.192 106.4C321.192 105.22 321.472 104.14 322.032 103.16C322.592 102.16 323.352 101.38 324.312 100.82C325.292 100.24 326.362 99.9498 327.522 99.9498C328.642 99.9498 329.502 100.25 330.102 100.85C330.702 101.45 331.002 102.29 331.002 103.37C331.002 103.65 330.972 103.85 330.912 103.97C330.872 104.09 330.782 104.15 330.642 104.15H328.962L328.992 103.61C328.992 102.61 328.772 101.85 328.332 101.33C327.892 100.81 327.292 100.55 326.532 100.55C325.472 100.55 324.642 100.97 324.042 101.81C323.462 102.65 323.172 103.8 323.172 105.26C323.172 107 323.582 108.41 324.402 109.49C325.222 110.57 326.372 111.11 327.852 111.11C328.452 111.11 328.962 111.03 329.382 110.87C329.822 110.71 330.312 110.46 330.852 110.12H330.882C330.942 110.12 330.992 110.16 331.032 110.24C331.092 110.3 331.102 110.36 331.062 110.42C329.702 111.58 328.242 112.16 326.682 112.16ZM322.602 103.79L329.412 103.67V104.15L322.632 104.18L322.602 103.79Z" fill="white"/>
<path d="M302 75.9008C174.986 77.924 62 75.9008 62 75.9008C62 75.9008 174.986 73.874 302 75.9008Z" fill="white"/>
</svg>
