<svg width="76" height="76" viewBox="0 0 76 76" fill="none" xmlns="http://www.w3.org/2000/svg">
<rect width="75.6" height="75.6" rx="37.8" fill="#19335A"/>
<g clip-path="url(#clip0_283_9)">
<path d="M27.5575 18.8025H24.0529C23.5218 18.8025 23.0124 19.0135 22.6368 19.389C22.2613 19.7646 22.0503 20.274 22.0503 20.8051V55.851C22.0503 56.3821 22.2613 56.8915 22.6368 57.267C23.0124 57.6426 23.5218 57.8536 24.0529 57.8536H51.0883C51.6194 57.8536 52.1288 57.6426 52.5044 57.267C52.8799 56.8915 53.0909 56.3821 53.0909 55.851V20.8051C53.0909 20.274 52.8799 19.7646 52.5044 19.389C52.1288 19.0135 51.6194 18.8025 51.0883 18.8025H37.5706" stroke="#E4EAFA" stroke-width="2.1" stroke-linecap="round" stroke-linejoin="round"/>
<path d="M25.5547 18.8027L26.9705 17.3868C27.346 17.0112 27.8553 16.8002 28.3864 16.8H36.5691C36.8347 16.8 37.0894 16.9055 37.2771 17.0933C37.4649 17.2811 37.5704 17.5358 37.5704 17.8014V42.8341L32.5639 37.8276L27.5573 42.8341V18.8027M27.5573 52.3466H47.5835M37.5704 24.3099H47.5835M37.5704 31.3191H47.5835M37.5704 38.3282H47.5835M27.5573 45.3374H47.5835" stroke="#E4EAFA" stroke-width="2.1" stroke-linecap="round" stroke-linejoin="round"/>
</g>
<defs>
<clipPath id="clip0_283_9">
<rect width="44.1" height="44.1" fill="white" transform="translate(15.75 15.75)"/>
</clipPath>
</defs>
</svg>
