<svg width="78" height="76" viewBox="0 0 78 76" fill="none" xmlns="http://www.w3.org/2000/svg">
<rect width="77.4375" height="75.1291" rx="37.5646" fill="#19335A"/>
<path d="M23.6463 15.75L21.3363 18.0567L24.7734 21.4922L27.0802 19.1855L23.6463 15.75ZM53.7928 15.75L50.3557 19.1855L52.6641 21.4922L56.0995 18.0584L53.7928 15.75ZM38.7188 16.7738C38.1773 16.7781 37.6305 16.8131 37.0781 16.8788H37.0289C30.3745 17.6416 25.0786 23.018 24.1582 29.6428C23.4232 34.9748 25.6216 39.8098 29.2852 42.9237C30.7835 44.2028 31.7971 45.9577 32.1562 47.8948V57.7385H35.8969C36.4678 58.718 37.5096 59.3791 38.7188 59.3791C39.9279 59.3791 40.9697 58.718 41.5406 57.7385H45.2812V51.176H45.4355V49.227C45.4355 46.8218 46.6856 44.397 48.7167 42.5119C51.4336 39.7917 53.4844 35.928 53.4844 31.4902C53.4844 23.3855 46.8136 16.6983 38.7188 16.7738ZM38.7188 20.055C45.0598 19.9664 50.2031 25.1573 50.2031 31.4902C50.2031 34.9256 48.6117 37.9509 46.4084 40.1527L46.4609 40.2052C44.2721 42.225 42.8564 44.9449 42.4577 47.8964H35.2816C34.9207 45.0844 33.7148 42.3626 31.436 40.4102C28.537 37.9493 26.8095 34.2415 27.387 30.0546C28.1039 24.8866 32.2973 20.7309 37.4358 20.1616C37.8601 20.1028 38.2873 20.0677 38.7155 20.0566L38.7188 20.055ZM15.75 31.4902V34.7714H20.6719V31.4902H15.75ZM56.7656 31.4902V34.7714H61.6875V31.4902H56.7656ZM24.7734 44.7694L21.338 48.2032L23.6463 50.5116L27.0785 47.0761L24.7734 44.7694ZM52.6641 44.7694L50.3573 47.0761L53.7912 50.5116L56.0995 48.2032L52.6641 44.7694ZM35.4375 51.1777H42V54.4589H35.4375V51.1777Z" fill="#E4EAFA"/>
</svg>
