<svg width="666" height="196" viewBox="0 0 666 196" fill="none" xmlns="http://www.w3.org/2000/svg">
<path d="M59.4612 63.28C59.4612 64.6453 59.6319 65.648 59.9732 66.288C60.3145 66.8853 60.9545 67.312 61.8932 67.568C62.8745 67.824 64.4319 67.952 66.5652 67.952C66.6932 67.952 66.7572 68.08 66.7572 68.336C66.7572 68.592 66.6932 68.72 66.5652 68.72C64.8159 68.72 63.4505 68.6987 62.4692 68.656L56.9012 68.592L52.4852 68.656C51.6745 68.6987 50.5865 68.72 49.2212 68.72C49.0932 68.72 49.0292 68.592 49.0292 68.336C49.0292 68.08 49.0932 67.952 49.2212 67.952C50.7572 67.952 51.8665 67.8453 52.5492 67.632C53.2319 67.4187 53.7012 67.0133 53.9572 66.416C54.2132 65.776 54.3412 64.816 54.3412 63.536V33.904C54.3412 32.624 54.2132 31.6853 53.9572 31.088C53.7012 30.4907 53.2105 30.0853 52.4852 29.872C51.8025 29.616 50.7145 29.488 49.2212 29.488C49.0932 29.488 49.0292 29.36 49.0292 29.104C49.0292 28.848 49.0932 28.72 49.2212 28.72L52.4212 28.784C54.2985 28.8693 55.7705 28.912 56.8372 28.912C57.8612 28.912 59.0772 28.848 60.4852 28.72C60.9972 28.72 61.7865 28.6987 62.8532 28.656C63.9625 28.5707 64.9225 28.528 65.7332 28.528C69.7439 28.528 72.9652 29.424 75.3972 31.216C77.8292 32.9653 79.0452 35.632 79.0452 39.216C79.0452 41.9893 78.3412 44.336 76.9332 46.256C75.5679 48.176 73.7972 49.6053 71.6212 50.544C69.4879 51.4827 67.2692 51.952 64.9652 51.952C63.7279 51.952 62.7039 51.8453 61.8932 51.632C61.7652 51.632 61.7012 51.5253 61.7012 51.312C61.7012 51.184 61.7225 51.056 61.7652 50.928C61.8505 50.8 61.9359 50.7573 62.0212 50.8C62.7039 50.9707 63.4505 51.056 64.2612 51.056C66.8212 51.056 68.9759 50.1387 70.7252 48.304C72.4745 46.4693 73.3492 43.824 73.3492 40.368C73.3492 36.9973 72.4959 34.3733 70.7892 32.496C69.0825 30.576 66.8212 29.616 64.0052 29.616C62.6825 29.616 61.7225 29.7227 61.1252 29.936C60.5279 30.1067 60.1012 30.512 59.8452 31.152C59.5892 31.7493 59.4612 32.7093 59.4612 34.032V63.28ZM89.1582 50.672C91.4622 47.8987 93.2542 46 94.5342 44.976C95.8569 43.952 97.0515 43.44 98.1182 43.44C99.0995 43.44 100.017 43.7387 100.87 44.336C101.724 44.8907 102.15 45.5733 102.15 46.384C102.15 47.024 101.937 47.5787 101.51 48.048C101.084 48.4747 100.508 48.688 99.7822 48.688C99.3129 48.688 98.9289 48.6027 98.6302 48.432C98.3315 48.2187 97.9475 47.92 97.4782 47.536C97.0515 47.152 96.6889 46.8747 96.3902 46.704C96.1342 46.5333 95.7715 46.448 95.3022 46.448C94.7049 46.448 94.0222 46.768 93.2542 47.408C92.5289 48.0053 91.2915 49.328 89.5422 51.376L89.1582 50.672ZM82.7582 68.72C82.6302 68.72 82.5662 68.592 82.5662 68.336C82.5662 68.08 82.6302 67.952 82.7582 67.952C83.8249 67.952 84.6142 67.8453 85.1262 67.632C85.6809 67.376 86.0435 66.9493 86.2142 66.352C86.4275 65.712 86.5342 64.7733 86.5342 63.536V51.056C86.5342 49.648 86.3635 48.6453 86.0222 48.048C85.7235 47.408 85.1902 47.088 84.4222 47.088C83.6969 47.088 82.5662 47.3867 81.0302 47.984H80.9022C80.7742 47.984 80.6675 47.8773 80.5822 47.664C80.5395 47.4507 80.5822 47.3227 80.7102 47.28L88.5822 43.504L88.9662 43.44C89.3929 43.44 89.8195 43.952 90.2462 44.976C90.7155 45.9573 90.9502 47.2587 90.9502 48.88V63.536C90.9502 64.7733 91.0995 65.712 91.3982 66.352C91.7395 66.9493 92.3369 67.376 93.1902 67.632C94.0435 67.8453 95.3235 67.952 97.0302 67.952C97.1582 67.952 97.2222 68.08 97.2222 68.336C97.2222 68.592 97.1582 68.72 97.0302 68.72C95.6222 68.72 94.4915 68.6987 93.6382 68.656L88.7742 68.592L85.1902 68.656C84.5929 68.6987 83.7822 68.72 82.7582 68.72ZM116.513 69.552C113.996 69.552 111.777 68.9547 109.857 67.76C107.937 66.5227 106.444 64.88 105.377 62.832C104.353 60.7413 103.841 58.48 103.841 56.048C103.841 53.2747 104.524 50.928 105.889 49.008C107.255 47.0453 109.004 45.5947 111.137 44.656C113.271 43.6747 115.447 43.184 117.665 43.184C120.183 43.184 122.401 43.8027 124.321 45.04C126.241 46.2773 127.713 47.92 128.737 49.968C129.761 51.9733 130.273 54.1067 130.273 56.368C130.273 58.9707 129.633 61.2747 128.353 63.28C127.116 65.2853 125.452 66.8427 123.361 67.952C121.271 69.0187 118.988 69.552 116.513 69.552ZM118.369 68.336C120.503 68.336 122.145 67.504 123.297 65.84C124.449 64.176 125.025 61.6587 125.025 58.288C125.025 55.5147 124.599 53.0827 123.745 50.992C122.935 48.9013 121.804 47.3013 120.353 46.192C118.903 45.04 117.281 44.464 115.489 44.464C113.399 44.464 111.777 45.2747 110.625 46.896C109.516 48.4747 108.961 50.8213 108.961 53.936C108.961 56.624 109.367 59.0773 110.177 61.296C110.988 63.472 112.097 65.2 113.505 66.48C114.956 67.7173 116.577 68.336 118.369 68.336ZM133.116 86.32C132.988 86.32 132.924 86.192 132.924 85.936C132.924 85.68 132.988 85.552 133.116 85.552C134.226 85.552 135.058 85.424 135.612 85.168C136.167 84.9547 136.53 84.5493 136.7 83.952C136.914 83.3547 137.02 82.416 137.02 81.136V51.184C137.02 49.7333 136.85 48.688 136.508 48.048C136.167 47.3653 135.591 47.024 134.78 47.024C133.97 47.024 132.882 47.344 131.516 47.984H131.452C131.282 47.984 131.154 47.8773 131.068 47.664C130.94 47.4507 130.962 47.3227 131.132 47.28L138.812 43.568C138.983 43.4827 139.132 43.44 139.26 43.44C139.858 43.44 140.348 43.952 140.732 44.976C141.159 46 141.372 47.4293 141.372 49.264V81.136C141.372 82.416 141.522 83.3547 141.82 83.952C142.119 84.5493 142.695 84.9547 143.548 85.168C144.402 85.424 145.724 85.552 147.516 85.552C147.644 85.552 147.708 85.68 147.708 85.936C147.708 86.192 147.644 86.32 147.516 86.32C146.023 86.32 144.85 86.2987 143.996 86.256L139.196 86.192L135.612 86.256C135.015 86.2987 134.183 86.32 133.116 86.32ZM147.708 69.552C146.087 69.552 144.658 69.36 143.42 68.976C142.226 68.6347 140.839 68.016 139.26 67.12L140.604 63.472C141.842 65.008 143.122 66.1813 144.444 66.992C145.767 67.76 147.431 68.144 149.436 68.144C151.655 68.144 153.426 67.184 154.748 65.264C156.114 63.3013 156.796 60.528 156.796 56.944C156.796 53.4453 156.007 50.736 154.428 48.816C152.892 46.896 150.93 45.936 148.54 45.936C146.919 45.936 145.447 46.3627 144.124 47.216C142.802 48.0693 141.394 49.328 139.9 50.992L139.324 50.416C141.458 47.8987 143.527 46.064 145.532 44.912C147.538 43.76 149.586 43.184 151.676 43.184C153.468 43.184 155.111 43.6533 156.604 44.592C158.14 45.5307 159.356 46.896 160.252 48.688C161.148 50.48 161.596 52.5707 161.596 54.96C161.596 58.2453 160.871 60.9973 159.42 63.216C158.012 65.392 156.242 66.992 154.108 68.016C151.975 69.04 149.842 69.552 147.708 69.552ZM165.74 68.72C165.612 68.72 165.548 68.592 165.548 68.336C165.548 68.08 165.612 67.952 165.74 67.952C167.318 67.952 168.342 67.6747 168.812 67.12C169.324 66.5227 169.58 65.328 169.58 63.536V51.696C169.58 50.2027 169.43 49.136 169.132 48.496C168.833 47.8133 168.3 47.472 167.532 47.472C166.849 47.472 165.932 47.7493 164.78 48.304H164.716C164.545 48.304 164.417 48.1973 164.332 47.984C164.246 47.728 164.289 47.5787 164.46 47.536L173.164 43.504L173.42 43.44C173.548 43.44 173.676 43.504 173.804 43.632C173.974 43.76 174.06 43.9093 174.06 44.08C174.06 44.3787 174.038 45.232 173.996 46.64C173.953 48.048 173.932 49.712 173.932 51.632V63.536C173.932 65.328 174.166 66.5227 174.636 67.12C175.148 67.6747 176.193 67.952 177.772 67.952C177.9 67.952 177.964 68.08 177.964 68.336C177.964 68.592 177.9 68.72 177.772 68.72C176.748 68.72 175.916 68.6987 175.276 68.656L171.756 68.592L168.236 68.656C167.596 68.6987 166.764 68.72 165.74 68.72ZM171.372 36.272C170.39 36.272 169.601 36.016 169.004 35.504C168.449 34.9493 168.172 34.1813 168.172 33.2C168.172 32.2613 168.449 31.536 169.004 31.024C169.601 30.512 170.39 30.256 171.372 30.256C172.31 30.256 173.036 30.512 173.548 31.024C174.102 31.536 174.38 32.2613 174.38 33.2C174.38 34.1813 174.124 34.9493 173.612 35.504C173.1 36.016 172.353 36.272 171.372 36.272ZM192.91 69.488C190.392 69.488 188.216 68.9333 186.382 67.824C184.547 66.672 183.16 65.1573 182.222 63.28C181.283 61.36 180.814 59.312 180.814 57.136C180.814 54.6187 181.411 52.3147 182.606 50.224C183.843 48.1333 185.507 46.4907 187.598 45.296C189.688 44.0587 192.014 43.44 194.574 43.44C197.091 43.44 199.011 44.08 200.334 45.36C201.656 46.5973 202.318 48.3893 202.318 50.736C202.318 51.9307 202.062 52.528 201.55 52.528H197.134C197.304 50.0107 196.963 48.0907 196.11 46.768C195.299 45.4027 194.062 44.72 192.398 44.72C190.307 44.72 188.664 45.616 187.47 47.408C186.318 49.1573 185.742 51.568 185.742 54.64C185.742 58.3947 186.595 61.3813 188.302 63.6C190.051 65.8187 192.526 66.928 195.726 66.928C196.963 66.928 198.03 66.7787 198.926 66.48C199.822 66.1387 200.867 65.6267 202.062 64.944H202.126C202.254 64.944 202.36 65.0293 202.446 65.2C202.574 65.328 202.595 65.456 202.51 65.584C200.974 66.9493 199.438 67.952 197.902 68.592C196.366 69.1893 194.702 69.488 192.91 69.488ZM184.206 51.632L198.542 51.376V52.528L184.27 52.592L184.206 51.632ZM215.455 69.552C213.663 69.552 211.999 69.0613 210.463 68.08C208.927 67.056 207.711 65.6053 206.815 63.728C205.919 61.8507 205.471 59.696 205.471 57.264C205.471 54.1493 206.218 51.5467 207.711 49.456C209.205 47.3227 211.061 45.744 213.279 44.72C215.541 43.696 217.802 43.184 220.063 43.184C222.837 43.184 225.461 44.0373 227.935 45.744L226.911 50.352C225.887 48.4747 224.714 47.0453 223.391 46.064C222.111 45.0827 220.511 44.592 218.591 44.592C216.031 44.592 214.005 45.488 212.511 47.28C211.061 49.072 210.335 51.7387 210.335 55.28C210.335 58.864 211.082 61.7227 212.575 63.856C214.069 65.9467 215.967 66.992 218.271 66.992C219.978 66.992 221.514 66.544 222.879 65.648C224.287 64.7093 225.738 63.408 227.231 61.744L227.807 62.256C225.845 64.4747 223.925 66.2453 222.047 67.568C220.17 68.8907 217.973 69.552 215.455 69.552ZM230.175 61.552C230.175 63.0453 230.346 64.1333 230.687 64.816C231.029 65.456 231.583 65.776 232.351 65.776C233.333 65.776 234.378 65.4987 235.487 64.944L235.615 64.88C235.743 64.88 235.85 64.9867 235.935 65.2C236.021 65.4133 235.999 65.5627 235.871 65.648L228.255 69.296C227.999 69.3813 227.85 69.424 227.807 69.424C227.253 69.424 226.783 68.8907 226.399 67.824C226.015 66.7573 225.823 65.328 225.823 63.536V30.64C225.823 29.104 225.674 28.016 225.375 27.376C225.077 26.6933 224.565 26.352 223.839 26.352C223.242 26.352 222.325 26.6293 221.087 27.184H220.959C220.789 27.184 220.661 27.0987 220.575 26.928C220.49 26.7147 220.511 26.5653 220.639 26.48L229.151 22.384C229.237 22.3413 229.343 22.32 229.471 22.32C229.599 22.32 229.749 22.384 229.919 22.512C230.09 22.64 230.175 22.7893 230.175 22.96V61.552ZM254.925 69.104C254.755 69.1893 254.563 69.232 254.349 69.232C253.667 69.232 253.048 68.7413 252.493 67.76C251.939 66.736 251.661 65.3707 251.661 63.664V51.952C251.661 49.392 251.341 47.536 250.701 46.384C250.104 45.1893 249.187 44.592 247.949 44.592C246.499 44.592 245.432 45.0827 244.749 46.064C244.067 47.0453 243.619 48.176 243.405 49.456C243.192 51.4187 242.275 52.4 240.653 52.4C239.843 52.4 239.224 52.208 238.797 51.824C238.413 51.44 238.221 50.9493 238.221 50.352C238.221 49.2427 238.904 48.1547 240.269 47.088C241.635 45.9787 243.277 45.0827 245.197 44.4C247.16 43.7173 248.888 43.376 250.381 43.376C252.173 43.376 253.56 43.952 254.541 45.104C255.523 46.256 256.013 47.8987 256.013 50.032V61.808C256.013 64.5813 256.824 65.968 258.445 65.968C259.256 65.968 260.195 65.7333 261.261 65.264H261.325C261.496 65.264 261.603 65.3707 261.645 65.584C261.731 65.7547 261.688 65.8827 261.517 65.968L254.925 69.104ZM243.149 69.168C241.485 69.168 240.205 68.7627 239.309 67.952C238.413 67.0987 237.965 66.0107 237.965 64.688C237.965 63.2373 238.52 62.0853 239.629 61.232C240.739 60.3787 242.531 59.4827 245.005 58.544L252.301 55.856L252.493 56.688L246.669 59.056C245.56 59.4827 244.685 60.016 244.045 60.656C243.405 61.2533 243.085 62.0213 243.085 62.96C243.085 63.984 243.405 64.8373 244.045 65.52C244.728 66.16 245.581 66.48 246.605 66.48C247.416 66.48 248.333 66.1813 249.357 65.584L253.133 63.216L253.261 64.112L248.589 67.184C247.608 67.9093 246.691 68.4213 245.837 68.72C244.984 69.0187 244.088 69.168 243.149 69.168ZM272.52 69.552C270.728 69.552 269.064 69.0613 267.528 68.08C265.992 67.056 264.776 65.6053 263.88 63.728C262.984 61.8507 262.536 59.696 262.536 57.264C262.536 54.1493 263.283 51.5467 264.776 49.456C266.27 47.3227 268.126 45.744 270.344 44.72C272.606 43.696 274.867 43.184 277.128 43.184C279.902 43.184 282.526 44.0373 285 45.744L283.976 50.352C282.952 48.4747 281.779 47.0453 280.456 46.064C279.176 45.0827 277.576 44.592 275.656 44.592C273.096 44.592 271.07 45.488 269.576 47.28C268.126 49.072 267.4 51.7387 267.4 55.28C267.4 58.864 268.147 61.7227 269.64 63.856C271.134 65.9467 273.032 66.992 275.336 66.992C277.043 66.992 278.579 66.544 279.944 65.648C281.352 64.7093 282.803 63.408 284.296 61.744L284.872 62.256C282.91 64.4747 280.99 66.2453 279.112 67.568C277.235 68.8907 275.038 69.552 272.52 69.552ZM287.24 61.552C287.24 63.0453 287.411 64.1333 287.752 64.816C288.094 65.456 288.648 65.776 289.416 65.776C290.398 65.776 291.443 65.4987 292.552 64.944L292.68 64.88C292.808 64.88 292.915 64.9867 293 65.2C293.086 65.4133 293.064 65.5627 292.936 65.648L285.32 69.296C285.064 69.3813 284.915 69.424 284.872 69.424C284.318 69.424 283.848 68.8907 283.464 67.824C283.08 66.7573 282.888 65.328 282.888 63.536V30.64C282.888 29.104 282.739 28.016 282.44 27.376C282.142 26.6933 281.63 26.352 280.904 26.352C280.307 26.352 279.39 26.6293 278.152 27.184H278.024C277.854 27.184 277.726 27.0987 277.64 26.928C277.555 26.7147 277.576 26.5653 277.704 26.48L286.216 22.384C286.302 22.3413 286.408 22.32 286.536 22.32C286.664 22.32 286.814 22.384 286.984 22.512C287.155 22.64 287.24 22.7893 287.24 22.96V61.552ZM318.798 63.536C318.798 64.8587 318.905 65.8187 319.118 66.416C319.374 67.0133 319.844 67.4187 320.526 67.632C321.252 67.8453 322.404 67.952 323.982 67.952C324.068 67.952 324.11 68.08 324.11 68.336C324.11 68.592 324.068 68.72 323.982 68.72C322.617 68.72 321.55 68.6987 320.782 68.656L316.174 68.592L311.694 68.656C310.884 68.6987 309.774 68.72 308.366 68.72C308.281 68.72 308.238 68.592 308.238 68.336C308.238 68.08 308.281 67.952 308.366 67.952C309.902 67.952 311.033 67.8453 311.758 67.632C312.484 67.4187 312.974 67.0133 313.23 66.416C313.529 65.776 313.678 64.816 313.678 63.536V33.904C313.678 32.624 313.529 31.6853 313.23 31.088C312.974 30.4907 312.484 30.0853 311.758 29.872C311.033 29.616 309.902 29.488 308.366 29.488C308.281 29.488 308.238 29.36 308.238 29.104C308.238 28.848 308.281 28.72 308.366 28.72L311.694 28.784C313.572 28.8693 315.065 28.912 316.174 28.912C317.412 28.912 318.969 28.8693 320.846 28.784L323.982 28.72C324.068 28.72 324.11 28.848 324.11 29.104C324.11 29.36 324.068 29.488 323.982 29.488C322.446 29.488 321.316 29.616 320.59 29.872C319.908 30.128 319.438 30.576 319.182 31.216C318.926 31.8133 318.798 32.752 318.798 34.032V63.536ZM345.612 68.72C345.484 68.72 345.42 68.592 345.42 68.336C345.42 68.08 345.484 67.952 345.612 67.952C346.678 67.952 347.468 67.8453 347.98 67.632C348.534 67.376 348.897 66.9493 349.068 66.352C349.281 65.712 349.388 64.7733 349.388 63.536V53.488C349.388 51.0133 348.94 49.2 348.044 48.048C347.148 46.896 345.718 46.32 343.756 46.32C342.262 46.32 340.748 46.768 339.212 47.664C337.718 48.56 336.438 49.7547 335.372 51.248L335.116 50.48C338.7 45.616 342.454 43.184 346.38 43.184C348.726 43.184 350.54 43.888 351.82 45.296C353.142 46.6613 353.804 48.5813 353.804 51.056V63.536C353.804 64.7733 353.889 65.712 354.06 66.352C354.273 66.9493 354.636 67.376 355.148 67.632C355.702 67.8453 356.534 67.952 357.644 67.952C357.772 67.952 357.836 68.08 357.836 68.336C357.836 68.592 357.772 68.72 357.644 68.72C356.62 68.72 355.788 68.6987 355.148 68.656L351.628 68.592L348.108 68.656C347.468 68.6987 346.636 68.72 345.612 68.72ZM328.396 68.72C328.268 68.72 328.204 68.592 328.204 68.336C328.204 68.08 328.268 67.952 328.396 67.952C329.462 67.952 330.252 67.8453 330.764 67.632C331.318 67.376 331.681 66.9493 331.852 66.352C332.065 65.712 332.172 64.7733 332.172 63.536V51.056C332.172 49.648 332.001 48.6453 331.66 48.048C331.361 47.408 330.828 47.088 330.06 47.088C329.334 47.088 328.204 47.3867 326.668 47.984H326.54C326.412 47.984 326.305 47.8773 326.22 47.664C326.177 47.4507 326.22 47.3227 326.348 47.28L334.22 43.504L334.604 43.44C335.03 43.44 335.457 43.952 335.884 44.976C336.353 45.9573 336.588 47.2587 336.588 48.88V63.536C336.588 64.7733 336.673 65.712 336.844 66.352C337.057 66.9493 337.42 67.376 337.932 67.632C338.486 67.8453 339.318 67.952 340.428 67.952C340.556 67.952 340.62 68.08 340.62 68.336C340.62 68.592 340.556 68.72 340.428 68.72C339.404 68.72 338.572 68.6987 337.932 68.656L334.412 68.592L330.828 68.656C330.23 68.6987 329.42 68.72 328.396 68.72ZM369.582 69.488C367.79 69.488 366.275 69.0827 365.038 68.272C363.843 67.4187 363.246 66.0107 363.246 64.048V49.264C363.246 47.7707 363.032 46.8107 362.606 46.384C362.222 45.9573 361.326 45.744 359.918 45.744C359.79 45.744 359.726 45.5733 359.726 45.232C359.726 44.9333 359.79 44.784 359.918 44.784C361.795 44.7413 363.31 44.2933 364.462 43.44C365.614 42.544 366.36 41.328 366.702 39.792C366.744 39.664 366.915 39.6 367.214 39.6C367.512 39.6 367.662 39.664 367.662 39.792V61.872C367.662 65.2427 369.304 66.928 372.59 66.928C374.424 66.928 376.11 66.3307 377.646 65.136C377.688 65.0933 377.752 65.072 377.838 65.072C377.966 65.072 378.072 65.1573 378.158 65.328C378.243 65.4987 378.222 65.6267 378.094 65.712C376.515 67.0347 375.064 67.9947 373.742 68.592C372.419 69.1893 371.032 69.488 369.582 69.488ZM376.174 47.152C373.315 46.512 370.008 46.192 366.254 46.192V44.72C368.942 44.72 372.312 44.5067 376.366 44.08C376.494 44.08 376.6 44.2293 376.686 44.528C376.771 44.8267 376.814 45.168 376.814 45.552C376.814 45.936 376.75 46.32 376.622 46.704C376.494 47.0453 376.344 47.1947 376.174 47.152ZM392.295 69.488C389.777 69.488 387.601 68.9333 385.767 67.824C383.932 66.672 382.545 65.1573 381.607 63.28C380.668 61.36 380.199 59.312 380.199 57.136C380.199 54.6187 380.796 52.3147 381.991 50.224C383.228 48.1333 384.892 46.4907 386.983 45.296C389.073 44.0587 391.399 43.44 393.959 43.44C396.476 43.44 398.396 44.08 399.719 45.36C401.041 46.5973 401.703 48.3893 401.703 50.736C401.703 51.9307 401.447 52.528 400.935 52.528H396.519C396.689 50.0107 396.348 48.0907 395.495 46.768C394.684 45.4027 393.447 44.72 391.783 44.72C389.692 44.72 388.049 45.616 386.855 47.408C385.703 49.1573 385.127 51.568 385.127 54.64C385.127 58.3947 385.98 61.3813 387.687 63.6C389.436 65.8187 391.911 66.928 395.111 66.928C396.348 66.928 397.415 66.7787 398.311 66.48C399.207 66.1387 400.252 65.6267 401.447 64.944H401.511C401.639 64.944 401.745 65.0293 401.831 65.2C401.959 65.328 401.98 65.456 401.895 65.584C400.359 66.9493 398.823 67.952 397.287 68.592C395.751 69.1893 394.087 69.488 392.295 69.488ZM383.591 51.632L397.927 51.376V52.528L383.655 52.592L383.591 51.632ZM405.423 68.72C405.338 68.72 405.295 68.592 405.295 68.336C405.295 68.08 405.338 67.952 405.423 67.952C407.002 67.952 408.026 67.6747 408.495 67.12C409.007 66.5227 409.263 65.328 409.263 63.536L409.327 30.64C409.327 29.104 409.178 28.016 408.879 27.376C408.581 26.6933 408.069 26.352 407.343 26.352C406.618 26.352 405.701 26.6293 404.591 27.184H404.527C404.357 27.184 404.207 27.0773 404.079 26.864C403.994 26.608 404.037 26.4587 404.207 26.416L412.783 22.384L413.039 22.32C413.167 22.32 413.317 22.384 413.487 22.512C413.701 22.64 413.807 22.7893 413.807 22.96V63.536C413.807 65.328 414.042 66.5227 414.511 67.12C415.023 67.6747 416.047 67.952 417.583 67.952C417.754 67.952 417.839 68.08 417.839 68.336C417.839 68.592 417.754 68.72 417.583 68.72C416.602 68.72 415.813 68.6987 415.215 68.656L411.503 68.592L407.919 68.656C407.322 68.6987 406.49 68.72 405.423 68.72ZM432.735 69.488C430.217 69.488 428.041 68.9333 426.207 67.824C424.372 66.672 422.985 65.1573 422.047 63.28C421.108 61.36 420.639 59.312 420.639 57.136C420.639 54.6187 421.236 52.3147 422.431 50.224C423.668 48.1333 425.332 46.4907 427.423 45.296C429.513 44.0587 431.839 43.44 434.399 43.44C436.916 43.44 438.836 44.08 440.159 45.36C441.481 46.5973 442.143 48.3893 442.143 50.736C442.143 51.9307 441.887 52.528 441.375 52.528H436.959C437.129 50.0107 436.788 48.0907 435.935 46.768C435.124 45.4027 433.887 44.72 432.223 44.72C430.132 44.72 428.489 45.616 427.295 47.408C426.143 49.1573 425.567 51.568 425.567 54.64C425.567 58.3947 426.42 61.3813 428.127 63.6C429.876 65.8187 432.351 66.928 435.551 66.928C436.788 66.928 437.855 66.7787 438.751 66.48C439.647 66.1387 440.692 65.6267 441.887 64.944H441.951C442.079 64.944 442.185 65.0293 442.271 65.2C442.399 65.328 442.42 65.456 442.335 65.584C440.799 66.9493 439.263 67.952 437.727 68.592C436.191 69.1893 434.527 69.488 432.735 69.488ZM424.031 51.632L438.367 51.376V52.528L424.095 52.592L424.031 51.632ZM457.904 69.488C455.131 69.488 452.784 68.8907 450.864 67.696C448.987 66.4587 447.579 64.88 446.64 62.96C445.744 61.04 445.296 59.0133 445.296 56.88C445.296 54.1493 446 51.7813 447.408 49.776C448.816 47.728 450.63 46.1707 452.848 45.104C455.067 43.9947 457.328 43.44 459.632 43.44C461.552 43.44 463.302 43.8453 464.88 44.656C466.459 45.424 467.248 46.4053 467.248 47.6C467.248 48.24 467.014 48.7947 466.544 49.264C466.075 49.7333 465.435 49.968 464.624 49.968C463.259 49.968 462.192 49.136 461.424 47.472C460.955 46.4907 460.443 45.7867 459.888 45.36C459.334 44.9333 458.502 44.72 457.392 44.72C455.174 44.72 453.424 45.6587 452.144 47.536C450.864 49.3707 450.224 51.824 450.224 54.896C450.224 58.4373 451.078 61.3387 452.784 63.6C454.534 65.8613 457.179 66.992 460.72 66.992C463.067 66.992 465.2 66.3307 467.12 65.008H467.248C467.376 65.008 467.483 65.072 467.568 65.2C467.696 65.328 467.696 65.4347 467.568 65.52C466.075 66.8853 464.56 67.888 463.024 68.528C461.488 69.168 459.782 69.488 457.904 69.488ZM480.307 69.488C478.515 69.488 477 69.0827 475.763 68.272C474.568 67.4187 473.971 66.0107 473.971 64.048V49.264C473.971 47.7707 473.757 46.8107 473.331 46.384C472.947 45.9573 472.051 45.744 470.643 45.744C470.515 45.744 470.451 45.5733 470.451 45.232C470.451 44.9333 470.515 44.784 470.643 44.784C472.52 44.7413 474.035 44.2933 475.187 43.44C476.339 42.544 477.085 41.328 477.427 39.792C477.469 39.664 477.64 39.6 477.939 39.6C478.237 39.6 478.387 39.664 478.387 39.792V61.872C478.387 65.2427 480.029 66.928 483.315 66.928C485.149 66.928 486.835 66.3307 488.371 65.136C488.413 65.0933 488.477 65.072 488.563 65.072C488.691 65.072 488.797 65.1573 488.883 65.328C488.968 65.4987 488.947 65.6267 488.819 65.712C487.24 67.0347 485.789 67.9947 484.467 68.592C483.144 69.1893 481.757 69.488 480.307 69.488ZM486.899 47.152C484.04 46.512 480.733 46.192 476.979 46.192V44.72C479.667 44.72 483.037 44.5067 487.091 44.08C487.219 44.08 487.325 44.2293 487.411 44.528C487.496 44.8267 487.539 45.168 487.539 45.552C487.539 45.936 487.475 46.32 487.347 46.704C487.219 47.0453 487.069 47.1947 486.899 47.152ZM500.524 69.296C498.348 69.296 496.62 68.6133 495.34 67.248C494.102 65.84 493.484 63.8987 493.484 61.424V51.696C493.484 50.1173 493.334 48.9653 493.036 48.24C492.737 47.5147 492.246 47.152 491.564 47.152C491.094 47.152 490.433 47.344 489.58 47.728H489.452C489.324 47.728 489.217 47.6213 489.132 47.408C489.089 47.1947 489.132 47.0667 489.26 47.024L496.812 43.504L497.068 43.44C497.196 43.44 497.345 43.504 497.516 43.632C497.729 43.76 497.836 43.9093 497.836 44.08V58.992C497.836 61.4667 498.262 63.3013 499.116 64.496C500.012 65.648 501.356 66.224 503.148 66.224C504.641 66.224 506.156 65.7973 507.692 64.944C509.228 64.048 510.529 62.8533 511.596 61.36L511.916 62.064C508.332 66.8853 504.534 69.296 500.524 69.296ZM514.732 61.68C514.732 63.1307 514.881 64.176 515.18 64.816C515.521 65.456 516.076 65.776 516.844 65.776C517.484 65.776 518.529 65.4773 519.98 64.88H520.044C520.214 64.88 520.342 64.9867 520.428 65.2C520.513 65.3707 520.492 65.4987 520.364 65.584L512.428 69.36L512.172 69.424C511.745 69.424 511.34 68.912 510.956 67.888C510.572 66.864 510.38 65.52 510.38 63.856V51.696C510.38 50.1173 510.23 48.9653 509.932 48.24C509.633 47.5147 509.142 47.152 508.46 47.152C507.99 47.152 507.308 47.344 506.412 47.728H506.284C506.156 47.728 506.07 47.6213 506.028 47.408C505.985 47.1947 506.028 47.0667 506.156 47.024L513.708 43.504L513.964 43.44C514.134 43.44 514.305 43.504 514.476 43.632C514.646 43.76 514.732 43.9093 514.732 44.08V61.68ZM539.44 69.104C539.27 69.1893 539.078 69.232 538.864 69.232C538.182 69.232 537.563 68.7413 537.008 67.76C536.454 66.736 536.176 65.3707 536.176 63.664V51.952C536.176 49.392 535.856 47.536 535.216 46.384C534.619 45.1893 533.702 44.592 532.464 44.592C531.014 44.592 529.947 45.0827 529.264 46.064C528.582 47.0453 528.134 48.176 527.92 49.456C527.707 51.4187 526.79 52.4 525.168 52.4C524.358 52.4 523.739 52.208 523.312 51.824C522.928 51.44 522.736 50.9493 522.736 50.352C522.736 49.2427 523.419 48.1547 524.784 47.088C526.15 45.9787 527.792 45.0827 529.712 44.4C531.675 43.7173 533.403 43.376 534.896 43.376C536.688 43.376 538.075 43.952 539.056 45.104C540.038 46.256 540.528 47.8987 540.528 50.032V61.808C540.528 64.5813 541.339 65.968 542.96 65.968C543.771 65.968 544.71 65.7333 545.776 65.264H545.84C546.011 65.264 546.118 65.3707 546.16 65.584C546.246 65.7547 546.203 65.8827 546.032 65.968L539.44 69.104ZM527.664 69.168C526 69.168 524.72 68.7627 523.824 67.952C522.928 67.0987 522.48 66.0107 522.48 64.688C522.48 63.2373 523.035 62.0853 524.144 61.232C525.254 60.3787 527.046 59.4827 529.52 58.544L536.816 55.856L537.008 56.688L531.184 59.056C530.075 59.4827 529.2 60.016 528.56 60.656C527.92 61.2533 527.6 62.0213 527.6 62.96C527.6 63.984 527.92 64.8373 528.56 65.52C529.243 66.16 530.096 66.48 531.12 66.48C531.931 66.48 532.848 66.1813 533.872 65.584L537.648 63.216L537.776 64.112L533.104 67.184C532.123 67.9093 531.206 68.4213 530.352 68.72C529.499 69.0187 528.603 69.168 527.664 69.168ZM547.243 68.72C547.158 68.72 547.115 68.592 547.115 68.336C547.115 68.08 547.158 67.952 547.243 67.952C548.822 67.952 549.846 67.6747 550.315 67.12C550.827 66.5227 551.083 65.328 551.083 63.536L551.147 30.64C551.147 29.104 550.998 28.016 550.699 27.376C550.401 26.6933 549.889 26.352 549.163 26.352C548.438 26.352 547.521 26.6293 546.411 27.184H546.347C546.177 27.184 546.027 27.0773 545.899 26.864C545.814 26.608 545.857 26.4587 546.027 26.416L554.603 22.384L554.859 22.32C554.987 22.32 555.137 22.384 555.307 22.512C555.521 22.64 555.627 22.7893 555.627 22.96V63.536C555.627 65.328 555.862 66.5227 556.331 67.12C556.843 67.6747 557.867 67.952 559.403 67.952C559.574 67.952 559.659 68.08 559.659 68.336C559.659 68.592 559.574 68.72 559.403 68.72C558.422 68.72 557.633 68.6987 557.035 68.656L553.323 68.592L549.739 68.656C549.142 68.6987 548.31 68.72 547.243 68.72ZM597.299 34.864C597.299 32.9867 596.808 31.5147 595.827 30.448C594.845 29.3813 593.565 28.848 591.987 28.848C588.957 28.848 587.443 30.7253 587.443 34.48C587.443 38.7467 589.149 43.184 592.563 47.792C596.019 52.4 600.371 56.688 605.619 60.656C608.349 62.704 610.888 64.3467 613.235 65.584C615.624 66.8213 617.587 67.6107 619.123 67.952C619.293 67.9947 619.357 68.144 619.315 68.4C619.315 68.6133 619.251 68.72 619.123 68.72H611.059C609.053 68.72 605.555 66.672 600.563 62.576C597.32 60.016 594.248 57.1573 591.347 54C588.488 50.8427 586.333 47.8347 584.883 44.976C583.645 42.416 583.027 40.112 583.027 38.064C583.027 36.1013 583.475 34.3093 584.371 32.688C585.309 31.0667 586.611 29.7867 588.275 28.848C589.981 27.8667 591.944 27.376 594.163 27.376C596.381 27.376 598.237 27.888 599.731 28.912C601.267 29.936 602.035 31.536 602.035 33.712C602.035 35.376 601.608 36.8907 600.755 38.256C599.901 39.5787 598.835 40.752 597.555 41.776C596.317 42.7573 594.653 43.9307 592.563 45.296C590.387 46.7467 588.659 48.0053 587.379 49.072C586.141 50.096 585.075 51.312 584.179 52.72C583.325 54.0853 582.899 55.6427 582.899 57.392C582.899 59.1413 583.368 60.7627 584.307 62.256C585.245 63.7493 586.547 64.944 588.211 65.84C589.875 66.736 591.795 67.184 593.971 67.184C596.488 67.184 598.685 66.544 600.563 65.264C602.483 63.9413 603.955 62.1707 604.979 59.952C606.045 57.6907 606.579 55.216 606.579 52.528C606.579 50.6933 606.237 49.3493 605.555 48.496C604.915 47.6 603.677 47.152 601.843 47.152C601.715 47.152 601.629 47.024 601.587 46.768C601.587 46.512 601.672 46.384 601.843 46.384L615.795 46.32C615.923 46.32 615.987 46.448 615.987 46.704C615.987 46.96 615.923 47.088 615.795 47.088C614.387 47.088 613.341 47.2373 612.659 47.536C611.976 47.792 611.485 48.176 611.187 48.688C610.888 49.2 610.568 50.032 610.227 51.184C608.776 56.2187 606.6 60.528 603.699 64.112C600.797 67.696 596.381 69.488 590.451 69.488C587.72 69.488 585.416 69.0613 583.539 68.208C581.704 67.312 580.317 66.16 579.379 64.752C578.483 63.3013 578.035 61.744 578.035 60.08C578.035 58.3733 578.461 56.816 579.315 55.408C580.211 53.9573 581.299 52.6773 582.579 51.568C583.859 50.416 585.544 49.0933 587.635 47.6C589.768 46.0213 591.475 44.6773 592.755 43.568C594.035 42.4587 595.101 41.1787 595.955 39.728C596.851 38.2347 597.299 36.6133 597.299 34.864Z" fill="white"/>
<path d="M87.8835 101.808H105.291L105.739 103.216H87.1155L87.8835 101.808ZM120.203 119.152C120.417 119.152 120.523 119.28 120.523 119.536C120.523 119.792 120.417 119.92 120.203 119.92C119.393 119.92 118.134 119.877 116.427 119.792C114.635 119.707 113.355 119.664 112.587 119.664C111.606 119.664 110.39 119.707 108.939 119.792C107.489 119.877 106.401 119.92 105.675 119.92C105.505 119.92 105.419 119.792 105.419 119.536C105.419 119.28 105.505 119.152 105.675 119.152C107.126 119.152 108.171 119.024 108.811 118.768C109.451 118.469 109.771 117.957 109.771 117.232C109.771 116.507 109.451 115.504 108.811 114.224L95.0515 85.616L97.0995 82.544L84.6195 111.472C84.0221 112.923 83.7235 114.117 83.7235 115.056C83.7235 116.421 84.2568 117.445 85.3235 118.128C86.3901 118.811 87.9261 119.152 89.9315 119.152C90.1448 119.152 90.2515 119.28 90.2515 119.536C90.2515 119.792 90.1448 119.92 89.9315 119.92C89.1635 119.92 88.0541 119.877 86.6035 119.792C84.9821 119.707 83.5741 119.664 82.3795 119.664C81.2701 119.664 79.9475 119.707 78.4115 119.792C77.0461 119.877 75.9368 119.92 75.0835 119.92C74.9128 119.92 74.8275 119.792 74.8275 119.536C74.8275 119.28 74.9128 119.152 75.0835 119.152C76.2781 119.152 77.2808 118.917 78.0915 118.448C78.9448 117.979 79.7555 117.168 80.5235 116.016C81.2915 114.864 82.1661 113.157 83.1475 110.896L96.7795 79.472C96.8221 79.344 96.9715 79.28 97.2275 79.28C97.4835 79.2373 97.6328 79.3013 97.6755 79.472L113.035 111.152C114.529 114.267 115.766 116.379 116.747 117.488C117.771 118.597 118.923 119.152 120.203 119.152ZM125.839 98.864C125.839 100.272 126.308 101.424 127.247 102.32C128.186 103.216 129.572 104.155 131.407 105.136C132.9 105.904 134.074 106.587 134.927 107.184C135.78 107.739 136.506 108.464 137.103 109.36C137.7 110.256 137.999 111.365 137.999 112.688C137.999 114.864 137.167 116.741 135.503 118.32C133.882 119.856 131.642 120.624 128.783 120.624C126.564 120.624 124.474 120.005 122.511 118.768C122.255 118.512 122.127 118.256 122.127 118L121.999 112.624C121.999 112.496 122.106 112.432 122.319 112.432C122.575 112.389 122.724 112.411 122.767 112.496C123.535 114.629 124.602 116.315 125.967 117.552C127.375 118.789 128.932 119.408 130.639 119.408C131.834 119.408 132.751 119.109 133.391 118.512C134.074 117.915 134.415 117.04 134.415 115.888C134.415 114.693 134.159 113.691 133.647 112.88C133.135 112.027 132.495 111.365 131.727 110.896C131.002 110.384 129.999 109.787 128.719 109.104C127.268 108.379 126.138 107.739 125.327 107.184C124.516 106.629 123.812 105.904 123.215 105.008C122.66 104.112 122.383 103.003 122.383 101.68C122.383 99.2906 123.258 97.4986 125.007 96.304C126.756 95.0666 128.847 94.448 131.279 94.448C132.943 94.448 134.564 94.768 136.143 95.408C136.527 95.536 136.719 95.7706 136.719 96.112C136.719 97.0506 136.698 97.776 136.655 98.288L136.591 101.104C136.591 101.232 136.463 101.296 136.207 101.296C135.951 101.296 135.823 101.232 135.823 101.104C135.823 100.251 135.482 99.3973 134.799 98.544C134.116 97.6906 133.242 97.008 132.175 96.496C131.151 95.984 130.106 95.728 129.039 95.728C128.058 95.728 127.268 95.984 126.671 96.496C126.116 96.9653 125.839 97.7546 125.839 98.864ZM151.24 120.496C149.064 120.496 147.336 119.813 146.056 118.448C144.819 117.04 144.2 115.099 144.2 112.624V102.896C144.2 101.317 144.051 100.165 143.752 99.44C143.453 98.7146 142.963 98.352 142.28 98.352C141.811 98.352 141.149 98.544 140.296 98.928H140.168C140.04 98.928 139.933 98.8213 139.848 98.608C139.805 98.3946 139.848 98.2666 139.976 98.224L147.528 94.704L147.784 94.64C147.912 94.64 148.061 94.704 148.232 94.832C148.445 94.96 148.552 95.1093 148.552 95.28V110.192C148.552 112.667 148.979 114.501 149.832 115.696C150.728 116.848 152.072 117.424 153.864 117.424C155.357 117.424 156.872 116.997 158.408 116.144C159.944 115.248 161.245 114.053 162.312 112.56L162.632 113.264C159.048 118.085 155.251 120.496 151.24 120.496ZM165.448 112.88C165.448 114.331 165.597 115.376 165.896 116.016C166.237 116.656 166.792 116.976 167.56 116.976C168.2 116.976 169.245 116.677 170.696 116.08H170.76C170.931 116.08 171.059 116.187 171.144 116.4C171.229 116.571 171.208 116.699 171.08 116.784L163.144 120.56L162.888 120.624C162.461 120.624 162.056 120.112 161.672 119.088C161.288 118.064 161.096 116.72 161.096 115.056V102.896C161.096 101.317 160.947 100.165 160.648 99.44C160.349 98.7146 159.859 98.352 159.176 98.352C158.707 98.352 158.024 98.544 157.128 98.928H157C156.872 98.928 156.787 98.8213 156.744 98.608C156.701 98.3946 156.744 98.2666 156.872 98.224L164.424 94.704L164.68 94.64C164.851 94.64 165.021 94.704 165.192 94.832C165.363 94.96 165.448 95.1093 165.448 95.28V112.88ZM189.9 119.92C189.772 119.92 189.708 119.792 189.708 119.536C189.708 119.28 189.772 119.152 189.9 119.152C190.967 119.152 191.756 119.045 192.268 118.832C192.823 118.576 193.186 118.149 193.356 117.552C193.57 116.912 193.676 115.973 193.676 114.736V104.688C193.676 102.213 193.228 100.4 192.332 99.248C191.436 98.096 190.007 97.52 188.044 97.52C186.551 97.52 185.036 97.968 183.5 98.864C182.007 99.76 180.727 100.955 179.66 102.448L179.404 101.68C182.988 96.816 186.743 94.384 190.668 94.384C193.015 94.384 194.828 95.088 196.108 96.496C197.431 97.8613 198.092 99.7813 198.092 102.256V114.736C198.092 115.973 198.178 116.912 198.348 117.552C198.562 118.149 198.924 118.576 199.436 118.832C199.991 119.045 200.823 119.152 201.932 119.152C202.06 119.152 202.124 119.28 202.124 119.536C202.124 119.792 202.06 119.92 201.932 119.92C200.908 119.92 200.076 119.899 199.436 119.856L195.916 119.792L192.396 119.856C191.756 119.899 190.924 119.92 189.9 119.92ZM172.684 119.92C172.556 119.92 172.492 119.792 172.492 119.536C172.492 119.28 172.556 119.152 172.684 119.152C173.751 119.152 174.54 119.045 175.052 118.832C175.607 118.576 175.97 118.149 176.14 117.552C176.354 116.912 176.46 115.973 176.46 114.736V102.256C176.46 100.848 176.29 99.8453 175.948 99.248C175.65 98.608 175.116 98.288 174.348 98.288C173.623 98.288 172.492 98.5866 170.956 99.184H170.828C170.7 99.184 170.594 99.0773 170.508 98.864C170.466 98.6506 170.508 98.5226 170.636 98.48L178.508 94.704L178.892 94.64C179.319 94.64 179.746 95.152 180.172 96.176C180.642 97.1573 180.876 98.4586 180.876 100.08V114.736C180.876 115.973 180.962 116.912 181.132 117.552C181.346 118.149 181.708 118.576 182.22 118.832C182.775 119.045 183.607 119.152 184.716 119.152C184.844 119.152 184.908 119.28 184.908 119.536C184.908 119.792 184.844 119.92 184.716 119.92C183.692 119.92 182.86 119.899 182.22 119.856L178.7 119.792L175.116 119.856C174.519 119.899 173.708 119.92 172.684 119.92ZM213.87 120.688C212.078 120.688 210.564 120.283 209.326 119.472C208.132 118.619 207.534 117.211 207.534 115.248V100.464C207.534 98.9706 207.321 98.0106 206.894 97.584C206.51 97.1573 205.614 96.944 204.206 96.944C204.078 96.944 204.014 96.7733 204.014 96.432C204.014 96.1333 204.078 95.984 204.206 95.984C206.084 95.9413 207.598 95.4933 208.75 94.64C209.902 93.744 210.649 92.528 210.99 90.992C211.033 90.864 211.204 90.8 211.502 90.8C211.801 90.8 211.95 90.864 211.95 90.992V113.072C211.95 116.443 213.593 118.128 216.878 118.128C218.713 118.128 220.398 117.531 221.934 116.336C221.977 116.293 222.041 116.272 222.126 116.272C222.254 116.272 222.361 116.357 222.446 116.528C222.532 116.699 222.51 116.827 222.382 116.912C220.804 118.235 219.353 119.195 218.03 119.792C216.708 120.389 215.321 120.688 213.87 120.688ZM220.462 98.352C217.604 97.712 214.297 97.392 210.542 97.392V95.92C213.23 95.92 216.601 95.7066 220.654 95.28C220.782 95.28 220.889 95.4293 220.974 95.728C221.06 96.0266 221.102 96.368 221.102 96.752C221.102 97.136 221.038 97.52 220.91 97.904C220.782 98.2453 220.633 98.3946 220.462 98.352ZM237.159 120.752C234.642 120.752 232.423 120.155 230.503 118.96C228.583 117.723 227.09 116.08 226.023 114.032C224.999 111.941 224.487 109.68 224.487 107.248C224.487 104.475 225.17 102.128 226.535 100.208C227.901 98.2453 229.65 96.7946 231.783 95.856C233.917 94.8746 236.093 94.384 238.311 94.384C240.829 94.384 243.047 95.0026 244.967 96.24C246.887 97.4773 248.359 99.12 249.383 101.168C250.407 103.173 250.919 105.307 250.919 107.568C250.919 110.171 250.279 112.475 248.999 114.48C247.762 116.485 246.098 118.043 244.007 119.152C241.917 120.219 239.634 120.752 237.159 120.752ZM239.015 119.536C241.149 119.536 242.791 118.704 243.943 117.04C245.095 115.376 245.671 112.859 245.671 109.488C245.671 106.715 245.245 104.283 244.391 102.192C243.581 100.101 242.45 98.5013 240.999 97.392C239.549 96.24 237.927 95.664 236.135 95.664C234.045 95.664 232.423 96.4746 231.271 98.096C230.162 99.6746 229.607 102.021 229.607 105.136C229.607 107.824 230.013 110.277 230.823 112.496C231.634 114.672 232.743 116.4 234.151 117.68C235.602 118.917 237.223 119.536 239.015 119.536ZM258.626 98.864C258.626 100.272 259.096 101.424 260.034 102.32C260.973 103.216 262.36 104.155 264.194 105.136C265.688 105.904 266.861 106.587 267.714 107.184C268.568 107.739 269.293 108.464 269.89 109.36C270.488 110.256 270.786 111.365 270.786 112.688C270.786 114.864 269.954 116.741 268.29 118.32C266.669 119.856 264.429 120.624 261.57 120.624C259.352 120.624 257.261 120.005 255.298 118.768C255.042 118.512 254.914 118.256 254.914 118L254.786 112.624C254.786 112.496 254.893 112.432 255.106 112.432C255.362 112.389 255.512 112.411 255.554 112.496C256.322 114.629 257.389 116.315 258.754 117.552C260.162 118.789 261.72 119.408 263.426 119.408C264.621 119.408 265.538 119.109 266.178 118.512C266.861 117.915 267.202 117.04 267.202 115.888C267.202 114.693 266.946 113.691 266.434 112.88C265.922 112.027 265.282 111.365 264.514 110.896C263.789 110.384 262.786 109.787 261.506 109.104C260.056 108.379 258.925 107.739 258.114 107.184C257.304 106.629 256.6 105.904 256.002 105.008C255.448 104.112 255.17 103.003 255.17 101.68C255.17 99.2906 256.045 97.4986 257.794 96.304C259.544 95.0666 261.634 94.448 264.066 94.448C265.73 94.448 267.352 94.768 268.93 95.408C269.314 95.536 269.506 95.7706 269.506 96.112C269.506 97.0506 269.485 97.776 269.442 98.288L269.378 101.104C269.378 101.232 269.25 101.296 268.994 101.296C268.738 101.296 268.61 101.232 268.61 101.104C268.61 100.251 268.269 99.3973 267.586 98.544C266.904 97.6906 266.029 97.008 264.962 96.496C263.938 95.984 262.893 95.728 261.826 95.728C260.845 95.728 260.056 95.984 259.458 96.496C258.904 96.9653 258.626 97.7546 258.626 98.864ZM320.915 119.92C319.849 119.92 317.865 118.128 314.963 114.544C312.105 110.96 308.627 105.947 304.531 99.504L308.819 98.16C312.446 103.493 315.497 107.653 317.971 110.64C320.446 113.627 322.622 115.803 324.499 117.168C326.419 118.491 328.275 119.152 330.067 119.152C330.195 119.152 330.259 119.28 330.259 119.536C330.259 119.792 330.195 119.92 330.067 119.92H320.915ZM305.491 79.728C309.033 79.728 311.763 80.4746 313.683 81.968C315.603 83.4613 316.563 85.488 316.563 88.048C316.563 90.352 315.881 92.464 314.515 94.384C313.193 96.2613 311.422 97.7546 309.203 98.864C306.985 99.9306 304.617 100.464 302.099 100.464C301.203 100.464 300.158 100.421 298.963 100.336V114.736C298.963 116.016 299.091 116.976 299.347 117.616C299.603 118.213 300.073 118.619 300.755 118.832C301.481 119.045 302.611 119.152 304.147 119.152C304.275 119.152 304.339 119.28 304.339 119.536C304.339 119.792 304.275 119.92 304.147 119.92C302.825 119.92 301.779 119.899 301.011 119.856L296.403 119.792L291.923 119.856C291.113 119.899 290.025 119.92 288.659 119.92C288.531 119.92 288.467 119.792 288.467 119.536C288.467 119.28 288.531 119.152 288.659 119.152C290.195 119.152 291.326 119.045 292.051 118.832C292.777 118.619 293.267 118.213 293.523 117.616C293.779 116.976 293.907 116.016 293.907 114.736V85.104C293.907 83.824 293.779 82.8853 293.523 82.288C293.267 81.6906 292.777 81.2853 292.051 81.072C291.369 80.816 290.259 80.688 288.723 80.688C288.638 80.688 288.595 80.56 288.595 80.304C288.595 80.048 288.638 79.92 288.723 79.92L291.923 79.984C293.801 80.0693 295.294 80.112 296.403 80.112C297.299 80.112 298.153 80.0906 298.963 80.048C299.774 80.0053 300.478 79.9626 301.075 79.92C302.697 79.792 304.169 79.728 305.491 79.728ZM311.315 90.096C311.315 86.6826 310.654 84.2933 309.331 82.928C308.009 81.52 306.067 80.816 303.507 80.816C301.843 80.816 300.67 81.136 299.987 81.776C299.305 82.3733 298.963 83.5253 298.963 85.232V98.736C300.201 98.864 301.459 98.928 302.739 98.928C305.811 98.928 308.009 98.224 309.331 96.816C310.654 95.3653 311.315 93.1253 311.315 90.096ZM341.401 120.688C338.884 120.688 336.708 120.133 334.873 119.024C333.038 117.872 331.652 116.357 330.713 114.48C329.774 112.56 329.305 110.512 329.305 108.336C329.305 105.819 329.902 103.515 331.097 101.424C332.334 99.3333 333.998 97.6906 336.089 96.496C338.18 95.2586 340.505 94.64 343.065 94.64C345.582 94.64 347.502 95.28 348.825 96.56C350.148 97.7973 350.809 99.5893 350.809 101.936C350.809 103.131 350.553 103.728 350.041 103.728H345.625C345.796 101.211 345.454 99.2906 344.601 97.968C343.79 96.6026 342.553 95.92 340.889 95.92C338.798 95.92 337.156 96.816 335.961 98.608C334.809 100.357 334.233 102.768 334.233 105.84C334.233 109.595 335.086 112.581 336.793 114.8C338.542 117.019 341.017 118.128 344.217 118.128C345.454 118.128 346.521 117.979 347.417 117.68C348.313 117.339 349.358 116.827 350.553 116.144H350.617C350.745 116.144 350.852 116.229 350.937 116.4C351.065 116.528 351.086 116.656 351.001 116.784C349.465 118.149 347.929 119.152 346.393 119.792C344.857 120.389 343.193 120.688 341.401 120.688ZM332.697 102.832L347.033 102.576V103.728L332.761 103.792L332.697 102.832ZM363.618 137.904C360.674 137.904 358.327 137.243 356.578 135.92C354.871 134.597 354.018 132.891 354.018 130.8C354.018 127.131 357.047 123.547 363.106 120.048L363.81 120.816C362.018 121.755 360.652 122.779 359.714 123.888C358.775 124.997 358.306 126.448 358.306 128.24C358.306 130.629 359.052 132.507 360.546 133.872C362.082 135.237 364.13 135.92 366.69 135.92C369.378 135.92 371.554 135.173 373.218 133.68C374.924 132.187 375.778 130.181 375.778 127.664C375.778 125.915 375.372 124.635 374.562 123.824C373.751 123.013 372.663 122.501 371.298 122.288C369.975 122.075 368.119 121.968 365.73 121.968C362.444 121.925 359.948 121.605 358.242 121.008C356.535 120.453 355.682 119.195 355.682 117.232C355.682 115.824 356.151 114.523 357.09 113.328C358.028 112.133 359.458 110.896 361.378 109.616L362.082 110.128C361.1 110.853 360.396 111.557 359.97 112.24C359.543 112.88 359.33 113.627 359.33 114.48C359.33 115.931 359.97 116.891 361.25 117.36C362.572 117.829 364.898 118.064 368.226 118.064C370.572 118.107 372.471 118.235 373.922 118.448C375.415 118.661 376.738 119.237 377.89 120.176C379.042 121.157 379.618 122.672 379.618 124.72C379.618 127.067 378.871 129.243 377.378 131.248C375.884 133.296 373.9 134.917 371.426 136.112C368.994 137.307 366.391 137.904 363.618 137.904ZM365.282 111.408C363.276 111.408 361.527 111.024 360.034 110.256C358.54 109.488 357.388 108.464 356.578 107.184C355.81 105.861 355.426 104.453 355.426 102.96C355.426 100.528 356.428 98.5653 358.434 97.072C360.482 95.536 362.999 94.768 365.986 94.768C368.034 94.768 369.783 95.152 371.234 95.92C372.727 96.688 373.836 97.6906 374.562 98.928C375.33 100.165 375.714 101.488 375.714 102.896C375.714 104.475 375.244 105.904 374.306 107.184C373.41 108.464 372.151 109.488 370.53 110.256C368.951 111.024 367.202 111.408 365.282 111.408ZM366.626 110.384C367.906 110.384 368.951 109.893 369.762 108.912C370.572 107.931 370.978 106.437 370.978 104.432C370.978 101.787 370.316 99.696 368.994 98.16C367.671 96.5813 366.092 95.792 364.258 95.792C362.935 95.792 361.911 96.2613 361.186 97.2C360.46 98.096 360.098 99.4826 360.098 101.36C360.098 103.195 360.418 104.795 361.058 106.16C361.698 107.525 362.508 108.571 363.49 109.296C364.514 110.021 365.559 110.384 366.626 110.384ZM371.426 97.584C372.919 96.6026 374.284 95.8773 375.522 95.408C376.759 94.896 378.103 94.64 379.554 94.64C379.682 94.64 379.767 94.8106 379.81 95.152C379.895 95.4506 379.938 95.792 379.938 96.176C379.938 96.7306 379.874 97.3066 379.746 97.904C379.618 98.4586 379.468 98.6933 379.298 98.608C377.719 97.9253 376.247 97.584 374.882 97.584C373.986 97.584 372.983 97.7546 371.874 98.096L371.362 99.696L371.426 97.584ZM391.283 120.496C389.107 120.496 387.379 119.813 386.099 118.448C384.861 117.04 384.243 115.099 384.243 112.624V102.896C384.243 101.317 384.093 100.165 383.795 99.44C383.496 98.7146 383.005 98.352 382.323 98.352C381.853 98.352 381.192 98.544 380.339 98.928H380.211C380.083 98.928 379.976 98.8213 379.891 98.608C379.848 98.3946 379.891 98.2666 380.019 98.224L387.571 94.704L387.827 94.64C387.955 94.64 388.104 94.704 388.275 94.832C388.488 94.96 388.595 95.1093 388.595 95.28V110.192C388.595 112.667 389.021 114.501 389.875 115.696C390.771 116.848 392.115 117.424 393.907 117.424C395.4 117.424 396.915 116.997 398.451 116.144C399.987 115.248 401.288 114.053 402.355 112.56L402.675 113.264C399.091 118.085 395.293 120.496 391.283 120.496ZM405.491 112.88C405.491 114.331 405.64 115.376 405.939 116.016C406.28 116.656 406.835 116.976 407.603 116.976C408.243 116.976 409.288 116.677 410.739 116.08H410.803C410.973 116.08 411.101 116.187 411.187 116.4C411.272 116.571 411.251 116.699 411.123 116.784L403.187 120.56L402.931 120.624C402.504 120.624 402.099 120.112 401.715 119.088C401.331 118.064 401.139 116.72 401.139 115.056V102.896C401.139 101.317 400.989 100.165 400.691 99.44C400.392 98.7146 399.901 98.352 399.219 98.352C398.749 98.352 398.067 98.544 397.171 98.928H397.043C396.915 98.928 396.829 98.8213 396.787 98.608C396.744 98.3946 396.787 98.2666 396.915 98.224L404.467 94.704L404.723 94.64C404.893 94.64 405.064 94.704 405.235 94.832C405.405 94.96 405.491 95.1093 405.491 95.28V112.88ZM412.407 119.92C412.322 119.92 412.279 119.792 412.279 119.536C412.279 119.28 412.322 119.152 412.407 119.152C413.986 119.152 415.01 118.875 415.479 118.32C415.991 117.723 416.247 116.528 416.247 114.736L416.311 81.84C416.311 80.304 416.162 79.216 415.863 78.576C415.564 77.8933 415.052 77.552 414.327 77.552C413.602 77.552 412.684 77.8293 411.575 78.384H411.511C411.34 78.384 411.191 78.2773 411.063 78.064C410.978 77.808 411.02 77.6586 411.191 77.616L419.767 73.584L420.023 73.52C420.151 73.52 420.3 73.584 420.471 73.712C420.684 73.84 420.791 73.9893 420.791 74.16V114.736C420.791 116.528 421.026 117.723 421.495 118.32C422.007 118.875 423.031 119.152 424.567 119.152C424.738 119.152 424.823 119.28 424.823 119.536C424.823 119.792 424.738 119.92 424.567 119.92C423.586 119.92 422.796 119.899 422.199 119.856L418.487 119.792L414.903 119.856C414.306 119.899 413.474 119.92 412.407 119.92ZM445.607 120.304C445.436 120.389 445.244 120.432 445.031 120.432C444.348 120.432 443.729 119.941 443.175 118.96C442.62 117.936 442.343 116.571 442.343 114.864V103.152C442.343 100.592 442.023 98.736 441.383 97.584C440.785 96.3893 439.868 95.792 438.631 95.792C437.18 95.792 436.113 96.2826 435.431 97.264C434.748 98.2453 434.3 99.376 434.087 100.656C433.873 102.619 432.956 103.6 431.335 103.6C430.524 103.6 429.905 103.408 429.479 103.024C429.095 102.64 428.903 102.149 428.903 101.552C428.903 100.443 429.585 99.3546 430.951 98.288C432.316 97.1786 433.959 96.2826 435.879 95.6C437.841 94.9173 439.569 94.576 441.063 94.576C442.855 94.576 444.241 95.152 445.223 96.304C446.204 97.456 446.695 99.0986 446.695 101.232V113.008C446.695 115.781 447.505 117.168 449.127 117.168C449.937 117.168 450.876 116.933 451.943 116.464H452.007C452.177 116.464 452.284 116.571 452.327 116.784C452.412 116.955 452.369 117.083 452.199 117.168L445.607 120.304ZM433.831 120.368C432.167 120.368 430.887 119.963 429.991 119.152C429.095 118.299 428.647 117.211 428.647 115.888C428.647 114.437 429.201 113.285 430.311 112.432C431.42 111.579 433.212 110.683 435.687 109.744L442.983 107.056L443.175 107.888L437.351 110.256C436.241 110.683 435.367 111.216 434.727 111.856C434.087 112.453 433.767 113.221 433.767 114.16C433.767 115.184 434.087 116.037 434.727 116.72C435.409 117.36 436.263 117.68 437.287 117.68C438.097 117.68 439.015 117.381 440.039 116.784L443.815 114.416L443.943 115.312L439.271 118.384C438.289 119.109 437.372 119.621 436.519 119.92C435.665 120.219 434.769 120.368 433.831 120.368ZM462.946 120.688C461.154 120.688 459.639 120.283 458.402 119.472C457.207 118.619 456.61 117.211 456.61 115.248V100.464C456.61 98.9706 456.396 98.0106 455.97 97.584C455.586 97.1573 454.69 96.944 453.282 96.944C453.154 96.944 453.09 96.7733 453.09 96.432C453.09 96.1333 453.154 95.984 453.282 95.984C455.159 95.9413 456.674 95.4933 457.826 94.64C458.978 93.744 459.724 92.528 460.066 90.992C460.108 90.864 460.279 90.8 460.578 90.8C460.876 90.8 461.026 90.864 461.026 90.992V113.072C461.026 116.443 462.668 118.128 465.954 118.128C467.788 118.128 469.474 117.531 471.01 116.336C471.052 116.293 471.116 116.272 471.202 116.272C471.33 116.272 471.436 116.357 471.522 116.528C471.607 116.699 471.586 116.827 471.458 116.912C469.879 118.235 468.428 119.195 467.106 119.792C465.783 120.389 464.396 120.688 462.946 120.688ZM469.538 98.352C466.679 97.712 463.372 97.392 459.618 97.392V95.92C462.306 95.92 465.676 95.7066 469.73 95.28C469.858 95.28 469.964 95.4293 470.05 95.728C470.135 96.0266 470.178 96.368 470.178 96.752C470.178 97.136 470.114 97.52 469.986 97.904C469.858 98.2453 469.708 98.3946 469.538 98.352ZM486.235 120.752C483.717 120.752 481.499 120.155 479.579 118.96C477.659 117.723 476.165 116.08 475.099 114.032C474.075 111.941 473.563 109.68 473.563 107.248C473.563 104.475 474.245 102.128 475.611 100.208C476.976 98.2453 478.725 96.7946 480.859 95.856C482.992 94.8746 485.168 94.384 487.387 94.384C489.904 94.384 492.123 95.0026 494.043 96.24C495.963 97.4773 497.435 99.12 498.459 101.168C499.483 103.173 499.995 105.307 499.995 107.568C499.995 110.171 499.355 112.475 498.075 114.48C496.837 116.485 495.173 118.043 493.083 119.152C490.992 120.219 488.709 120.752 486.235 120.752ZM488.091 119.536C490.224 119.536 491.867 118.704 493.019 117.04C494.171 115.376 494.747 112.859 494.747 109.488C494.747 106.715 494.32 104.283 493.467 102.192C492.656 100.101 491.525 98.5013 490.075 97.392C488.624 96.24 487.003 95.664 485.211 95.664C483.12 95.664 481.499 96.4746 480.347 98.096C479.237 99.6746 478.683 102.021 478.683 105.136C478.683 107.824 479.088 110.277 479.899 112.496C480.709 114.672 481.819 116.4 483.227 117.68C484.677 118.917 486.299 119.536 488.091 119.536ZM510.07 101.872C512.374 99.0986 514.166 97.2 515.446 96.176C516.768 95.152 517.963 94.64 519.03 94.64C520.011 94.64 520.928 94.9386 521.782 95.536C522.635 96.0906 523.062 96.7733 523.062 97.584C523.062 98.224 522.848 98.7786 522.422 99.248C521.995 99.6746 521.419 99.888 520.694 99.888C520.224 99.888 519.84 99.8026 519.542 99.632C519.243 99.4186 518.859 99.12 518.39 98.736C517.963 98.352 517.6 98.0746 517.302 97.904C517.046 97.7333 516.683 97.648 516.214 97.648C515.616 97.648 514.934 97.968 514.166 98.608C513.44 99.2053 512.203 100.528 510.454 102.576L510.07 101.872ZM503.67 119.92C503.542 119.92 503.478 119.792 503.478 119.536C503.478 119.28 503.542 119.152 503.67 119.152C504.736 119.152 505.526 119.045 506.038 118.832C506.592 118.576 506.955 118.149 507.126 117.552C507.339 116.912 507.446 115.973 507.446 114.736V102.256C507.446 100.848 507.275 99.8453 506.934 99.248C506.635 98.608 506.102 98.288 505.334 98.288C504.608 98.288 503.478 98.5866 501.942 99.184H501.814C501.686 99.184 501.579 99.0773 501.494 98.864C501.451 98.6506 501.494 98.5226 501.622 98.48L509.494 94.704L509.878 94.64C510.304 94.64 510.731 95.152 511.158 96.176C511.627 97.1573 511.862 98.4586 511.862 100.08V114.736C511.862 115.973 512.011 116.912 512.31 117.552C512.651 118.149 513.248 118.576 514.102 118.832C514.955 119.045 516.235 119.152 517.942 119.152C518.07 119.152 518.134 119.28 518.134 119.536C518.134 119.792 518.07 119.92 517.942 119.92C516.534 119.92 515.403 119.899 514.55 119.856L509.686 119.792L506.102 119.856C505.504 119.899 504.694 119.92 503.67 119.92ZM526.399 119.92C526.271 119.92 526.207 119.792 526.207 119.536C526.207 119.28 526.271 119.152 526.399 119.152C527.977 119.152 529.001 118.875 529.471 118.32C529.983 117.723 530.239 116.528 530.239 114.736V102.896C530.239 101.403 530.089 100.336 529.791 99.696C529.492 99.0133 528.959 98.672 528.191 98.672C527.508 98.672 526.591 98.9493 525.439 99.504H525.375C525.204 99.504 525.076 99.3973 524.991 99.184C524.905 98.928 524.948 98.7786 525.119 98.736L533.823 94.704L534.079 94.64C534.207 94.64 534.335 94.704 534.463 94.832C534.633 94.96 534.719 95.1093 534.719 95.28C534.719 95.5786 534.697 96.432 534.655 97.84C534.612 99.248 534.591 100.912 534.591 102.832V114.736C534.591 116.528 534.825 117.723 535.295 118.32C535.807 118.875 536.852 119.152 538.431 119.152C538.559 119.152 538.623 119.28 538.623 119.536C538.623 119.792 538.559 119.92 538.431 119.92C537.407 119.92 536.575 119.899 535.935 119.856L532.415 119.792L528.895 119.856C528.255 119.899 527.423 119.92 526.399 119.92ZM532.031 87.472C531.049 87.472 530.26 87.216 529.663 86.704C529.108 86.1493 528.831 85.3813 528.831 84.4C528.831 83.4613 529.108 82.736 529.663 82.224C530.26 81.712 531.049 81.456 532.031 81.456C532.969 81.456 533.695 81.712 534.207 82.224C534.761 82.736 535.039 83.4613 535.039 84.4C535.039 85.3813 534.783 86.1493 534.271 86.704C533.759 87.216 533.012 87.472 532.031 87.472ZM554.145 120.752C551.627 120.752 549.409 120.155 547.489 118.96C545.569 117.723 544.075 116.08 543.009 114.032C541.985 111.941 541.473 109.68 541.473 107.248C541.473 104.475 542.155 102.128 543.521 100.208C544.886 98.2453 546.635 96.7946 548.769 95.856C550.902 94.8746 553.078 94.384 555.297 94.384C557.814 94.384 560.033 95.0026 561.953 96.24C563.873 97.4773 565.345 99.12 566.369 101.168C567.393 103.173 567.905 105.307 567.905 107.568C567.905 110.171 567.265 112.475 565.985 114.48C564.747 116.485 563.083 118.043 560.993 119.152C558.902 120.219 556.619 120.752 554.145 120.752ZM556.001 119.536C558.134 119.536 559.777 118.704 560.929 117.04C562.081 115.376 562.657 112.859 562.657 109.488C562.657 106.715 562.23 104.283 561.377 102.192C560.566 100.101 559.435 98.5013 557.985 97.392C556.534 96.24 554.913 95.664 553.121 95.664C551.03 95.664 549.409 96.4746 548.257 98.096C547.147 99.6746 546.593 102.021 546.593 105.136C546.593 107.824 546.998 110.277 547.809 112.496C548.619 114.672 549.729 116.4 551.137 117.68C552.587 118.917 554.209 119.536 556.001 119.536ZM575.612 98.864C575.612 100.272 576.081 101.424 577.02 102.32C577.958 103.216 579.345 104.155 581.18 105.136C582.673 105.904 583.846 106.587 584.7 107.184C585.553 107.739 586.278 108.464 586.876 109.36C587.473 110.256 587.772 111.365 587.772 112.688C587.772 114.864 586.94 116.741 585.276 118.32C583.654 119.856 581.414 120.624 578.556 120.624C576.337 120.624 574.246 120.005 572.284 118.768C572.028 118.512 571.9 118.256 571.9 118L571.772 112.624C571.772 112.496 571.878 112.432 572.092 112.432C572.348 112.389 572.497 112.411 572.54 112.496C573.308 114.629 574.374 116.315 575.74 117.552C577.148 118.789 578.705 119.408 580.412 119.408C581.606 119.408 582.524 119.109 583.164 118.512C583.846 117.915 584.188 117.04 584.188 115.888C584.188 114.693 583.932 113.691 583.42 112.88C582.908 112.027 582.268 111.365 581.5 110.896C580.774 110.384 579.772 109.787 578.492 109.104C577.041 108.379 575.91 107.739 575.1 107.184C574.289 106.629 573.585 105.904 572.988 105.008C572.433 104.112 572.156 103.003 572.156 101.68C572.156 99.2906 573.03 97.4986 574.78 96.304C576.529 95.0666 578.62 94.448 581.052 94.448C582.716 94.448 584.337 94.768 585.916 95.408C586.3 95.536 586.492 95.7706 586.492 96.112C586.492 97.0506 586.47 97.776 586.428 98.288L586.364 101.104C586.364 101.232 586.236 101.296 585.98 101.296C585.724 101.296 585.596 101.232 585.596 101.104C585.596 100.251 585.254 99.3973 584.572 98.544C583.889 97.6906 583.014 97.008 581.948 96.496C580.924 95.984 579.878 95.728 578.812 95.728C577.83 95.728 577.041 95.984 576.444 96.496C575.889 96.9653 575.612 97.7546 575.612 98.864Z" fill="white"/>
<path d="M665.6 160.402C313.347 166.877 0 160.402 0 160.402C0 160.402 313.347 153.917 665.6 160.402Z" fill="#E4EAFA"/>
</svg>
