<svg width="1676" height="280" viewBox="0 0 1676 280" fill="none" xmlns="http://www.w3.org/2000/svg">
<path d="M183.59 19.9447L185.248 42.4226C185.835 49.2493 186.165 53.8769 186.165 56.351L182.032 57.0749C175.434 42.108 167.218 30.8522 157.382 23.3077C147.547 15.7631 135.512 12.0336 121.278 12.1191C103.91 12.1191 90.3943 14.2328 80.7299 18.4602C66.6915 24.4989 54.7333 34.9544 44.7359 49.8541C34.7386 64.7539 29.772 82.7417 29.772 103.818C29.772 115.95 31.6047 126.845 35.2701 136.513C38.9508 146.276 44.1662 155.389 50.7197 163.508C57.4353 171.899 65.4032 179.205 74.343 185.171C80.7832 189.486 87.9564 192.592 95.5106 194.334C100.147 195.452 107.047 195.974 116.247 195.974C122.888 195.917 129.498 195.074 135.94 193.463C143.167 191.796 148.604 189.56 152.251 186.756C155.592 184.335 158.181 181.018 159.719 177.189C161.048 173.615 161.726 166.725 161.726 156.461C161.726 139.418 160.586 129.475 158.308 126.635C156.053 123.821 148.878 121.979 136.838 121.136L130.918 120.706L126.914 120.843C126.327 120.724 125.548 120.587 124.568 120.385L122.314 116.72C122.454 115.986 122.819 115.313 123.358 114.795C128.502 113.989 139.663 113.592 156.841 113.604C160.69 113.604 166.949 113.711 175.617 113.925L190.902 114.511L204.647 114.346C207.305 114.346 210.493 114.456 214.241 114.667C214.735 114.646 215.218 114.817 215.588 115.144C215.818 115.523 215.921 115.966 215.882 116.408C215.826 117.822 215.576 119.222 215.139 120.568C211.98 121.321 208.754 121.766 205.509 121.897L195.869 121.741C194.394 121.69 192.927 121.97 191.574 122.56C190.221 123.15 189.018 124.035 188.052 125.15C187.081 126.225 186.595 129.93 186.595 136.265L186.723 155.655C186.723 168.979 186.192 177.464 185.065 181.129C184.443 183.395 183.168 185.428 181.4 186.976C179.567 188.717 175.572 190.76 169.56 193.124C162.021 196.245 154.173 198.56 146.148 200.034C133.679 202.257 121.041 203.398 108.376 203.442C88.8274 203.442 72.8158 200.941 60.3413 195.938C48.3028 191.25 37.3304 184.188 28.0768 175.173C19.0294 166.266 12.5814 157.28 8.73276 148.214C3.02105 135.392 0.0467824 121.52 0 107.483C0 90.2007 4.58172 73.2911 13.7452 56.7542C22.9086 40.2172 37.6404 26.7775 57.9405 16.4351C72.266 9.10434 91.7169 5.43896 116.293 5.43896C133.264 5.43896 147.153 6.92344 157.959 9.89239C168.781 12.8522 177.313 16.2152 183.663 19.9722" fill="white"/>
<path d="M230.699 140.16C230.821 132.805 232.245 125.53 234.905 118.671C237.731 111.004 242.097 103.997 247.734 98.0812C252.864 92.4239 259.044 87.8178 265.932 84.5193C274.912 80.3652 285.872 78.2851 298.811 78.279C317.266 78.279 332.691 84.6079 345.086 97.2656C357.438 109.875 363.679 125.077 363.679 142.854C363.679 158.639 357.185 172.73 344.197 185.125C331.209 197.52 314.798 203.711 294.962 203.699C282.75 203.725 270.765 200.397 260.315 194.077C252.202 189.257 245.247 182.101 239.45 172.607C233.613 163.132 230.699 152.347 230.699 140.16ZM296.226 197.889C303.871 197.847 311.366 195.762 317.935 191.851C324.926 187.782 330.47 181.294 334.631 172.36C338.791 163.426 340.88 153.053 340.88 141.351C340.88 133.599 339.267 124.71 336.051 114.557C332.834 104.404 327.905 96.7525 321.206 91.6484C314.508 86.5444 306.719 84.0245 297.702 84.0245C290.805 84.1185 284.008 85.6804 277.762 88.6062C270.993 91.6606 265.248 97.5344 260.526 106.227C255.803 114.921 253.467 127.261 253.516 143.248C253.516 161.232 257.587 174.831 265.731 184.043C273.895 193.308 284.057 197.889 296.226 197.889Z" fill="white"/>
<path d="M380.685 200.153L380.09 198.238C380.276 197.095 380.735 196.013 381.428 195.085L390.179 193.344L402.458 191.145C403.376 190.713 404.108 189.965 404.52 189.037C405.124 187.736 405.436 183.961 405.436 177.638C405.436 144.124 405.234 124.787 404.831 119.624C404.465 114.438 403.539 111.157 402.165 109.801C400.79 108.445 397.244 107.336 391.489 106.539C388.765 106.192 386.089 105.543 383.508 104.606L384.094 100.097C394.479 95.8515 401.444 92.1861 404.987 89.1011C409.935 84.6751 414.105 78.8197 417.559 71.6264L422.617 71.7639C423.185 76.6938 423.467 87.6471 423.46 104.624L423.35 107.153C423.384 108.076 423.488 108.995 423.662 109.902C427.461 103.013 432.195 96.6822 437.728 91.0895L441.1 87.6899C442.287 86.3121 443.634 85.0816 445.114 84.0245C452.011 79.8643 457.151 77.7812 460.536 77.7751C462.517 77.7094 464.49 78.0651 466.324 78.8186C468.158 79.572 469.811 80.7062 471.174 82.146C473.917 85.0405 475.408 88.8991 475.326 92.8856C475.326 96.2394 474.318 98.8601 472.357 100.739C469.904 103.119 466.611 104.436 463.193 104.404C461.626 104.404 458.465 103.588 453.856 101.884C449.246 100.18 446.177 99.3916 444.692 99.3916C441.943 99.3916 440.01 99.8314 438.901 100.72C436.152 102.883 432.789 107.309 428.821 114.053C425.742 119.093 424.239 123.711 424.239 127.954L424.954 152.439L425.284 181.808C425.55 185.207 425.962 187.361 426.448 188.369C427.255 189.405 428.265 190.266 429.417 190.898C440.055 191.814 446.415 192.419 448.357 192.84C449.406 192.869 450.452 192.955 451.491 193.097C455.697 193.198 458.676 193.821 460.362 194.93C460.774 195.132 461.12 195.449 461.359 195.842C461.598 196.235 461.719 196.687 461.709 197.147C461.555 198.034 461.144 198.856 460.527 199.511L444.032 199.181L437.82 199.062L428.784 199.181H413.665L405.518 199.621L380.685 200.153Z" fill="white"/>
<path d="M583.829 92.2258L583.985 87.9098L583.829 70.5909L583.985 37.8867C583.985 28.7965 583.013 23.0236 580.997 20.5494C578.981 18.0753 573.3 15.5645 563.715 12.9713C563.009 12.788 561.882 12.5131 560.453 12.1099V10.4788C560.44 9.3804 560.545 8.28376 560.764 7.20749C574.143 5.82381 585.726 3.54211 595.411 0.261605L602.944 0.124146C603.319 6.82261 603.567 14.3458 603.567 22.602L602.944 79.6261L603.998 143.88L603.567 178.087C603.567 185.079 604.016 189.083 605.015 189.935C606.985 191.896 611.319 192.959 618.073 193.051C619.438 193.051 621.307 193.161 623.671 193.344V195.993C623.672 196.74 623.623 197.487 623.525 198.228C620.464 198.934 617.285 199.566 614.05 200.153L592.571 204.295C590.09 204.829 587.566 205.136 585.029 205.211V190.98C582.367 191.829 579.749 192.811 577.185 193.922C561.8 200.446 547.606 203.699 534.713 203.699C526.899 203.699 518.958 201.158 510.888 196.075C502.748 190.952 496.27 183.577 492.24 174.843C487.991 166.179 485.761 156.664 485.716 147.014C485.683 138.696 487.145 130.44 490.032 122.639C492.484 115.532 496.304 108.973 501.275 103.332C504.956 99.3848 509.202 96.0064 513.875 93.3071C519.272 90.0083 523.772 87.9098 527.318 87.0301C536.115 84.7698 541.986 83.6336 544.93 83.6213C558.272 83.6213 569.231 85.6037 577.808 89.5684C580.484 90.8238 582.5 91.7401 583.875 92.2258M584.03 183.723C584.406 177.116 584.635 163.49 584.635 142.854C584.635 125.37 583.792 114.356 582.189 109.755C580.585 105.155 576.535 100.821 570.038 96.7159C563.495 92.6104 555.907 90.4787 548.183 90.5764C536.903 90.5764 527.29 94.9748 519.419 103.781C511.548 112.587 507.635 125.544 507.635 142.707C507.635 157.808 511.841 169.831 520.39 178.857C528.94 187.883 539.478 192.29 552.178 192.29C558.93 192.363 565.65 191.367 572.09 189.34C578.111 187.361 582.069 185.5 584.003 183.723" fill="white"/>
<path d="M638.204 140.197C638.322 132.826 639.736 125.534 642.383 118.653C645.217 110.996 649.582 103.996 655.211 98.0815C660.35 92.4219 666.54 87.8157 673.437 84.5196C682.363 80.3686 693.368 78.2793 706.27 78.2793C724.744 78.2793 740.16 84.6082 752.518 97.266C764.971 109.875 771.129 125.077 771.129 142.854C771.129 158.64 764.632 172.73 751.638 185.125C738.663 197.541 722.315 203.699 702.412 203.699C690.207 203.718 678.23 200.39 667.784 194.078C659.677 189.258 652.722 182.101 646.918 172.608C641.115 163.114 638.207 152.311 638.195 140.197M703.686 197.926C711.343 197.891 718.852 195.806 725.431 191.888C732.383 187.837 737.939 181.34 742.099 172.397C746.259 163.472 748.33 153.09 748.33 141.388C748.33 133.672 746.724 124.741 743.51 114.594C740.276 104.413 735.355 96.7894 728.684 91.6854C721.918 86.582 713.635 83.8973 705.161 84.0614C698.262 84.1559 691.462 85.7177 685.212 88.6432C678.459 91.7404 672.704 97.5775 668.04 106.264C663.376 114.951 660.966 127.34 660.966 143.285C660.966 161.269 665.035 174.868 673.172 184.08C681.355 193.308 691.499 197.926 703.686 197.926ZM690.17 53.8771L708.497 27.4498C713.83 19.6517 719.081 14.0712 724.322 10.6257C726.427 9.18076 728.925 8.41636 731.479 8.43565C733.791 8.31616 736.059 9.10167 737.801 10.6257C738.549 11.2631 739.15 12.0554 739.561 12.9478C739.973 13.8401 740.185 14.8113 740.184 15.7939C740.103 17.9222 739.367 19.9736 738.076 21.6676C736.726 23.7569 733.431 26.567 728.189 30.098L693.368 53.8771L691.7 54.152L690.17 53.8771Z" fill="white"/>
<path d="M859.543 200.602C859.625 199.192 860.036 197.82 860.743 196.597C868.116 194.591 875.644 193.206 883.249 192.455C888.078 192.052 891.175 190.98 892.549 189.193C893.567 187.883 894.153 183.155 894.318 174.944L895.363 135.844L895.234 109.316L895.363 74.6228V65.4594C895.482 44.6126 895.363 31.628 895.078 26.4782C894.856 25.051 894.45 23.6588 893.869 22.3363C891.816 21.3288 889.667 20.5306 887.455 19.9538C885.707 19.5812 877.943 18.1486 864.161 15.6561C864.051 14.5749 863.996 13.8235 863.996 13.3012C864.009 12.5077 864.064 11.7155 864.161 10.9278C866.049 10.9278 869.1 11.0378 873.324 11.276L895.903 12.1191L908.952 12.4123L912.801 12.2749C913.314 12.2749 914.716 12.339 917.089 12.5589C922.963 12.5589 926.253 12.5589 927.169 12.4123L939.081 11.496C947.109 11.496 952.75 11.6487 956.006 11.9541C955.885 13.9171 955.528 15.8584 954.943 17.7362C953.853 17.9378 948.73 18.2127 939.558 18.5335C930.385 18.8542 925.061 19.4498 923.723 20.247C921.46 21.5482 920.333 25.4702 920.333 32.1045C920.333 33.6715 920.232 36.8787 920.003 41.7169V50.578L920.186 77.9767V87.3234L920.443 136.348L920.003 178.096L920.186 187.26C920.186 190.201 920.654 192.034 921.643 192.712C924.108 192.831 931.347 192.923 943.407 193.033H953.486L979.144 192.116C985.864 191.915 990.659 191.237 993.531 190.082C996.362 188.955 1001.15 185.638 1007.86 180.094C1011.57 176.961 1014.77 173.281 1017.36 169.18C1017.85 168.356 1018.7 167.174 1019.86 165.588C1021.73 163.01 1024.26 157.888 1027.43 150.221H1032.3C1031.71 153.731 1031.08 157.112 1030.39 160.301C1027.54 174.229 1025.53 185.812 1024.47 195.058C1024.25 197.046 1024.1 198.906 1023.89 200.556L968.505 198.952C920.91 198.952 892.675 199.386 883.798 200.253C881.049 200.455 878.108 200.556 875.056 200.556L859.543 200.602Z" fill="white"/>
<path d="M1039.31 16.2611V13.0081C1042.06 12.0917 1045.09 11.1754 1048.47 10.1949C1053.42 8.58214 1060.79 6.19048 1070.51 2.94662H1077.51V11.0654C1077.51 92.1618 1077.26 140.529 1076.76 156.168C1076.45 165.332 1076.3 170.234 1076.3 170.83C1076.3 181.881 1076.76 188.094 1077.63 189.349C1078.83 191.127 1082.44 192.346 1088.55 193.06C1094.66 193.775 1098.18 194.444 1099.28 195.113C1099.65 195.318 1099.96 195.624 1100.16 195.995C1100.36 196.367 1100.45 196.789 1100.43 197.211C1100.51 198.032 1100.28 198.854 1099.77 199.502C1099.07 200.012 1098.21 200.241 1097.35 200.144C1096.64 200.144 1091.45 199.997 1081.77 199.64L1062.38 198.971L1037.51 200.144C1036.88 200.241 1036.25 200.21 1035.63 200.052C1035.02 199.894 1034.45 199.614 1033.95 199.227C1033.64 198.972 1033.4 198.648 1033.24 198.282C1033.08 197.916 1033.01 197.518 1033.03 197.12C1032.99 196.699 1033.06 196.276 1033.23 195.89C1033.4 195.503 1033.66 195.167 1034 194.911C1034.61 194.472 1038.2 193.665 1044.66 192.584C1051.12 191.503 1054.85 190.614 1055.76 189.835C1056.68 189.056 1057.33 187.443 1057.6 184.859C1058 181.34 1058.21 171.297 1058.21 154.794L1058.04 120.77L1058.49 85.5183L1058.35 50.2941L1058.79 32.9569C1058.79 29.4839 1058.23 27.0281 1057.16 25.4887C1056.08 23.9492 1053.77 22.4647 1050.17 20.907C1044.86 18.7444 1041.21 17.1866 1039.26 16.197" fill="white"/>
<path d="M1111.85 140.16C1111.95 132.805 1113.37 125.528 1116.03 118.671C1121.71 103.788 1132.79 91.5927 1147.06 84.5193C1156.05 80.3652 1167.01 78.2851 1179.94 78.279C1198.38 78.279 1213.8 84.6079 1226.21 97.2656C1238.61 109.923 1244.81 125.119 1244.78 142.854C1244.78 158.639 1238.29 172.73 1225.31 185.125C1212.33 197.52 1195.93 203.711 1176.11 203.699C1163.9 203.72 1151.91 200.392 1141.45 194.077C1133.37 189.257 1126.4 182.101 1120.57 172.607C1114.73 163.132 1111.87 152.347 1111.87 140.16M1177.37 197.889C1185.02 197.849 1192.53 195.764 1199.11 191.851C1206.03 187.782 1211.64 181.294 1215.77 172.36C1219.9 163.426 1222.01 153.053 1222.01 141.351C1222.01 133.599 1220.42 124.71 1217.2 114.557C1213.98 104.404 1209.03 96.7525 1202.36 91.6484C1195.6 86.5322 1187.32 83.846 1178.84 84.0245C1171.94 84.1189 1165.14 85.6807 1158.89 88.6062C1152.15 91.6759 1146.37 97.5405 1141.69 106.227C1137.01 114.914 1134.63 127.303 1134.63 143.248C1134.63 161.232 1138.72 174.831 1146.91 184.043C1155.03 193.308 1165.23 197.889 1177.37 197.889Z" fill="white"/>
<path d="M1260.68 13.8052V13.0996C1260.78 11.6351 1261.18 10.2067 1261.85 8.90276C1273.53 6.7658 1285.04 3.84523 1296.33 0.160854C1297.41 0.0346674 1298.5 -0.0173776 1299.6 0.0050773C1299.96 1.00436 1300.21 2.04424 1300.33 3.10231V47.2334L1300.17 61.2901L1300.33 76.9962L1300.02 89.7334C1300.02 90.2282 1300.12 91.9143 1300.33 94.7458L1312.46 90.1641C1313.74 89.7701 1318.03 88.4872 1325.21 86.3063C1334.37 84.8126 1339.73 84.1071 1341.19 84.1071C1350.3 83.9577 1359.35 85.5534 1367.86 88.8079C1373.22 91.163 1378.09 94.5081 1382.21 98.6677C1386.63 102.807 1390.2 107.757 1392.74 113.247C1396.67 122.639 1398.66 130.721 1398.66 137.548C1398.66 148.279 1397.98 155.747 1396.58 159.889C1393.22 169.794 1389.11 177.574 1384.29 183.301C1379.46 189.028 1372.69 193.922 1364.01 197.963C1355.7 201.782 1346.69 203.846 1337.54 204.024C1328.4 204.202 1319.31 202.491 1310.86 198.998C1302.86 195.644 1298.37 193.986 1297.4 193.986C1294.36 193.986 1290.42 198.036 1285.69 206.109L1281.41 205.953C1280.98 199.356 1280.83 191.218 1280.83 181.578L1281.08 159.513L1280.91 148.297L1281.25 116.042L1280.91 109.838L1281.53 94.6267V81.5596L1281.69 76.2448C1281.69 75.1452 1281.6 70.8567 1281.53 63.3427V54.4817C1281.85 37.3186 1281.08 27.4312 1279.32 24.7647C1276.41 20.5312 1270.23 16.8475 1260.69 13.7685M1331.15 195.828C1346.16 195.828 1357.58 191.603 1365.42 183.155C1373.26 174.706 1377.18 162.149 1377.19 145.484C1377.19 130.211 1372.75 117.816 1363.86 108.299C1359.71 103.728 1354.64 100.096 1348.97 97.6481C1343.31 95.1999 1337.19 93.9917 1331.02 94.1043C1321.53 94.1043 1313.55 95.653 1307.19 98.6861C1303.32 100.565 1301.2 102.306 1300.78 103.882C1300.36 105.458 1300.1 116.014 1300.1 135.569C1300.1 158.78 1300.63 172.369 1301.6 176.282C1303.29 182.403 1306.32 186.783 1310.77 189.459C1317.75 193.693 1324.59 195.873 1331.19 195.873" fill="white"/>
<path d="M1527.77 121.53L1468.4 121.961H1457.12C1452.61 121.961 1447.96 122.153 1443.21 122.566C1442.54 124.528 1442.09 126.56 1441.88 128.623L1442.02 130.117V131.601L1441.88 138.858C1441.88 144.882 1443.78 152.261 1447.58 160.997C1451.38 169.758 1456.75 176.383 1463.87 180.974C1470.99 185.564 1479.77 188.011 1490.3 188.304C1494.86 188.19 1499.39 187.5 1503.77 186.252C1507.11 185.152 1511.87 182.632 1518 178.674L1528.67 169.932L1529.59 175.888C1529.58 176.624 1529.53 177.359 1529.42 178.087C1524.7 183.977 1518.98 188.997 1512.53 192.923C1506.08 196.984 1499.1 200.115 1491.78 202.224C1488.44 203.14 1482.92 203.58 1475.2 203.58C1468.07 203.553 1461.01 202.075 1454.47 199.236C1444.51 195.003 1436.18 187.665 1430.73 178.316C1424.94 168.688 1422.04 157.011 1422.03 143.284C1422.03 138.95 1422.87 133.397 1424.51 126.561C1426.44 118.943 1429.4 111.626 1433.33 104.816C1435.94 99.8739 1439.5 95.4885 1443.79 91.905C1449.76 87.2042 1454.92 83.8961 1459.37 82.0085C1465.78 79.3602 1473.25 78.0316 1481.7 78.0316C1490.86 78.0316 1498.41 79.6993 1504.21 83.044C1512.16 87.4852 1518.05 93.2123 1521.91 100.225C1525.82 107.226 1527.77 113.659 1527.77 119.469V121.53ZM1445.16 116.197H1452.09C1457.13 116.197 1472.13 115.415 1497.1 113.851C1501.07 113.641 1503.52 113.228 1504.36 112.679C1506.19 110.773 1507.01 109.105 1507.01 107.611C1506.85 103.956 1505.85 100.386 1504.1 97.174C1502.09 93.2732 1498.9 90.1051 1494.99 88.1205C1490.55 85.9378 1485.65 84.8595 1480.71 84.9774C1469.22 84.9774 1460.03 89.2384 1453.15 97.8062C1447.81 104.331 1445.15 110.44 1445.16 116.133" fill="white"/>
<path d="M1544.49 16.2611V13.0081C1547.26 12.1162 1550.32 11.1784 1553.65 10.1949C1558.6 8.58214 1565.94 6.19048 1575.65 2.94662H1582.64V11.0654C1582.64 92.1618 1582.38 140.529 1581.88 156.168C1581.61 165.332 1581.48 170.234 1581.48 170.83C1581.48 181.881 1581.88 188.094 1582.78 189.349C1583.98 191.127 1587.61 192.346 1593.69 193.06C1599.76 193.775 1603.34 194.444 1604.42 195.113C1604.8 195.31 1605.11 195.614 1605.32 195.987C1605.53 196.36 1605.62 196.785 1605.59 197.211C1605.66 198.029 1605.43 198.843 1604.94 199.502C1604.22 200.009 1603.35 200.237 1602.48 200.144C1601.78 200.144 1596.6 199.997 1586.9 199.64L1567.54 198.971L1542.63 200.144C1542.01 200.245 1541.37 200.216 1540.76 200.058C1540.15 199.9 1539.59 199.617 1539.09 199.227C1538.79 198.97 1538.55 198.646 1538.39 198.28C1538.23 197.915 1538.16 197.518 1538.18 197.12C1538.14 196.697 1538.22 196.274 1538.39 195.888C1538.57 195.502 1538.84 195.166 1539.17 194.911C1539.81 194.472 1543.34 193.665 1549.8 192.584C1556.26 191.503 1559.99 190.614 1560.93 189.835C1561.86 189.056 1562.49 187.443 1562.76 184.859C1563.14 181.34 1563.33 171.297 1563.33 154.794L1563.22 120.77L1563.64 85.5183L1563.49 50.2941L1563.95 32.9569C1563.95 29.4839 1563.4 27.0281 1562.31 25.4887C1561.22 23.9492 1558.92 22.4647 1555.34 20.907C1550.01 18.7444 1546.37 17.1866 1544.39 16.197" fill="white"/>
<path d="M1613.95 16.2611V13.0081C1616.69 12.0917 1619.79 11.1754 1623.11 10.1949C1628.05 8.58214 1635.41 6.19048 1645.1 2.94662H1652.07V11.0654C1652.07 92.1618 1651.84 140.529 1651.38 156.168C1651.07 165.332 1650.93 170.234 1650.93 170.83C1650.93 181.881 1651.38 188.094 1652.25 189.349C1653.42 191.127 1657.04 192.346 1663.14 193.06C1669.23 193.775 1672.78 194.444 1673.87 195.113C1674.25 195.308 1674.56 195.611 1674.77 195.985C1674.97 196.359 1675.07 196.786 1675.03 197.211C1675.11 198.03 1674.88 198.849 1674.38 199.502C1673.67 200.01 1672.81 200.238 1671.94 200.144C1671.27 200.144 1666.06 199.997 1656.36 199.64L1636.99 198.971L1612.17 200.135C1611.54 200.235 1610.91 200.206 1610.29 200.048C1609.68 199.89 1609.11 199.608 1608.61 199.218C1608.32 198.936 1608.1 198.599 1607.94 198.226C1607.79 197.854 1607.71 197.454 1607.71 197.05C1607.72 196.647 1607.8 196.249 1607.97 195.88C1608.13 195.51 1608.36 195.178 1608.66 194.902C1609.34 194.462 1612.87 193.656 1619.33 192.575C1625.79 191.493 1629.51 190.605 1630.45 189.826C1631.38 189.047 1632.01 187.434 1632.28 184.85C1632.68 181.331 1632.86 171.288 1632.86 154.785L1632.74 120.761L1633.14 85.5092L1633.02 50.2849L1633.45 32.9477C1633.45 29.4748 1632.91 27.019 1631.83 25.4795C1630.75 23.94 1628.42 22.4556 1624.89 20.8978C1619.55 18.7352 1615.9 17.1774 1613.89 16.1878" fill="white"/>
<path d="M1599.11 275.284C793.025 285.895 75.9673 275.284 75.9673 275.284C75.9673 275.284 793.025 264.654 1599.11 275.284Z" fill="white"/>
</svg>
