<svg width="644" height="327" viewBox="0 0 644 327" fill="none" xmlns="http://www.w3.org/2000/svg">
<path d="M643.314 215.651C302.855 219.975 0 215.651 0 215.651C0 215.651 302.855 211.319 643.314 215.651Z" fill="white"/>
<path d="M96.3184 137.513C93.6682 137.513 90.676 137.385 87.3419 137.128C86.0595 137.043 84.478 136.957 82.5972 136.872C80.8019 136.786 78.7501 136.744 76.4419 136.744L67.4654 136.872C65.8411 136.957 63.6184 137 60.7972 137C60.6262 137 60.5407 136.744 60.5407 136.231C60.5407 135.718 60.6262 135.461 60.7972 135.461C63.8748 135.461 66.1403 135.247 67.5937 134.82C69.047 134.393 70.0301 133.58 70.5431 132.384C71.1415 131.101 71.4407 129.178 71.4407 126.613V67.24C71.4407 64.6753 71.1843 62.7945 70.6713 61.5976C70.1584 60.4008 69.1752 59.5886 67.7219 59.1612C66.3541 58.6482 64.1313 58.3918 61.0537 58.3918C60.7972 58.3918 60.669 58.1353 60.669 57.6224C60.669 57.1094 60.7972 56.8529 61.0537 56.8529L67.4654 56.9812C71.227 57.1522 74.2192 57.2376 76.4419 57.2376C79.605 57.2376 82.8537 57.1094 86.1878 56.8529C90.2913 56.682 93.0697 56.5965 94.5231 56.5965C103.329 56.5965 111.151 58.3063 117.99 61.7259C124.829 65.1455 130.13 69.8047 133.891 75.7035C137.653 81.6024 139.534 88.2278 139.534 95.58C139.534 103.873 137.567 111.225 133.635 117.636C129.788 123.963 124.53 128.878 117.862 132.384C111.279 135.803 104.098 137.513 96.3184 137.513ZM95.036 135.205C101.448 135.205 107.133 133.794 112.091 130.973C117.05 128.066 120.897 123.877 123.632 118.406C126.454 112.849 127.864 106.181 127.864 98.4012C127.864 90.9635 126.539 84.2525 123.889 78.2682C121.239 72.1984 117.477 67.4537 112.604 64.0341C107.817 60.529 102.217 58.7765 95.8054 58.7765C92.1294 58.7765 89.3082 58.9902 87.3419 59.4176C85.3756 59.8451 83.9223 60.7 82.9819 61.9824C82.0415 63.1792 81.5713 65.0173 81.5713 67.4965V125.202C81.5713 127.682 81.9133 129.648 82.5972 131.101C83.3666 132.469 84.6917 133.495 86.5725 134.179C88.5388 134.863 91.3599 135.205 95.036 135.205ZM171.639 138.539C166.595 138.539 162.235 137.427 158.559 135.205C154.882 132.896 152.104 129.862 150.223 126.1C148.342 122.253 147.402 118.149 147.402 113.789C147.402 108.745 148.599 104.129 150.993 99.94C153.472 95.751 156.806 92.4596 160.995 90.0659C165.184 87.5867 169.843 86.3471 174.973 86.3471C180.017 86.3471 183.864 87.6294 186.514 90.1941C189.164 92.6733 190.489 96.2639 190.489 100.966C190.489 103.36 189.976 104.556 188.95 104.556H180.102C180.444 99.5125 179.76 95.6655 178.05 93.0153C176.426 90.2796 173.947 88.9118 170.613 88.9118C166.424 88.9118 163.132 90.7071 160.739 94.2976C158.43 97.8027 157.276 102.633 157.276 108.788C157.276 116.311 158.986 122.296 162.406 126.741C165.911 131.187 170.869 133.409 177.281 133.409C179.76 133.409 181.897 133.11 183.693 132.512C185.488 131.828 187.582 130.802 189.976 129.434H190.104C190.361 129.434 190.575 129.605 190.746 129.947C191.002 130.204 191.045 130.46 190.874 130.716C187.796 133.452 184.719 135.461 181.641 136.744C178.563 137.94 175.229 138.539 171.639 138.539ZM154.199 102.761L182.923 102.248V104.556L154.327 104.685L154.199 102.761ZM206.664 94.8106C206.664 97.6318 207.604 99.94 209.485 101.735C211.366 103.531 214.144 105.411 217.82 107.378C220.812 108.916 223.163 110.284 224.873 111.481C226.583 112.593 228.036 114.046 229.233 115.841C230.43 117.636 231.029 119.859 231.029 122.509C231.029 126.869 229.361 130.631 226.027 133.794C222.779 136.872 218.291 138.411 212.563 138.411C208.117 138.411 203.928 137.171 199.996 134.692C199.483 134.179 199.226 133.666 199.226 133.153L198.97 122.381C198.97 122.125 199.183 121.996 199.611 121.996C200.124 121.911 200.423 121.954 200.509 122.125C202.047 126.399 204.185 129.776 206.92 132.255C209.741 134.735 212.862 135.974 216.281 135.974C218.675 135.974 220.513 135.376 221.796 134.179C223.163 132.982 223.847 131.229 223.847 128.921C223.847 126.527 223.334 124.518 222.309 122.894C221.283 121.184 220 119.859 218.461 118.919C217.008 117.893 214.999 116.696 212.434 115.328C209.528 113.875 207.262 112.593 205.638 111.481C204.014 110.37 202.603 108.916 201.406 107.121C200.295 105.326 199.739 103.103 199.739 100.453C199.739 95.6655 201.492 92.0749 204.997 89.6812C208.502 87.202 212.691 85.9624 217.564 85.9624C220.898 85.9624 224.147 86.6035 227.31 87.8859C228.079 88.1424 228.464 88.6125 228.464 89.2965C228.464 91.1773 228.421 92.6306 228.336 93.6565L228.207 99.2988C228.207 99.5553 227.951 99.6835 227.438 99.6835C226.925 99.6835 226.669 99.5553 226.669 99.2988C226.669 97.589 225.985 95.8792 224.617 94.1694C223.249 92.4596 221.496 91.0918 219.359 90.0659C217.307 89.04 215.213 88.5271 213.076 88.5271C211.109 88.5271 209.528 89.04 208.331 90.0659C207.22 91.0063 206.664 92.5878 206.664 94.8106ZM258.329 138.667C254.738 138.667 251.404 137.684 248.326 135.718C245.249 133.666 242.812 130.759 241.017 126.998C239.222 123.236 238.324 118.919 238.324 114.046C238.324 107.805 239.82 102.59 242.812 98.4012C245.804 94.1267 249.523 90.9635 253.969 88.9118C258.5 86.86 263.031 85.8341 267.562 85.8341C273.118 85.8341 278.376 87.5439 283.335 90.9635L281.283 100.196C279.231 96.4349 276.88 93.571 274.23 91.6047C271.665 89.6384 268.459 88.6553 264.612 88.6553C259.483 88.6553 255.422 90.4506 252.43 94.0412C249.523 97.6318 248.07 102.975 248.07 110.071C248.07 117.252 249.566 122.98 252.558 127.254C255.55 131.443 259.355 133.538 263.971 133.538C267.391 133.538 270.468 132.64 273.204 130.845C276.025 128.964 278.932 126.356 281.924 123.022L283.078 124.048C279.145 128.494 275.298 132.042 271.537 134.692C267.775 137.342 263.373 138.667 258.329 138.667ZM287.823 122.638C287.823 125.63 288.165 127.81 288.849 129.178C289.533 130.46 290.644 131.101 292.183 131.101C294.149 131.101 296.244 130.545 298.466 129.434L298.723 129.306C298.979 129.306 299.193 129.52 299.364 129.947C299.535 130.375 299.492 130.674 299.236 130.845L283.976 138.154C283.463 138.325 283.164 138.411 283.078 138.411C281.967 138.411 281.026 137.342 280.257 135.205C279.487 133.067 279.103 130.204 279.103 126.613V60.7C279.103 57.6224 278.804 55.4424 278.205 54.16C277.607 52.7922 276.581 52.1082 275.127 52.1082C273.931 52.1082 272.093 52.6639 269.613 53.7753H269.357C269.015 53.7753 268.758 53.6043 268.587 53.2623C268.416 52.8349 268.459 52.5357 268.716 52.3647L285.771 44.1576C285.942 44.0722 286.156 44.0294 286.412 44.0294C286.669 44.0294 286.968 44.1576 287.31 44.4141C287.652 44.6706 287.823 44.9698 287.823 45.3118V122.638ZM325.616 138.539C320.572 138.539 316.212 137.427 312.536 135.205C308.86 132.896 306.082 129.862 304.201 126.1C302.32 122.253 301.38 118.149 301.38 113.789C301.38 108.745 302.576 104.129 304.97 99.94C307.449 95.751 310.784 92.4596 314.973 90.0659C319.162 87.5867 323.821 86.3471 328.95 86.3471C333.994 86.3471 337.841 87.6294 340.491 90.1941C343.142 92.6733 344.467 96.2639 344.467 100.966C344.467 103.36 343.954 104.556 342.928 104.556H334.08C334.422 99.5125 333.738 95.6655 332.028 93.0153C330.404 90.2796 327.924 88.9118 324.59 88.9118C320.401 88.9118 317.11 90.7071 314.716 94.2976C312.408 97.8027 311.254 102.633 311.254 108.788C311.254 116.311 312.964 122.296 316.383 126.741C319.888 131.187 324.847 133.409 331.258 133.409C333.738 133.409 335.875 133.11 337.67 132.512C339.466 131.828 341.56 130.802 343.954 129.434H344.082C344.338 129.434 344.552 129.605 344.723 129.947C344.98 130.204 345.022 130.46 344.851 130.716C341.774 133.452 338.696 135.461 335.618 136.744C332.541 137.94 329.207 138.539 325.616 138.539ZM308.176 102.761L336.901 102.248V104.556L308.304 104.685L308.176 102.761ZM391.466 97.8882C391.466 95.238 391.209 93.3145 390.696 92.1176C390.269 90.9208 389.329 90.1086 387.875 89.6812C386.422 89.2537 384.071 89.04 380.822 89.04C380.566 89.04 380.438 88.7835 380.438 88.2706C380.438 87.7576 380.566 87.5012 380.822 87.5012C383.387 87.5012 385.439 87.5439 386.978 87.6294L395.826 87.7576L404.674 87.6294C406.127 87.5439 408.179 87.5012 410.829 87.5012C411.086 87.5012 411.214 87.7576 411.214 88.2706C411.214 88.7835 411.086 89.04 410.829 89.04C407.752 89.04 405.486 89.2965 404.033 89.8094C402.58 90.2369 401.554 91.049 400.955 92.2459C400.442 93.4427 400.186 95.3235 400.186 97.8882V126.613C400.186 129.263 400.4 131.187 400.827 132.384C401.34 133.58 402.323 134.393 403.776 134.82C405.23 135.247 407.581 135.461 410.829 135.461C411.086 135.461 411.214 135.718 411.214 136.231C411.214 136.744 411.086 137 410.829 137C408.265 137 406.213 136.957 404.674 136.872L395.826 136.744L386.978 136.872C385.524 136.957 383.473 137 380.822 137C380.566 137 380.438 136.744 380.438 136.231C380.438 135.718 380.566 135.461 380.822 135.461C383.9 135.461 386.166 135.247 387.619 134.82C389.072 134.307 390.055 133.452 390.568 132.255C391.167 131.058 391.466 129.178 391.466 126.613V97.8882ZM436.737 123.279C432.633 123.279 429.214 122.424 426.478 120.714C423.742 118.919 421.733 116.696 420.451 114.046C419.254 111.31 418.656 108.532 418.656 105.711C418.656 101.864 419.682 98.4439 421.733 95.4518C423.785 92.4596 426.606 90.1086 430.197 88.3988C433.788 86.689 437.806 85.8341 442.251 85.8341C450.373 85.8341 456.784 88.5271 461.486 93.9129C466.188 99.2988 468.539 106.48 468.539 115.456C468.539 123.236 466.701 130.93 463.025 138.539C459.435 146.233 454.177 153.072 447.252 159.056C440.328 165.041 432.206 169.444 422.888 172.265C422.631 172.35 422.375 172.179 422.118 171.752C421.947 171.324 422.033 171.025 422.375 170.854C430.154 167.605 436.78 163.032 442.251 157.133C447.808 151.32 451.954 144.951 454.69 138.026C457.426 131.187 458.793 124.476 458.793 117.893C458.793 113.362 458.152 108.831 456.87 104.3C455.673 99.769 453.664 95.9647 450.843 92.8871C448.107 89.8094 444.602 88.2706 440.328 88.2706C436.481 88.2706 433.531 89.5957 431.479 92.2459C429.428 94.8106 428.402 98.4012 428.402 103.018C428.402 107.805 429.47 111.695 431.608 114.687C433.83 117.679 437.079 119.175 441.353 119.175C443.405 119.175 445.201 118.833 446.739 118.149C448.364 117.465 450.244 116.311 452.382 114.687C452.467 114.602 452.595 114.559 452.766 114.559C453.023 114.559 453.237 114.687 453.408 114.944C453.664 115.2 453.75 115.414 453.664 115.585C449.475 120.714 443.833 123.279 436.737 123.279ZM475.572 135.974C475.145 135.974 474.803 135.803 474.546 135.461C474.29 135.119 474.333 134.777 474.675 134.435L512.76 86.2188C512.931 86.0478 513.188 85.9624 513.53 85.9624C513.786 85.9624 514.043 86.0478 514.299 86.2188C514.556 86.3043 514.684 86.4753 514.684 86.7318V155.979C514.684 156.834 514.342 157.432 513.658 157.774L506.862 161.108C506.349 161.279 506.092 161.365 506.092 161.365C505.836 161.365 505.708 161.023 505.708 160.339V98.0165L511.606 93.6565L481.599 131.101C481.343 131.358 481.257 131.571 481.343 131.742C481.514 131.913 481.813 131.999 482.24 131.999C491.644 131.999 503.357 131.828 517.377 131.486L524.943 131.229C525.285 131.229 525.456 131.999 525.456 133.538C525.456 134.307 525.37 135.076 525.199 135.846C525.114 136.53 524.986 136.872 524.815 136.872C518.317 136.53 511.649 136.316 504.81 136.231C498.056 136.06 488.31 135.974 475.572 135.974ZM565.866 100.453C571.508 100.453 575.697 102.035 578.433 105.198C581.254 108.361 582.665 112.165 582.665 116.611C582.665 120.629 581.468 124.347 579.074 127.767C576.766 131.101 573.603 133.751 569.585 135.718C565.652 137.684 561.335 138.667 556.633 138.667C549.281 138.667 543.467 136.188 539.193 131.229C534.918 126.271 532.781 119.304 532.781 110.327C532.781 102.376 534.619 94.5541 538.295 86.86C541.971 79.1659 547.229 72.2839 554.068 66.2141C560.993 60.1443 569.115 55.4851 578.433 52.2365C578.775 52.151 579.031 52.322 579.202 52.7494C579.373 53.1769 579.331 53.4761 579.074 53.6471C571.209 57.3231 564.498 62.1533 558.941 68.1376C553.47 74.0365 549.366 80.491 546.631 87.5012C543.895 94.4259 542.527 101.351 542.527 108.275C542.527 116.14 544.109 122.723 547.272 128.024C550.52 133.324 554.838 135.974 560.224 135.974C564.071 135.974 567.148 134.564 569.457 131.742C571.765 128.921 572.919 125.031 572.919 120.073C572.919 115.456 571.893 111.738 569.841 108.916C567.789 106.095 564.755 104.685 560.737 104.685C558.685 104.685 556.761 105.112 554.966 105.967C553.256 106.736 551.29 108.062 549.067 109.942C548.982 110.028 548.853 110.071 548.682 110.071C548.426 110.071 548.169 109.942 547.913 109.686C547.657 109.429 547.571 109.216 547.657 109.045C552.444 103.317 558.514 100.453 565.866 100.453Z" fill="white"/>
<path d="M26.4977 258.045C29.1907 258.045 31.4561 258.237 33.2942 258.622C35.1322 259.006 36.9703 259.669 38.8083 260.609C39.1075 260.78 39.2785 260.93 39.3212 261.058C39.364 261.186 39.4281 261.507 39.5136 262.02L40.283 269.65C40.283 269.778 40.1548 269.864 39.8983 269.906C39.6846 269.906 39.5563 269.842 39.5136 269.714C37.5473 262.576 33.1446 259.006 26.3054 259.006C22.7148 259.006 19.5303 259.797 16.7518 261.379C14.0161 262.96 11.9003 265.226 10.4042 268.175C8.9081 271.082 8.16006 274.48 8.16006 278.37C8.16006 282.089 8.99359 285.508 10.6606 288.629C12.3277 291.706 14.5505 294.143 17.3289 295.938C20.1501 297.733 23.2063 298.631 26.4977 298.631C30.0028 298.631 32.8454 297.776 35.0254 296.066C37.2054 294.357 38.8724 291.749 40.0265 288.244C40.0265 288.159 40.1334 288.116 40.3471 288.116C40.6463 288.116 40.7959 288.18 40.7959 288.308L40.1548 295.361C40.112 295.874 40.0479 296.195 39.9624 296.323C39.8769 296.451 39.7059 296.601 39.4495 296.772C37.2267 297.84 35.1322 298.588 33.1659 299.016C31.2424 299.443 29.0197 299.657 26.4977 299.657C22.0095 299.657 17.9914 298.781 14.4436 297.028C10.9385 295.233 8.20281 292.732 6.23653 289.526C4.27026 286.321 3.28712 282.644 3.28712 278.498C3.28712 274.48 4.29163 270.932 6.30065 267.855C8.30967 264.734 11.0667 262.319 14.5718 260.609C18.1197 258.9 22.095 258.045 26.4977 258.045ZM57.6298 299.657C55.1506 299.657 52.9492 299.059 51.0257 297.862C49.1449 296.622 47.6916 294.976 46.6657 292.925C45.6398 290.83 45.1269 288.565 45.1269 286.128C45.1269 283.35 45.7894 280.999 47.1145 279.075C48.4824 277.109 50.2136 275.656 52.3081 274.715C54.4453 273.732 56.6039 273.241 58.7839 273.241C61.3059 273.241 63.5073 273.86 65.3881 275.1C67.2689 276.34 68.7008 277.985 69.6839 280.037C70.7098 282.046 71.2228 284.183 71.2228 286.449C71.2228 289.099 70.603 291.429 69.3634 293.438C68.1238 295.404 66.4567 296.943 64.3622 298.054C62.3104 299.123 60.0663 299.657 57.6298 299.657ZM59.4892 298.439C61.8402 298.439 63.6569 297.605 64.9392 295.938C66.2216 294.271 66.8628 291.706 66.8628 288.244C66.8628 285.594 66.4139 283.222 65.5163 281.127C64.6614 279.033 63.4645 277.408 61.9257 276.254C60.3869 275.057 58.6343 274.459 56.6681 274.459C54.3598 274.459 52.5645 275.292 51.2822 276.959C50.0426 278.626 49.4228 281.02 49.4228 284.141C49.4228 286.748 49.8502 289.142 50.7051 291.322C51.56 293.502 52.7569 295.233 54.2957 296.515C55.8345 297.798 57.5657 298.439 59.4892 298.439ZM108.123 298.823C107.995 298.823 107.931 298.695 107.931 298.439C107.931 298.182 107.995 298.054 108.123 298.054C109.278 298.054 110.132 297.947 110.688 297.733C111.244 297.477 111.629 297.05 111.842 296.451C112.056 295.81 112.163 294.87 112.163 293.63V283.435C112.163 280.913 111.714 279.033 110.816 277.793C109.919 276.553 108.53 275.933 106.649 275.933C105.153 275.933 103.614 276.446 102.032 277.472C100.493 278.455 99.1684 279.802 98.057 281.512L97.8005 280.742C99.5958 278.22 101.37 276.382 103.122 275.228C104.918 274.031 106.798 273.433 108.765 273.433C111.03 273.433 112.761 274.074 113.958 275.356C115.155 276.639 115.753 278.584 115.753 281.191V293.63C115.753 294.912 115.86 295.853 116.074 296.451C116.288 297.05 116.672 297.477 117.228 297.733C117.784 297.947 118.639 298.054 119.793 298.054C119.921 298.054 119.985 298.182 119.985 298.439C119.985 298.695 119.921 298.823 119.793 298.823C118.81 298.823 118.019 298.802 117.421 298.759L113.958 298.695L110.496 298.759C109.897 298.802 109.107 298.823 108.123 298.823ZM91.5811 298.823C91.4529 298.823 91.3888 298.695 91.3888 298.439C91.3888 298.182 91.4529 298.054 91.5811 298.054C92.7352 298.054 93.5901 297.947 94.1458 297.733C94.7015 297.477 95.0649 297.05 95.2358 296.451C95.4496 295.853 95.5564 294.912 95.5564 293.63V283.435C95.5564 280.913 95.1076 279.033 94.21 277.793C93.3123 276.553 91.9445 275.933 90.1064 275.933C88.5676 275.933 87.0288 276.446 85.49 277.472C83.9511 278.455 82.626 279.802 81.5147 281.512L81.2582 280.742C83.0535 278.22 84.8274 276.382 86.58 275.228C88.3752 274.031 90.2347 273.433 92.1582 273.433C94.4237 273.433 96.1549 274.074 97.3517 275.356C98.5913 276.639 99.2111 278.541 99.2111 281.063V293.63C99.2111 294.912 99.318 295.853 99.5317 296.451C99.7454 297.05 100.13 297.477 100.686 297.733C101.242 297.947 102.096 298.054 103.251 298.054C103.379 298.054 103.443 298.182 103.443 298.439C103.443 298.695 103.379 298.823 103.251 298.823C102.267 298.823 101.477 298.802 100.878 298.759L97.4158 298.695L93.8894 298.759C93.3337 298.802 92.5643 298.823 91.5811 298.823ZM75.1029 298.823C74.9747 298.823 74.9105 298.695 74.9105 298.439C74.9105 298.182 74.9747 298.054 75.1029 298.054C76.257 298.054 77.1119 297.947 77.6676 297.733C78.2233 297.477 78.5866 297.05 78.7576 296.451C78.9713 295.853 79.0782 294.912 79.0782 293.63V280.935C79.0782 279.481 78.9072 278.434 78.5652 277.793C78.2233 277.152 77.6462 276.831 76.8341 276.831C76.1501 276.831 74.996 277.152 73.3717 277.793H73.2435C73.0725 277.793 72.9443 277.707 72.8588 277.536C72.816 277.323 72.8801 277.173 73.0511 277.088L80.4888 273.561C80.5743 273.518 80.7025 273.497 80.8735 273.497C81.2582 273.497 81.6643 273.989 82.0917 274.972C82.5192 275.955 82.7329 277.216 82.7329 278.755V293.63C82.7329 294.912 82.8184 295.853 82.9894 296.451C83.2031 297.05 83.5878 297.477 84.1435 297.733C84.6992 297.947 85.5541 298.054 86.7082 298.054C86.8364 298.054 86.9005 298.182 86.9005 298.439C86.9005 298.695 86.8364 298.823 86.7082 298.823C85.725 298.823 84.9556 298.802 84.4 298.759L80.9376 298.695L77.4111 298.759C76.8554 298.802 76.086 298.823 75.1029 298.823ZM121.889 316.456C121.761 316.456 121.697 316.328 121.697 316.071C121.697 315.815 121.761 315.686 121.889 315.686C123.043 315.686 123.898 315.558 124.454 315.302C125.01 315.088 125.394 314.682 125.608 314.083C125.822 313.485 125.929 312.545 125.929 311.262V281.127C125.929 279.588 125.758 278.498 125.416 277.857C125.074 277.173 124.475 276.831 123.62 276.831C122.68 276.831 121.547 277.13 120.222 277.729L120.094 277.793C119.923 277.793 119.816 277.686 119.773 277.472C119.688 277.259 119.709 277.109 119.837 277.023L126.955 273.625C127.04 273.583 127.19 273.561 127.403 273.561C128.002 273.561 128.493 274.074 128.878 275.1C129.306 276.083 129.519 277.472 129.519 279.268V311.262C129.519 312.545 129.669 313.485 129.968 314.083C130.31 314.682 130.908 315.088 131.763 315.302C132.661 315.558 134.05 315.686 135.931 315.686C136.016 315.686 136.059 315.815 136.059 316.071C136.059 316.328 136.016 316.456 135.931 316.456C134.478 316.456 133.324 316.434 132.469 316.392L127.788 316.328L124.262 316.392C123.663 316.434 122.872 316.456 121.889 316.456ZM136.316 299.657C134.649 299.657 133.195 299.443 131.956 299.016C130.716 298.631 129.348 297.926 127.852 296.9L128.75 293.373C130.075 294.998 131.443 296.237 132.853 297.092C134.307 297.904 136.102 298.311 138.239 298.311C140.505 298.311 142.364 297.327 143.817 295.361C145.271 293.352 145.997 290.574 145.997 287.026C145.997 283.435 145.207 280.657 143.625 278.691C142.044 276.682 140.035 275.677 137.598 275.677C135.888 275.677 134.328 276.126 132.917 277.023C131.55 277.921 130.054 279.246 128.429 280.999L127.916 280.486C130.096 278.007 132.191 276.19 134.2 275.036C136.209 273.839 138.239 273.241 140.291 273.241C142.044 273.241 143.668 273.711 145.164 274.651C146.66 275.592 147.857 276.959 148.755 278.755C149.652 280.55 150.101 282.644 150.101 285.038C150.101 288.244 149.374 290.958 147.921 293.181C146.468 295.361 144.672 296.985 142.535 298.054C140.441 299.123 138.367 299.657 136.316 299.657ZM160.215 280.742C162.481 277.921 164.233 276.019 165.473 275.036C166.712 274.01 167.866 273.497 168.935 273.497C169.875 273.497 170.773 273.753 171.628 274.266C172.483 274.779 172.91 275.399 172.91 276.126C172.91 276.682 172.718 277.152 172.333 277.536C171.949 277.921 171.436 278.113 170.794 278.113C170.41 278.113 170.068 278.049 169.769 277.921C169.512 277.75 169.192 277.515 168.807 277.216C168.422 276.874 168.059 276.617 167.717 276.446C167.375 276.275 166.969 276.19 166.499 276.19C165.857 276.19 165.152 276.511 164.383 277.152C163.613 277.793 162.31 279.225 160.472 281.448L160.215 280.742ZM154.188 298.823C154.06 298.823 153.996 298.695 153.996 298.439C153.996 298.182 154.06 298.054 154.188 298.054C155.342 298.054 156.197 297.947 156.753 297.733C157.308 297.477 157.672 297.05 157.843 296.451C158.056 295.853 158.163 294.912 158.163 293.63V280.935C158.163 279.481 157.992 278.434 157.65 277.793C157.308 277.152 156.731 276.831 155.919 276.831C155.235 276.831 154.081 277.152 152.457 277.793H152.329C152.158 277.793 152.029 277.707 151.944 277.536C151.901 277.323 151.965 277.173 152.136 277.088L159.574 273.561C159.659 273.518 159.788 273.497 159.959 273.497C160.343 273.497 160.749 273.989 161.177 274.972C161.604 275.955 161.818 277.216 161.818 278.755V293.63C161.818 294.912 161.968 295.853 162.267 296.451C162.609 297.05 163.207 297.477 164.062 297.733C164.917 297.947 166.242 298.054 168.037 298.054C168.208 298.054 168.294 298.182 168.294 298.439C168.294 298.695 168.208 298.823 168.037 298.823C166.67 298.823 165.58 298.802 164.767 298.759L160.023 298.695L156.496 298.759C155.941 298.802 155.171 298.823 154.188 298.823ZM187.436 299.657C184.956 299.657 182.755 299.059 180.831 297.862C178.951 296.622 177.497 294.976 176.471 292.925C175.446 290.83 174.933 288.565 174.933 286.128C174.933 283.35 175.595 280.999 176.92 279.075C178.288 277.109 180.019 275.656 182.114 274.715C184.251 273.732 186.41 273.241 188.59 273.241C191.112 273.241 193.313 273.86 195.194 275.1C197.075 276.34 198.506 277.985 199.49 280.037C200.516 282.046 201.028 284.183 201.028 286.449C201.028 289.099 200.409 291.429 199.169 293.438C197.929 295.404 196.262 296.943 194.168 298.054C192.116 299.123 189.872 299.657 187.436 299.657ZM189.295 298.439C191.646 298.439 193.463 297.605 194.745 295.938C196.027 294.271 196.668 291.706 196.668 288.244C196.668 285.594 196.22 283.222 195.322 281.127C194.467 279.033 193.27 277.408 191.731 276.254C190.193 275.057 188.44 274.459 186.474 274.459C184.166 274.459 182.37 275.292 181.088 276.959C179.848 278.626 179.228 281.02 179.228 284.141C179.228 286.748 179.656 289.142 180.511 291.322C181.366 293.502 182.563 295.233 184.101 296.515C185.64 297.798 187.371 298.439 189.295 298.439ZM237.929 298.823C237.801 298.823 237.737 298.695 237.737 298.439C237.737 298.182 237.801 298.054 237.929 298.054C239.083 298.054 239.938 297.947 240.494 297.733C241.05 297.477 241.434 297.05 241.648 296.451C241.862 295.81 241.969 294.87 241.969 293.63V283.435C241.969 280.913 241.52 279.033 240.622 277.793C239.724 276.553 238.335 275.933 236.454 275.933C234.958 275.933 233.42 276.446 231.838 277.472C230.299 278.455 228.974 279.802 227.863 281.512L227.606 280.742C229.402 278.22 231.175 276.382 232.928 275.228C234.723 274.031 236.604 273.433 238.57 273.433C240.836 273.433 242.567 274.074 243.764 275.356C244.961 276.639 245.559 278.584 245.559 281.191V293.63C245.559 294.912 245.666 295.853 245.88 296.451C246.093 297.05 246.478 297.477 247.034 297.733C247.59 297.947 248.444 298.054 249.599 298.054C249.727 298.054 249.791 298.182 249.791 298.439C249.791 298.695 249.727 298.823 249.599 298.823C248.615 298.823 247.825 298.802 247.226 298.759L243.764 298.695L240.302 298.759C239.703 298.802 238.912 298.823 237.929 298.823ZM221.387 298.823C221.259 298.823 221.194 298.695 221.194 298.439C221.194 298.182 221.259 298.054 221.387 298.054C222.541 298.054 223.396 297.947 223.952 297.733C224.507 297.477 224.871 297.05 225.042 296.451C225.255 295.853 225.362 294.912 225.362 293.63V283.435C225.362 280.913 224.913 279.033 224.016 277.793C223.118 276.553 221.75 275.933 219.912 275.933C218.373 275.933 216.834 276.446 215.296 277.472C213.757 278.455 212.432 279.802 211.32 281.512L211.064 280.742C212.859 278.22 214.633 276.382 216.386 275.228C218.181 274.031 220.04 273.433 221.964 273.433C224.229 273.433 225.961 274.074 227.157 275.356C228.397 276.639 229.017 278.541 229.017 281.063V293.63C229.017 294.912 229.124 295.853 229.337 296.451C229.551 297.05 229.936 297.477 230.492 297.733C231.047 297.947 231.902 298.054 233.056 298.054C233.184 298.054 233.249 298.182 233.249 298.439C233.249 298.695 233.184 298.823 233.056 298.823C232.073 298.823 231.282 298.802 230.684 298.759L227.222 298.695L223.695 298.759C223.139 298.802 222.37 298.823 221.387 298.823ZM204.909 298.823C204.78 298.823 204.716 298.695 204.716 298.439C204.716 298.182 204.78 298.054 204.909 298.054C206.063 298.054 206.918 297.947 207.473 297.733C208.029 297.477 208.392 297.05 208.563 296.451C208.777 295.853 208.884 294.912 208.884 293.63V280.935C208.884 279.481 208.713 278.434 208.371 277.793C208.029 277.152 207.452 276.831 206.64 276.831C205.956 276.831 204.802 277.152 203.177 277.793H203.049C202.878 277.793 202.75 277.707 202.664 277.536C202.622 277.323 202.686 277.173 202.857 277.088L210.294 273.561C210.38 273.518 210.508 273.497 210.679 273.497C211.064 273.497 211.47 273.989 211.897 274.972C212.325 275.955 212.539 277.216 212.539 278.755V293.63C212.539 294.912 212.624 295.853 212.795 296.451C213.009 297.05 213.393 297.477 213.949 297.733C214.505 297.947 215.36 298.054 216.514 298.054C216.642 298.054 216.706 298.182 216.706 298.439C216.706 298.695 216.642 298.823 216.514 298.823C215.531 298.823 214.761 298.802 214.206 298.759L210.743 298.695L207.217 298.759C206.661 298.802 205.892 298.823 204.909 298.823ZM253.041 298.823C252.956 298.823 252.913 298.695 252.913 298.439C252.913 298.182 252.956 298.054 253.041 298.054C254.195 298.054 255.05 297.947 255.606 297.733C256.205 297.477 256.611 297.05 256.824 296.451C257.038 295.853 257.145 294.912 257.145 293.63V281.64C257.145 280.101 256.974 278.99 256.632 278.306C256.333 277.622 255.798 277.28 255.029 277.28C254.26 277.28 253.298 277.579 252.144 278.178H252.08C251.909 278.178 251.78 278.071 251.695 277.857C251.609 277.643 251.631 277.494 251.759 277.408L260.094 273.561L260.351 273.497C260.436 273.497 260.543 273.561 260.671 273.689C260.8 273.775 260.864 273.882 260.864 274.01C260.864 274.309 260.842 275.164 260.8 276.575C260.757 277.985 260.735 279.652 260.735 281.576V293.63C260.735 294.912 260.842 295.853 261.056 296.451C261.27 297.05 261.655 297.477 262.21 297.733C262.766 297.947 263.621 298.054 264.775 298.054C264.903 298.054 264.967 298.182 264.967 298.439C264.967 298.695 264.903 298.823 264.775 298.823C263.792 298.823 263.001 298.802 262.403 298.759L258.94 298.695L255.478 298.759C254.879 298.802 254.067 298.823 253.041 298.823ZM258.427 265.995C257.572 265.995 256.888 265.76 256.375 265.29C255.863 264.82 255.606 264.157 255.606 263.302C255.606 262.447 255.863 261.785 256.375 261.315C256.888 260.844 257.572 260.609 258.427 260.609C259.282 260.609 259.945 260.844 260.415 261.315C260.885 261.785 261.12 262.447 261.12 263.302C261.12 264.157 260.885 264.82 260.415 265.29C259.945 265.76 259.282 265.995 258.427 265.995ZM272.305 277.985C272.305 279.481 272.796 280.678 273.779 281.576C274.763 282.431 276.216 283.35 278.139 284.333C279.636 285.102 280.79 285.765 281.602 286.321C282.457 286.876 283.183 287.603 283.782 288.501C284.38 289.398 284.679 290.488 284.679 291.771C284.679 293.951 283.867 295.789 282.243 297.285C280.619 298.781 278.417 299.529 275.639 299.529C273.373 299.529 271.322 298.888 269.484 297.605C269.227 297.434 269.099 297.178 269.099 296.836L268.971 291.835C268.971 291.706 269.077 291.642 269.291 291.642C269.548 291.6 269.697 291.642 269.74 291.771C270.552 293.951 271.599 295.596 272.882 296.708C274.207 297.776 275.724 298.311 277.434 298.311C278.759 298.311 279.785 298.011 280.512 297.413C281.281 296.772 281.666 295.831 281.666 294.592C281.666 293.395 281.388 292.39 280.832 291.578C280.319 290.723 279.678 290.061 278.909 289.591C278.139 289.078 277.092 288.479 275.767 287.795C274.357 287.111 273.224 286.492 272.369 285.936C271.557 285.38 270.851 284.653 270.253 283.756C269.697 282.858 269.419 281.747 269.419 280.422C269.419 278.113 270.274 276.361 271.984 275.164C273.737 273.924 275.788 273.305 278.139 273.305C279.849 273.305 281.409 273.625 282.82 274.266C283.077 274.352 283.226 274.459 283.269 274.587C283.354 274.673 283.397 274.801 283.397 274.972C283.397 275.827 283.376 276.489 283.333 276.959L283.269 279.652C283.269 279.738 283.141 279.781 282.884 279.781C282.628 279.781 282.499 279.738 282.499 279.652C282.499 278.284 281.773 277.088 280.319 276.062C278.909 275.036 277.413 274.523 275.831 274.523C274.72 274.523 273.844 274.822 273.202 275.421C272.604 275.976 272.305 276.831 272.305 277.985ZM301.087 299.657C298.607 299.657 296.406 299.059 294.482 297.862C292.602 296.622 291.148 294.976 290.122 292.925C289.097 290.83 288.584 288.565 288.584 286.128C288.584 283.35 289.246 280.999 290.571 279.075C291.939 277.109 293.67 275.656 295.765 274.715C297.902 273.732 300.061 273.241 302.241 273.241C304.763 273.241 306.964 273.86 308.845 275.1C310.726 276.34 312.158 277.985 313.141 280.037C314.167 282.046 314.679 284.183 314.679 286.449C314.679 289.099 314.06 291.429 312.82 293.438C311.58 295.404 309.913 296.943 307.819 298.054C305.767 299.123 303.523 299.657 301.087 299.657ZM302.946 298.439C305.297 298.439 307.114 297.605 308.396 295.938C309.678 294.271 310.319 291.706 310.319 288.244C310.319 285.594 309.871 283.222 308.973 281.127C308.118 279.033 306.921 277.408 305.382 276.254C303.844 275.057 302.091 274.459 300.125 274.459C297.817 274.459 296.021 275.292 294.739 276.959C293.499 278.626 292.879 281.02 292.879 284.141C292.879 286.748 293.307 289.142 294.162 291.322C295.017 293.502 296.214 295.233 297.752 296.515C299.291 297.798 301.022 298.439 302.946 298.439ZM344.231 299.593C341.452 299.593 339.123 298.994 337.242 297.798C335.361 296.558 333.972 294.976 333.074 293.053C332.177 291.129 331.728 289.099 331.728 286.962C331.728 284.226 332.412 281.854 333.78 279.845C335.147 277.793 336.9 276.233 339.037 275.164C341.217 274.053 343.44 273.497 345.705 273.497C347.586 273.497 349.296 273.882 350.835 274.651C352.416 275.378 353.207 276.297 353.207 277.408C353.207 277.964 352.993 278.455 352.566 278.883C352.181 279.268 351.647 279.46 350.963 279.46C349.809 279.46 348.869 278.755 348.142 277.344C347.586 276.489 346.988 275.848 346.347 275.421C345.705 274.993 344.786 274.779 343.59 274.779C341.196 274.779 339.315 275.72 337.947 277.601C336.622 279.439 335.96 281.918 335.96 285.038C335.96 288.629 336.857 291.578 338.652 293.886C340.448 296.195 343.141 297.349 346.731 297.349C349.339 297.349 351.519 296.643 353.271 295.233H353.335C353.464 295.233 353.571 295.297 353.656 295.425C353.784 295.553 353.806 295.66 353.72 295.746C352.224 297.071 350.707 298.054 349.168 298.695C347.672 299.294 346.026 299.593 344.231 299.593ZM368.934 299.657C366.454 299.657 364.253 299.059 362.329 297.862C360.449 296.622 358.995 294.976 357.969 292.925C356.944 290.83 356.431 288.565 356.431 286.128C356.431 283.35 357.093 280.999 358.418 279.075C359.786 277.109 361.517 275.656 363.612 274.715C365.749 273.732 367.908 273.241 370.088 273.241C372.61 273.241 374.811 273.86 376.692 275.1C378.573 276.34 380.005 277.985 380.988 280.037C382.014 282.046 382.526 284.183 382.526 286.449C382.526 289.099 381.907 291.429 380.667 293.438C379.427 295.404 377.76 296.943 375.666 298.054C373.614 299.123 371.37 299.657 368.934 299.657ZM370.793 298.439C373.144 298.439 374.961 297.605 376.243 295.938C377.525 294.271 378.166 291.706 378.166 288.244C378.166 285.594 377.718 283.222 376.82 281.127C375.965 279.033 374.768 277.408 373.229 276.254C371.691 275.057 369.938 274.459 367.972 274.459C365.664 274.459 363.868 275.292 362.586 276.959C361.346 278.626 360.726 281.02 360.726 284.141C360.726 286.748 361.154 289.142 362.009 291.322C362.864 293.502 364.061 295.233 365.599 296.515C367.138 297.798 368.869 298.439 370.793 298.439ZM403.654 298.823C403.526 298.823 403.462 298.695 403.462 298.439C403.462 298.182 403.526 298.054 403.654 298.054C404.808 298.054 405.663 297.947 406.219 297.733C406.775 297.477 407.138 297.05 407.309 296.451C407.523 295.853 407.63 294.912 407.63 293.63V283.243C407.63 280.678 407.138 278.819 406.155 277.665C405.214 276.468 403.74 275.869 401.731 275.869C400.149 275.869 398.546 276.361 396.922 277.344C395.34 278.327 393.972 279.674 392.818 281.383L392.562 280.614C394.443 278.092 396.302 276.233 398.14 275.036C399.978 273.839 401.88 273.241 403.847 273.241C406.198 273.241 408.014 273.924 409.297 275.292C410.622 276.617 411.284 278.541 411.284 281.063V293.63C411.284 294.912 411.37 295.853 411.541 296.451C411.754 297.05 412.139 297.477 412.695 297.733C413.251 297.947 414.105 298.054 415.26 298.054C415.388 298.054 415.452 298.182 415.452 298.439C415.452 298.695 415.388 298.823 415.26 298.823C414.276 298.823 413.507 298.802 412.951 298.759L409.489 298.695L405.962 298.759C405.407 298.802 404.637 298.823 403.654 298.823ZM386.407 298.823C386.278 298.823 386.214 298.695 386.214 298.439C386.214 298.182 386.278 298.054 386.407 298.054C387.561 298.054 388.416 297.947 388.971 297.733C389.527 297.477 389.89 297.05 390.061 296.451C390.275 295.853 390.382 294.912 390.382 293.63V280.935C390.382 279.481 390.211 278.434 389.869 277.793C389.527 277.152 388.95 276.831 388.138 276.831C387.454 276.831 386.3 277.152 384.675 277.793H384.547C384.376 277.793 384.248 277.707 384.162 277.536C384.12 277.323 384.184 277.173 384.355 277.088L391.792 273.561C391.878 273.518 392.006 273.497 392.177 273.497C392.562 273.497 392.968 273.989 393.395 274.972C393.823 275.955 394.037 277.216 394.037 278.755V293.63C394.037 294.912 394.122 295.853 394.293 296.451C394.507 297.05 394.891 297.477 395.447 297.733C396.003 297.947 396.858 298.054 398.012 298.054C398.14 298.054 398.204 298.182 398.204 298.439C398.204 298.695 398.14 298.823 398.012 298.823C397.029 298.823 396.259 298.802 395.704 298.759L392.241 298.695L388.715 298.759C388.159 298.802 387.39 298.823 386.407 298.823ZM443.149 299.593C440.67 299.593 438.554 299.016 436.802 297.862C435.049 296.708 433.703 295.19 432.762 293.309C431.864 291.429 431.416 289.42 431.416 287.282C431.416 284.76 432.014 282.452 433.211 280.358C434.408 278.22 436.032 276.553 438.084 275.356C440.178 274.117 442.465 273.497 444.944 273.497C447.338 273.497 449.176 274.138 450.459 275.421C451.741 276.703 452.382 278.498 452.382 280.806C452.382 281.405 452.318 281.832 452.19 282.089C452.104 282.345 451.912 282.473 451.613 282.473H448.022L448.086 281.319C448.086 279.182 447.616 277.558 446.676 276.446C445.735 275.335 444.453 274.779 442.829 274.779C440.563 274.779 438.789 275.677 437.507 277.472C436.267 279.268 435.647 281.725 435.647 284.846C435.647 288.565 436.524 291.578 438.276 293.886C440.029 296.195 442.487 297.349 445.65 297.349C446.932 297.349 448.022 297.178 448.92 296.836C449.86 296.494 450.907 295.96 452.062 295.233H452.126C452.254 295.233 452.361 295.318 452.446 295.489C452.574 295.618 452.596 295.746 452.51 295.874C449.604 298.353 446.483 299.593 443.149 299.593ZM434.429 281.704L448.984 281.448V282.473L434.493 282.538L434.429 281.704ZM456.563 298.823C456.435 298.823 456.37 298.695 456.37 298.439C456.37 298.182 456.435 298.054 456.563 298.054C457.717 298.054 458.572 297.947 459.128 297.733C459.683 297.477 460.068 297.05 460.282 296.451C460.495 295.81 460.602 294.87 460.602 293.63V260.481C460.602 258.942 460.453 257.831 460.153 257.147C459.854 256.463 459.32 256.121 458.55 256.121C457.909 256.121 456.926 256.42 455.601 257.019H455.473C455.345 257.019 455.238 256.912 455.152 256.698C455.109 256.484 455.152 256.356 455.28 256.313L463.488 252.402C463.573 252.36 463.68 252.338 463.808 252.338C463.936 252.338 464.065 252.402 464.193 252.531C464.321 252.616 464.385 252.723 464.385 252.851V293.63C464.385 294.87 464.471 295.789 464.642 296.387C464.855 296.985 465.24 297.413 465.796 297.669C466.351 297.926 467.206 298.054 468.36 298.054C468.489 298.054 468.553 298.182 468.553 298.439C468.553 298.695 468.489 298.823 468.36 298.823C467.42 298.823 466.651 298.802 466.052 298.759L462.462 298.695L458.999 298.759C458.401 298.802 457.589 298.823 456.563 298.823ZM497.802 299.593C495.024 299.593 492.694 298.994 490.814 297.798C488.933 296.558 487.544 294.976 486.646 293.053C485.748 291.129 485.3 289.099 485.3 286.962C485.3 284.226 485.983 281.854 487.351 279.845C488.719 277.793 490.472 276.233 492.609 275.164C494.789 274.053 497.012 273.497 499.277 273.497C501.158 273.497 502.868 273.882 504.407 274.651C505.988 275.378 506.779 276.297 506.779 277.408C506.779 277.964 506.565 278.455 506.138 278.883C505.753 279.268 505.219 279.46 504.535 279.46C503.381 279.46 502.44 278.755 501.714 277.344C501.158 276.489 500.56 275.848 499.918 275.421C499.277 274.993 498.358 274.779 497.161 274.779C494.768 274.779 492.887 275.72 491.519 277.601C490.194 279.439 489.531 281.918 489.531 285.038C489.531 288.629 490.429 291.578 492.224 293.886C494.02 296.195 496.712 297.349 500.303 297.349C502.911 297.349 505.091 296.643 506.843 295.233H506.907C507.035 295.233 507.142 295.297 507.228 295.425C507.356 295.553 507.377 295.66 507.292 295.746C505.796 297.071 504.278 298.054 502.74 298.695C501.243 299.294 499.598 299.593 497.802 299.593ZM510.635 298.823C510.506 298.823 510.442 298.695 510.442 298.439C510.442 298.182 510.506 298.054 510.635 298.054C511.789 298.054 512.644 297.947 513.199 297.733C513.755 297.477 514.14 297.05 514.353 296.451C514.567 295.81 514.674 294.87 514.674 293.63V260.481C514.674 258.942 514.524 257.831 514.225 257.147C513.926 256.463 513.392 256.121 512.622 256.121C511.981 256.121 510.998 256.42 509.673 257.019H509.545C509.416 257.019 509.309 256.912 509.224 256.698C509.181 256.484 509.224 256.356 509.352 256.313L517.559 252.402C517.645 252.36 517.752 252.338 517.88 252.338C518.008 252.338 518.136 252.402 518.265 252.531C518.393 252.616 518.457 252.723 518.457 252.851V293.63C518.457 294.87 518.542 295.789 518.713 296.387C518.927 296.985 519.312 297.413 519.867 297.669C520.423 297.926 521.278 298.054 522.432 298.054C522.56 298.054 522.625 298.182 522.625 298.439C522.625 298.695 522.56 298.823 522.432 298.823C521.492 298.823 520.722 298.802 520.124 298.759L516.533 298.695L513.071 298.759C512.473 298.802 511.66 298.823 510.635 298.823ZM526.716 298.823C526.63 298.823 526.588 298.695 526.588 298.439C526.588 298.182 526.63 298.054 526.716 298.054C527.87 298.054 528.725 297.947 529.281 297.733C529.879 297.477 530.285 297.05 530.499 296.451C530.713 295.853 530.82 294.912 530.82 293.63V281.64C530.82 280.101 530.649 278.99 530.307 278.306C530.007 277.622 529.473 277.28 528.704 277.28C527.934 277.28 526.972 277.579 525.818 278.178H525.754C525.583 278.178 525.455 278.071 525.37 277.857C525.284 277.643 525.305 277.494 525.434 277.408L533.769 273.561L534.025 273.497C534.111 273.497 534.218 273.561 534.346 273.689C534.474 273.775 534.538 273.882 534.538 274.01C534.538 274.309 534.517 275.164 534.474 276.575C534.431 277.985 534.41 279.652 534.41 281.576V293.63C534.41 294.912 534.517 295.853 534.731 296.451C534.944 297.05 535.329 297.477 535.885 297.733C536.44 297.947 537.295 298.054 538.45 298.054C538.578 298.054 538.642 298.182 538.642 298.439C538.642 298.695 538.578 298.823 538.45 298.823C537.466 298.823 536.676 298.802 536.077 298.759L532.615 298.695L529.152 298.759C528.554 298.802 527.742 298.823 526.716 298.823ZM532.102 265.995C531.247 265.995 530.563 265.76 530.05 265.29C529.537 264.82 529.281 264.157 529.281 263.302C529.281 262.447 529.537 261.785 530.05 261.315C530.563 260.844 531.247 260.609 532.102 260.609C532.957 260.609 533.619 260.844 534.09 261.315C534.56 261.785 534.795 262.447 534.795 263.302C534.795 264.157 534.56 264.82 534.09 265.29C533.619 265.76 532.957 265.995 532.102 265.995ZM553.609 299.593C551.13 299.593 549.014 299.016 547.262 297.862C545.509 296.708 544.163 295.19 543.222 293.309C542.325 291.429 541.876 289.42 541.876 287.282C541.876 284.76 542.474 282.452 543.671 280.358C544.868 278.22 546.492 276.553 548.544 275.356C550.639 274.117 552.925 273.497 555.405 273.497C557.798 273.497 559.636 274.138 560.919 275.421C562.201 276.703 562.842 278.498 562.842 280.806C562.842 281.405 562.778 281.832 562.65 282.089C562.564 282.345 562.372 282.473 562.073 282.473H558.482L558.546 281.319C558.546 279.182 558.076 277.558 557.136 276.446C556.195 275.335 554.913 274.779 553.289 274.779C551.023 274.779 549.249 275.677 547.967 277.472C546.727 279.268 546.108 281.725 546.108 284.846C546.108 288.565 546.984 291.578 548.736 293.886C550.489 296.195 552.947 297.349 556.11 297.349C557.392 297.349 558.482 297.178 559.38 296.836C560.32 296.494 561.368 295.96 562.522 295.233H562.586C562.714 295.233 562.821 295.318 562.906 295.489C563.035 295.618 563.056 295.746 562.971 295.874C560.064 298.353 556.944 299.593 553.609 299.593ZM544.889 281.704L559.444 281.448V282.473L544.954 282.538L544.889 281.704ZM584.591 298.823C584.463 298.823 584.399 298.695 584.399 298.439C584.399 298.182 584.463 298.054 584.591 298.054C585.745 298.054 586.6 297.947 587.156 297.733C587.712 297.477 588.075 297.05 588.246 296.451C588.46 295.853 588.566 294.912 588.566 293.63V283.243C588.566 280.678 588.075 278.819 587.092 277.665C586.151 276.468 584.677 275.869 582.668 275.869C581.086 275.869 579.483 276.361 577.859 277.344C576.277 278.327 574.909 279.674 573.755 281.383L573.499 280.614C575.38 278.092 577.239 276.233 579.077 275.036C580.915 273.839 582.817 273.241 584.784 273.241C587.135 273.241 588.951 273.924 590.234 275.292C591.559 276.617 592.221 278.541 592.221 281.063V293.63C592.221 294.912 592.307 295.853 592.478 296.451C592.691 297.05 593.076 297.477 593.632 297.733C594.187 297.947 595.042 298.054 596.196 298.054C596.325 298.054 596.389 298.182 596.389 298.439C596.389 298.695 596.325 298.823 596.196 298.823C595.213 298.823 594.444 298.802 593.888 298.759L590.426 298.695L586.899 298.759C586.344 298.802 585.574 298.823 584.591 298.823ZM567.344 298.823C567.215 298.823 567.151 298.695 567.151 298.439C567.151 298.182 567.215 298.054 567.344 298.054C568.498 298.054 569.353 297.947 569.908 297.733C570.464 297.477 570.827 297.05 570.998 296.451C571.212 295.853 571.319 294.912 571.319 293.63V280.935C571.319 279.481 571.148 278.434 570.806 277.793C570.464 277.152 569.887 276.831 569.075 276.831C568.391 276.831 567.237 277.152 565.612 277.793H565.484C565.313 277.793 565.185 277.707 565.099 277.536C565.057 277.323 565.121 277.173 565.292 277.088L572.729 273.561C572.815 273.518 572.943 273.497 573.114 273.497C573.499 273.497 573.905 273.989 574.332 274.972C574.76 275.955 574.974 277.216 574.974 278.755V293.63C574.974 294.912 575.059 295.853 575.23 296.451C575.444 297.05 575.828 297.477 576.384 297.733C576.94 297.947 577.795 298.054 578.949 298.054C579.077 298.054 579.141 298.182 579.141 298.439C579.141 298.695 579.077 298.823 578.949 298.823C577.966 298.823 577.196 298.802 576.641 298.759L573.178 298.695L569.652 298.759C569.096 298.802 568.327 298.823 567.344 298.823ZM608.353 299.593C606.558 299.593 605.083 299.187 603.929 298.375C602.775 297.563 602.198 296.216 602.198 294.335V279.268C602.198 278.156 602.113 277.365 601.942 276.895C601.813 276.425 601.535 276.126 601.108 275.998C600.681 275.827 599.954 275.741 598.928 275.741C598.757 275.741 598.672 275.613 598.672 275.356C598.672 275.057 598.757 274.908 598.928 274.908C600.638 274.865 602.027 274.416 603.096 273.561C604.164 272.663 604.784 271.488 604.955 270.035C604.955 269.906 605.126 269.842 605.468 269.842C605.767 269.842 605.917 269.906 605.917 270.035V292.155C605.917 295.618 607.605 297.349 610.982 297.349C612.948 297.349 614.658 296.75 616.112 295.553L616.24 295.489C616.411 295.489 616.539 295.596 616.624 295.81C616.71 295.981 616.689 296.109 616.56 296.195C614.979 297.434 613.547 298.311 612.264 298.823C611.025 299.336 609.721 299.593 608.353 299.593ZM614.573 277.216C611.837 276.532 608.588 276.19 604.827 276.19V274.779C607.52 274.779 610.854 274.566 614.829 274.138C614.915 274.138 615 274.309 615.086 274.651C615.214 274.95 615.278 275.292 615.278 275.677C615.278 276.019 615.193 276.382 615.022 276.767C614.893 277.109 614.744 277.259 614.573 277.216ZM630.723 299.593C628.244 299.593 626.128 299.016 624.376 297.862C622.623 296.708 621.277 295.19 620.336 293.309C619.439 291.429 618.99 289.42 618.99 287.282C618.99 284.76 619.588 282.452 620.785 280.358C621.982 278.22 623.606 276.553 625.658 275.356C627.753 274.117 630.039 273.497 632.519 273.497C634.912 273.497 636.75 274.138 638.033 275.421C639.315 276.703 639.956 278.498 639.956 280.806C639.956 281.405 639.892 281.832 639.764 282.089C639.679 282.345 639.486 282.473 639.187 282.473H635.596L635.66 281.319C635.66 279.182 635.19 277.558 634.25 276.446C633.309 275.335 632.027 274.779 630.403 274.779C628.137 274.779 626.363 275.677 625.081 277.472C623.841 279.268 623.222 281.725 623.222 284.846C623.222 288.565 624.098 291.578 625.85 293.886C627.603 296.195 630.061 297.349 633.224 297.349C634.506 297.349 635.596 297.178 636.494 296.836C637.434 296.494 638.482 295.96 639.636 295.233H639.7C639.828 295.233 639.935 295.318 640.02 295.489C640.149 295.618 640.17 295.746 640.085 295.874C637.178 298.353 634.058 299.593 630.723 299.593ZM622.003 281.704L636.558 281.448V282.473L622.068 282.538L622.003 281.704Z" fill="white"/>
</svg>
